<?xml version="1.0" encoding="UTF-8"?>
<svg xmlns="http://www.w3.org/2000/svg" xmlns:xlink="http://www.w3.org/1999/xlink" width="155pt" height="64pt" viewBox="0 0 155 64" version="1.1">
<g id="surface1">
<path style=" stroke:none;fill-rule:nonzero;fill:rgb(50%,50%,50%);fill-opacity:1;" d="M 112.921875 46.601562 L 4.917969 46.601562 L 4.917969 61 L 112.921875 61 "/>
<path style=" stroke:none;fill-rule:nonzero;fill:rgb(80.076599%,80.076599%,80.076599%);fill-opacity:1;" d="M 115.621094 46.601562 L 79.621094 46.601562 L 79.621094 39.398438 L 115.621094 39.398438 L 115.621094 46.601562 "/>
<path style="fill:none;stroke-width:5;stroke-linecap:butt;stroke-linejoin:miter;stroke:rgb(0%,0%,0%);stroke-opacity:1;stroke-miterlimit:10;" d="M 1156.210938 173.984375 L 796.210938 173.984375 L 796.210938 246.015625 L 1156.210938 246.015625 Z M 1156.210938 173.984375 " transform="matrix(0.1,0,0,-0.1,0,64)"/>
<path style=" stroke:none;fill-rule:nonzero;fill:rgb(80.076599%,80.076599%,80.076599%);fill-opacity:1;" d="M 118.859375 39.398438 L 82.859375 39.398438 L 82.859375 32.199219 L 118.859375 32.199219 L 118.859375 39.398438 "/>
<path style="fill:none;stroke-width:5;stroke-linecap:butt;stroke-linejoin:miter;stroke:rgb(0%,0%,0%);stroke-opacity:1;stroke-miterlimit:10;" d="M 1188.59375 246.015625 L 828.59375 246.015625 L 828.59375 318.007812 L 1188.59375 318.007812 Z M 1188.59375 246.015625 " transform="matrix(0.1,0,0,-0.1,0,64)"/>
<path style=" stroke:none;fill-rule:nonzero;fill:rgb(80.076599%,80.076599%,80.076599%);fill-opacity:1;" d="M 122.910156 32.199219 L 86.910156 32.199219 L 86.910156 25 L 122.910156 25 L 122.910156 32.199219 "/>
<path style="fill:none;stroke-width:5;stroke-linecap:butt;stroke-linejoin:miter;stroke:rgb(0%,0%,0%);stroke-opacity:1;stroke-miterlimit:10;" d="M 1229.101562 318.007812 L 869.101562 318.007812 L 869.101562 390 L 1229.101562 390 Z M 1229.101562 318.007812 " transform="matrix(0.1,0,0,-0.1,0,64)"/>
<path style=" stroke:none;fill-rule:nonzero;fill:rgb(80.076599%,80.076599%,80.076599%);fill-opacity:1;" d="M 128.308594 25 L 92.308594 25 L 92.308594 17.800781 L 128.308594 17.800781 L 128.308594 25 "/>
<path style="fill:none;stroke-width:5;stroke-linecap:butt;stroke-linejoin:miter;stroke:rgb(0%,0%,0%);stroke-opacity:1;stroke-miterlimit:10;" d="M 1283.085938 390 L 923.085938 390 L 923.085938 461.992188 L 1283.085938 461.992188 Z M 1283.085938 390 " transform="matrix(0.1,0,0,-0.1,0,64)"/>
<path style=" stroke:none;fill-rule:nonzero;fill:rgb(80.076599%,80.076599%,80.076599%);fill-opacity:1;" d="M 136.410156 17.800781 L 100.410156 17.800781 L 100.410156 10.601562 L 136.410156 10.601562 L 136.410156 17.800781 "/>
<path style="fill:none;stroke-width:5;stroke-linecap:butt;stroke-linejoin:miter;stroke:rgb(0%,0%,0%);stroke-opacity:1;stroke-miterlimit:10;" d="M 1364.101562 461.992188 L 1004.101562 461.992188 L 1004.101562 533.984375 L 1364.101562 533.984375 Z M 1364.101562 461.992188 " transform="matrix(0.1,0,0,-0.1,0,64)"/>
<path style=" stroke:none;fill-rule:nonzero;fill:rgb(80.076599%,80.076599%,80.076599%);fill-opacity:1;" d="M 152.609375 10.601562 L 116.609375 10.601562 L 116.609375 3.398438 L 152.609375 3.398438 L 152.609375 10.601562 "/>
<path style="fill:none;stroke-width:5;stroke-linecap:butt;stroke-linejoin:miter;stroke:rgb(0%,0%,0%);stroke-opacity:1;stroke-miterlimit:10;" d="M 1526.09375 533.984375 L 1166.09375 533.984375 L 1166.09375 606.015625 L 1526.09375 606.015625 Z M 1526.09375 533.984375 " transform="matrix(0.1,0,0,-0.1,0,64)"/>
</g>
</svg>
