<?xml version="1.0" encoding="UTF-8"?>
<svg xmlns="http://www.w3.org/2000/svg" xmlns:xlink="http://www.w3.org/1999/xlink" width="435.532349pt" height="151.62645pt" viewBox="0 0 435.532349 151.62645" version="1.1">
<defs>
<clipPath id="clip1">
  <path d="M 28 143 L 33 143 L 33 151.625 L 28 151.625 Z M 28 143 "/>
</clipPath>
<clipPath id="clip2">
  <path d="M 57 143 L 63 143 L 63 151.625 L 57 151.625 Z M 57 143 "/>
</clipPath>
<clipPath id="clip3">
  <path d="M 86 143 L 92 143 L 92 151.625 L 86 151.625 Z M 86 143 "/>
</clipPath>
<clipPath id="clip4">
  <path d="M 113 143 L 120 143 L 120 151.625 L 113 151.625 Z M 113 143 "/>
</clipPath>
<clipPath id="clip5">
  <path d="M 143 143 L 149 143 L 149 151.625 L 143 151.625 Z M 143 143 "/>
</clipPath>
<clipPath id="clip6">
  <path d="M 426 135 L 435.53125 135 L 435.53125 144 L 426 144 Z M 426 135 "/>
</clipPath>
<clipPath id="clip7">
  <path d="M 247 0 L 435.53125 0 L 435.53125 130 L 247 130 Z M 247 0 "/>
</clipPath>
<clipPath id="clip8">
  <path d="M 259 143 L 264 143 L 264 151.625 L 259 151.625 Z M 259 143 "/>
</clipPath>
<clipPath id="clip9">
  <path d="M 287 143 L 293 143 L 293 151.625 L 287 151.625 Z M 287 143 "/>
</clipPath>
<clipPath id="clip10">
  <path d="M 316 143 L 322 143 L 322 151.625 L 316 151.625 Z M 316 143 "/>
</clipPath>
<clipPath id="clip11">
  <path d="M 344 143 L 350 143 L 350 151.625 L 344 151.625 Z M 344 143 "/>
</clipPath>
<clipPath id="clip12">
  <path d="M 373 143 L 379 143 L 379 151.625 L 373 151.625 Z M 373 143 "/>
</clipPath>
</defs>
<g id="surface1">
<path style="fill:none;stroke-width:0.8;stroke-linecap:butt;stroke-linejoin:miter;stroke:rgb(100%,0%,0%);stroke-opacity:1;stroke-miterlimit:4;" d="M 2.003906 139.199219 L 203.605469 139.199219 "/>
<path style="fill-rule:evenodd;fill:rgb(100%,0%,0%);fill-opacity:1;stroke-width:0.4;stroke-linecap:butt;stroke-linejoin:miter;stroke:rgb(100%,0%,0%);stroke-opacity:1;stroke-miterlimit:4;" d="M 3.574219 139.199219 C 3.574219 140.082031 2.855469 140.800781 1.972656 140.800781 C 1.089844 140.800781 0.371094 140.082031 0.371094 139.199219 C 0.371094 138.316406 1.089844 137.601562 1.972656 137.601562 C 2.855469 137.601562 3.574219 138.316406 3.574219 139.199219 Z M 3.574219 139.199219 "/>
<path style="fill-rule:evenodd;fill:rgb(100%,0%,0%);fill-opacity:1;stroke-width:0.4;stroke-linecap:butt;stroke-linejoin:miter;stroke:rgb(100%,0%,0%);stroke-opacity:1;stroke-miterlimit:4;" d="M -200.40625 -139.199219 L -198.804688 -140.800781 L -204.40625 -139.199219 L -198.804688 -137.601562 Z M -200.40625 -139.199219 " transform="matrix(-1,0,0,-1,0,0)"/>
<path style="fill:none;stroke-width:0.8;stroke-linecap:butt;stroke-linejoin:miter;stroke:rgb(100%,0%,0%);stroke-opacity:1;stroke-miterlimit:4;" d="M 2.003906 139.199219 L 2.003906 9.601562 "/>
<path style="fill-rule:evenodd;fill:rgb(100%,0%,0%);fill-opacity:1;stroke-width:0.4;stroke-linecap:butt;stroke-linejoin:miter;stroke:rgb(100%,0%,0%);stroke-opacity:1;stroke-miterlimit:4;" d="M -137.632812 2.003906 C -137.632812 2.886719 -138.347656 3.605469 -139.230469 3.605469 C -140.113281 3.605469 -140.832031 2.886719 -140.832031 2.003906 C -140.832031 1.121094 -140.113281 0.40625 -139.230469 0.40625 C -138.347656 0.40625 -137.632812 1.121094 -137.632812 2.003906 Z M -137.632812 2.003906 " transform="matrix(0,-1,1,0,0,0)"/>
<path style="fill-rule:evenodd;fill:rgb(100%,0%,0%);fill-opacity:1;stroke-width:0.4;stroke-linecap:butt;stroke-linejoin:miter;stroke:rgb(100%,0%,0%);stroke-opacity:1;stroke-miterlimit:4;" d="M 12.800781 -2.003906 L 14.398438 -3.605469 L 8.800781 -2.003906 L 14.398438 -0.40625 Z M 12.800781 -2.003906 " transform="matrix(0,1,-1,0,0,0)"/>
<path style="fill-rule:nonzero;fill:rgb(79.998779%,79.998779%,79.998779%);fill-opacity:1;stroke-width:1.6;stroke-linecap:square;stroke-linejoin:miter;stroke:rgb(0%,0%,0%);stroke-opacity:1;stroke-miterlimit:4;" d="M 30.804688 24 L 59.605469 24 L 59.605469 139.199219 L 30.804688 139.199219 Z M 30.804688 24 "/>
<path style="fill-rule:nonzero;fill:rgb(79.998779%,79.998779%,79.998779%);fill-opacity:1;stroke-width:1.6;stroke-linecap:square;stroke-linejoin:miter;stroke:rgb(0%,0%,0%);stroke-opacity:1;stroke-miterlimit:4;" d="M 59.605469 81.601562 L 88.40625 81.601562 L 88.40625 139.199219 L 59.605469 139.199219 Z M 59.605469 81.601562 "/>
<path style="fill-rule:nonzero;fill:rgb(79.998779%,79.998779%,79.998779%);fill-opacity:1;stroke-width:1.6;stroke-linecap:square;stroke-linejoin:miter;stroke:rgb(0%,0%,0%);stroke-opacity:1;stroke-miterlimit:4;" d="M 88.40625 100.800781 L 117.203125 100.800781 L 117.203125 139.199219 L 88.40625 139.199219 Z M 88.40625 100.800781 "/>
<path style="fill-rule:nonzero;fill:rgb(79.998779%,79.998779%,79.998779%);fill-opacity:1;stroke-width:1.6;stroke-linecap:square;stroke-linejoin:miter;stroke:rgb(0%,0%,0%);stroke-opacity:1;stroke-miterlimit:4;" d="M 117.203125 110.398438 L 146.003906 110.398438 L 146.003906 139.199219 L 117.203125 139.199219 Z M 117.203125 110.398438 "/>
<path style="fill:none;stroke-width:1.6;stroke-linecap:butt;stroke-linejoin:miter;stroke:rgb(0%,0%,100%);stroke-opacity:1;stroke-miterlimit:4;" d="M 26.003906 0 C 26.003906 13.46875 40.40625 67.199219 59.605469 81.601562 C 78.804688 96 78.675781 96.042969 88.40625 100.800781 C 98.132812 105.558594 107.570312 108.007812 117.203125 110.398438 C 126.835938 112.792969 131.617188 113.40625 146.003906 115.199219 C 160.390625 116.996094 203.605469 120 203.605469 120 "/>
<path style=" stroke:none;fill-rule:nonzero;fill:rgb(0%,0%,0%);fill-opacity:1;" d="M 74.414062 98.796875 C 74.414062 98.574219 74.414062 98.574219 74.171875 98.574219 C 73.628906 99.097656 72.878906 99.097656 72.539062 99.097656 L 72.539062 99.398438 C 72.726562 99.398438 73.289062 99.398438 73.742188 99.171875 L 73.742188 103.429688 C 73.742188 103.710938 73.742188 103.824219 72.914062 103.824219 L 72.597656 103.824219 L 72.597656 104.121094 C 72.746094 104.121094 73.777344 104.085938 74.078125 104.085938 C 74.339844 104.085938 75.390625 104.121094 75.578125 104.121094 L 75.578125 103.824219 L 75.257812 103.824219 C 74.414062 103.824219 74.414062 103.710938 74.414062 103.429688 Z M 74.414062 98.796875 "/>
<path style="fill:none;stroke-width:0.4776;stroke-linecap:butt;stroke-linejoin:miter;stroke:rgb(0%,0%,0%);stroke-opacity:1;stroke-miterlimit:10;" d="M 71.625 -105.839844 L 76.386719 -105.839844 " transform="matrix(1,0,0,-1,0,0)"/>
<path style=" stroke:none;fill-rule:nonzero;fill:rgb(0%,0%,0%);fill-opacity:1;" d="M 75.839844 111.433594 L 75.558594 111.433594 C 75.539062 111.621094 75.445312 112.109375 75.335938 112.183594 C 75.277344 112.238281 74.640625 112.238281 74.507812 112.238281 L 72.972656 112.238281 C 73.851562 111.472656 74.152344 111.226562 74.640625 110.832031 C 75.257812 110.347656 75.839844 109.820312 75.839844 109.035156 C 75.839844 108.019531 74.960938 107.402344 73.890625 107.402344 C 72.859375 107.402344 72.148438 108.132812 72.148438 108.902344 C 72.148438 109.316406 72.503906 109.371094 72.597656 109.371094 C 72.785156 109.371094 73.027344 109.222656 73.027344 108.921875 C 73.027344 108.769531 72.972656 108.472656 72.539062 108.472656 C 72.804688 107.890625 73.367188 107.703125 73.757812 107.703125 C 74.601562 107.703125 75.035156 108.359375 75.035156 109.035156 C 75.035156 109.765625 74.507812 110.328125 74.246094 110.628906 L 72.242188 112.632812 C 72.148438 112.707031 72.148438 112.726562 72.148438 112.953125 L 75.597656 112.953125 Z M 75.839844 111.433594 "/>
<path style=" stroke:none;fill-rule:nonzero;fill:rgb(0%,0%,0%);fill-opacity:1;" d="M 45.617188 74.085938 C 45.617188 73.859375 45.617188 73.859375 45.371094 73.859375 C 44.828125 74.386719 44.078125 74.386719 43.742188 74.386719 L 43.742188 74.683594 C 43.929688 74.683594 44.492188 74.683594 44.941406 74.460938 L 44.941406 78.714844 C 44.941406 78.996094 44.941406 79.109375 44.117188 79.109375 L 43.796875 79.109375 L 43.796875 79.410156 C 43.945312 79.410156 44.976562 79.371094 45.277344 79.371094 C 45.539062 79.371094 46.589844 79.410156 46.777344 79.410156 L 46.777344 79.109375 L 46.460938 79.109375 C 45.617188 79.109375 45.617188 78.996094 45.617188 78.714844 Z M 45.617188 74.085938 "/>
<path style="fill:none;stroke-width:0.4776;stroke-linecap:butt;stroke-linejoin:miter;stroke:rgb(0%,0%,0%);stroke-opacity:1;stroke-miterlimit:10;" d="M 42.824219 -81.128906 L 47.585938 -81.128906 " transform="matrix(1,0,0,-1,0,0)"/>
<path style=" stroke:none;fill-rule:nonzero;fill:rgb(0%,0%,0%);fill-opacity:1;" d="M 45.617188 82.914062 C 45.617188 82.691406 45.617188 82.691406 45.371094 82.691406 C 44.828125 83.214844 44.078125 83.214844 43.742188 83.214844 L 43.742188 83.515625 C 43.929688 83.515625 44.492188 83.515625 44.941406 83.289062 L 44.941406 87.546875 C 44.941406 87.828125 44.941406 87.941406 44.117188 87.941406 L 43.796875 87.941406 L 43.796875 88.238281 C 43.945312 88.238281 44.976562 88.203125 45.277344 88.203125 C 45.539062 88.203125 46.589844 88.238281 46.777344 88.238281 L 46.777344 87.941406 L 46.460938 87.941406 C 45.617188 87.941406 45.617188 87.828125 45.617188 87.546875 Z M 45.617188 82.914062 "/>
<path style=" stroke:none;fill-rule:nonzero;fill:rgb(0%,0%,0%);fill-opacity:1;" d="M 103.214844 111.597656 C 103.214844 111.371094 103.214844 111.371094 102.972656 111.371094 C 102.429688 111.898438 101.679688 111.898438 101.339844 111.898438 L 101.339844 112.199219 C 101.527344 112.199219 102.089844 112.199219 102.539062 111.972656 L 102.539062 116.230469 C 102.539062 116.511719 102.539062 116.621094 101.714844 116.621094 L 101.398438 116.621094 L 101.398438 116.921875 C 101.546875 116.921875 102.578125 116.886719 102.878906 116.886719 C 103.140625 116.886719 104.191406 116.921875 104.378906 116.921875 L 104.378906 116.621094 L 104.058594 116.621094 C 103.214844 116.621094 103.214844 116.511719 103.214844 116.230469 Z M 103.214844 111.597656 "/>
<path style="fill:none;stroke-width:0.4776;stroke-linecap:butt;stroke-linejoin:miter;stroke:rgb(0%,0%,0%);stroke-opacity:1;stroke-miterlimit:10;" d="M 100.421875 -118.640625 L 105.1875 -118.640625 " transform="matrix(1,0,0,-1,0,0)"/>
<path style=" stroke:none;fill-rule:nonzero;fill:rgb(0%,0%,0%);fill-opacity:1;" d="M 102.710938 122.957031 C 103.367188 122.957031 103.835938 123.410156 103.835938 124.308594 C 103.835938 125.339844 103.214844 125.660156 102.746094 125.660156 C 102.410156 125.660156 101.660156 125.566406 101.320312 125.058594 C 101.714844 125.058594 101.808594 124.777344 101.808594 124.589844 C 101.808594 124.328125 101.601562 124.140625 101.339844 124.140625 C 101.117188 124.140625 100.871094 124.289062 100.871094 124.628906 C 100.871094 125.414062 101.734375 125.921875 102.746094 125.921875 C 103.910156 125.921875 104.714844 125.132812 104.714844 124.308594 C 104.714844 123.652344 104.191406 122.996094 103.273438 122.808594 C 104.132812 122.488281 104.453125 121.871094 104.453125 121.347656 C 104.453125 120.691406 103.703125 120.203125 102.765625 120.203125 C 101.847656 120.203125 101.132812 120.652344 101.132812 121.328125 C 101.132812 121.609375 101.320312 121.757812 101.566406 121.757812 C 101.828125 121.757812 101.996094 121.570312 101.996094 121.347656 C 101.996094 121.101562 101.828125 120.914062 101.566406 120.894531 C 101.867188 120.539062 102.429688 120.445312 102.746094 120.445312 C 103.121094 120.445312 103.648438 120.632812 103.648438 121.347656 C 103.648438 121.703125 103.535156 122.097656 103.308594 122.339844 C 103.046875 122.660156 102.804688 122.675781 102.390625 122.714844 C 102.183594 122.734375 102.164062 122.734375 102.128906 122.734375 C 102.109375 122.734375 102.035156 122.753906 102.035156 122.847656 C 102.035156 122.957031 102.109375 122.957031 102.257812 122.957031 Z M 102.710938 122.957031 "/>
<path style=" stroke:none;fill-rule:nonzero;fill:rgb(0%,0%,0%);fill-opacity:1;" d="M 132.015625 117.996094 C 132.015625 117.773438 132.015625 117.773438 131.773438 117.773438 C 131.226562 118.296875 130.476562 118.296875 130.140625 118.296875 L 130.140625 118.597656 C 130.328125 118.597656 130.890625 118.597656 131.339844 118.371094 L 131.339844 122.628906 C 131.339844 122.910156 131.339844 123.023438 130.515625 123.023438 L 130.195312 123.023438 L 130.195312 123.324219 C 130.347656 123.324219 131.378906 123.285156 131.679688 123.285156 C 131.941406 123.285156 132.992188 123.324219 133.179688 123.324219 L 133.179688 123.023438 L 132.859375 123.023438 C 132.015625 123.023438 132.015625 122.910156 132.015625 122.628906 Z M 132.015625 117.996094 "/>
<path style="fill:none;stroke-width:0.4776;stroke-linecap:butt;stroke-linejoin:miter;stroke:rgb(0%,0%,0%);stroke-opacity:1;stroke-miterlimit:10;" d="M 129.222656 -125.039062 L 133.984375 -125.039062 " transform="matrix(1,0,0,-1,0,0)"/>
<path style=" stroke:none;fill-rule:nonzero;fill:rgb(0%,0%,0%);fill-opacity:1;" d="M 133.648438 130.785156 L 133.648438 130.484375 L 132.710938 130.484375 L 132.710938 126.753906 C 132.710938 126.582031 132.710938 126.507812 132.539062 126.507812 C 132.429688 126.507812 132.390625 126.507812 132.316406 126.640625 L 129.539062 130.484375 L 129.539062 130.785156 L 132.015625 130.785156 L 132.015625 131.457031 C 132.015625 131.757812 132.015625 131.851562 131.320312 131.851562 L 131.097656 131.851562 L 131.097656 132.152344 C 131.527344 132.132812 132.054688 132.113281 132.351562 132.113281 C 132.671875 132.113281 133.195312 132.132812 133.628906 132.152344 L 133.628906 131.851562 L 133.402344 131.851562 C 132.710938 131.851562 132.710938 131.757812 132.710938 131.457031 L 132.710938 130.785156 Z M 132.070312 127.425781 L 132.070312 130.484375 L 129.859375 130.484375 Z M 132.070312 127.425781 "/>
<g clip-path="url(#clip1)" clip-rule="nonzero">
<path style=" stroke:none;fill-rule:nonzero;fill:rgb(0%,0%,0%);fill-opacity:1;" d="M 31.144531 143.976562 C 31.144531 143.675781 31.144531 143.65625 30.863281 143.65625 C 30.113281 144.425781 29.0625 144.425781 28.6875 144.425781 L 28.6875 144.800781 C 28.933594 144.800781 29.625 144.800781 30.246094 144.484375 L 30.246094 150.6875 C 30.246094 151.121094 30.207031 151.25 29.140625 151.25 L 28.765625 151.25 L 28.765625 151.625 C 29.175781 151.589844 30.207031 151.589844 30.695312 151.589844 C 31.164062 151.589844 32.214844 151.589844 32.625 151.625 L 32.625 151.25 L 32.25 151.25 C 31.164062 151.25 31.144531 151.121094 31.144531 150.6875 Z M 31.144531 143.976562 "/>
</g>
<g clip-path="url(#clip2)" clip-rule="nonzero">
<path style=" stroke:none;fill-rule:nonzero;fill:rgb(0%,0%,0%);fill-opacity:1;" d="M 58.277344 150.707031 L 59.550781 149.46875 C 61.40625 147.820312 62.121094 147.183594 62.121094 145.984375 C 62.121094 144.613281 61.050781 143.65625 59.589844 143.65625 C 58.238281 143.65625 57.359375 144.765625 57.359375 145.832031 C 57.359375 146.488281 57.957031 146.488281 57.996094 146.488281 C 58.203125 146.488281 58.613281 146.359375 58.613281 145.851562 C 58.613281 145.550781 58.390625 145.234375 57.976562 145.234375 C 57.882812 145.234375 57.863281 145.234375 57.828125 145.25 C 58.089844 144.464844 58.746094 144.03125 59.4375 144.03125 C 60.527344 144.03125 61.03125 145.007812 61.03125 145.984375 C 61.03125 146.9375 60.453125 147.875 59.777344 148.625 L 57.488281 151.175781 C 57.359375 151.308594 57.359375 151.34375 57.359375 151.625 L 61.800781 151.625 L 62.121094 149.546875 L 61.839844 149.546875 C 61.765625 149.902344 61.6875 150.425781 61.558594 150.613281 C 61.484375 150.707031 60.695312 150.707031 60.433594 150.707031 Z M 58.277344 150.707031 "/>
</g>
<g clip-path="url(#clip3)" clip-rule="nonzero">
<path style=" stroke:none;fill-rule:nonzero;fill:rgb(0%,0%,0%);fill-opacity:1;" d="M 89.027344 147.144531 C 90 146.828125 90.695312 146 90.695312 145.046875 C 90.695312 144.070312 89.644531 143.394531 88.5 143.394531 C 87.300781 143.394531 86.382812 144.109375 86.382812 145.027344 C 86.382812 145.421875 86.644531 145.644531 87 145.644531 C 87.359375 145.644531 87.601562 145.382812 87.601562 145.027344 C 87.601562 144.445312 87.039062 144.445312 86.871094 144.445312 C 87.226562 143.84375 88.015625 143.695312 88.445312 143.695312 C 88.953125 143.695312 89.609375 143.957031 89.609375 145.027344 C 89.609375 145.175781 89.570312 145.871094 89.269531 146.394531 C 88.914062 146.976562 88.5 147.015625 88.203125 147.015625 C 88.109375 147.03125 87.828125 147.050781 87.734375 147.050781 C 87.640625 147.070312 87.5625 147.089844 87.5625 147.203125 C 87.5625 147.332031 87.640625 147.332031 87.84375 147.332031 L 88.371094 147.332031 C 89.34375 147.332031 89.796875 148.140625 89.796875 149.320312 C 89.796875 150.953125 88.96875 151.289062 88.445312 151.289062 C 87.921875 151.289062 87.019531 151.082031 86.609375 150.390625 C 87.019531 150.445312 87.394531 150.183594 87.394531 149.734375 C 87.394531 149.300781 87.078125 149.058594 86.738281 149.058594 C 86.4375 149.058594 86.0625 149.226562 86.0625 149.75 C 86.0625 150.839844 87.171875 151.625 88.484375 151.625 C 89.945312 151.625 91.03125 150.539062 91.03125 149.320312 C 91.03125 148.34375 90.265625 147.40625 89.027344 147.144531 Z M 89.027344 147.144531 "/>
</g>
<g clip-path="url(#clip4)" clip-rule="nonzero">
<path style=" stroke:none;fill-rule:nonzero;fill:rgb(0%,0%,0%);fill-opacity:1;" d="M 117.039062 149.65625 L 117.039062 150.6875 C 117.039062 151.121094 117 151.25 116.121094 151.25 L 115.875 151.25 L 115.875 151.625 C 116.363281 151.589844 116.980469 151.589844 117.488281 151.589844 C 117.996094 151.589844 118.613281 151.589844 119.121094 151.625 L 119.121094 151.25 L 118.855469 151.25 C 117.976562 151.25 117.957031 151.121094 117.957031 150.6875 L 117.957031 149.65625 L 119.136719 149.65625 L 119.136719 149.28125 L 117.957031 149.28125 L 117.957031 143.84375 C 117.957031 143.601562 117.957031 143.527344 117.75 143.527344 C 117.65625 143.527344 117.621094 143.527344 117.527344 143.675781 L 113.851562 149.28125 L 113.851562 149.65625 Z M 117.09375 149.28125 L 114.1875 149.28125 L 117.09375 144.820312 Z M 117.09375 149.28125 "/>
</g>
<g clip-path="url(#clip5)" clip-rule="nonzero">
<path style=" stroke:none;fill-rule:nonzero;fill:rgb(0%,0%,0%);fill-opacity:1;" d="M 148.011719 148.964844 C 148.011719 147.539062 147.039062 146.339844 145.746094 146.339844 C 145.183594 146.339844 144.65625 146.527344 144.226562 146.957031 L 144.226562 144.613281 C 144.46875 144.6875 144.863281 144.765625 145.238281 144.765625 C 146.71875 144.765625 147.5625 143.675781 147.5625 143.527344 C 147.5625 143.453125 147.527344 143.394531 147.433594 143.394531 C 147.433594 143.394531 147.394531 143.394531 147.339844 143.433594 C 147.09375 143.546875 146.511719 143.789062 145.707031 143.789062 C 145.238281 143.789062 144.675781 143.695312 144.113281 143.453125 C 144.019531 143.414062 144 143.414062 143.980469 143.414062 C 143.851562 143.414062 143.851562 143.507812 143.851562 143.695312 L 143.851562 147.238281 C 143.851562 147.445312 143.851562 147.539062 144.019531 147.539062 C 144.113281 147.539062 144.132812 147.519531 144.1875 147.445312 C 144.320312 147.257812 144.75 146.601562 145.726562 146.601562 C 146.34375 146.601562 146.644531 147.144531 146.738281 147.371094 C 146.925781 147.820312 146.964844 148.269531 146.964844 148.871094 C 146.964844 149.300781 146.964844 150.015625 146.664062 150.519531 C 146.382812 150.988281 145.933594 151.289062 145.386719 151.289062 C 144.527344 151.289062 143.832031 150.652344 143.625 149.957031 C 143.664062 149.957031 143.699219 149.976562 143.832031 149.976562 C 144.226562 149.976562 144.433594 149.675781 144.433594 149.394531 C 144.433594 149.09375 144.226562 148.796875 143.832031 148.796875 C 143.664062 148.796875 143.25 148.890625 143.25 149.433594 C 143.25 150.464844 144.074219 151.625 145.40625 151.625 C 146.792969 151.625 148.011719 150.484375 148.011719 148.964844 Z M 148.011719 148.964844 "/>
</g>
<path style=" stroke:none;fill-rule:nonzero;fill:rgb(0%,0%,0%);fill-opacity:1;" d="M 169.753906 104.035156 C 169.808594 103.863281 169.808594 103.847656 169.808594 103.753906 C 169.808594 103.546875 169.640625 103.433594 169.453125 103.433594 C 169.339844 103.433594 169.152344 103.507812 169.039062 103.675781 C 169.019531 103.753906 168.910156 104.109375 168.871094 104.332031 C 168.777344 104.632812 168.703125 104.972656 168.628906 105.289062 L 168.082031 107.445312 C 168.046875 107.613281 167.519531 108.457031 166.734375 108.457031 C 166.132812 108.457031 166.003906 107.933594 166.003906 107.484375 C 166.003906 106.941406 166.207031 106.191406 166.601562 105.140625 C 166.789062 104.652344 166.847656 104.519531 166.847656 104.277344 C 166.847656 103.753906 166.472656 103.300781 165.871094 103.300781 C 164.726562 103.300781 164.296875 105.046875 164.296875 105.140625 C 164.296875 105.269531 164.410156 105.269531 164.425781 105.269531 C 164.558594 105.269531 164.558594 105.234375 164.613281 105.046875 C 164.953125 103.921875 165.421875 103.566406 165.832031 103.566406 C 165.925781 103.566406 166.132812 103.566406 166.132812 103.941406 C 166.132812 104.238281 166.003906 104.558594 165.925781 104.785156 C 165.441406 106.058594 165.234375 106.734375 165.234375 107.296875 C 165.234375 108.363281 165.984375 108.722656 166.695312 108.722656 C 167.164062 108.722656 167.558594 108.515625 167.894531 108.175781 C 167.746094 108.796875 167.597656 109.394531 167.128906 110.035156 C 166.808594 110.425781 166.359375 110.785156 165.816406 110.785156 C 165.644531 110.785156 165.101562 110.746094 164.894531 110.277344 C 165.082031 110.277344 165.253906 110.277344 165.402344 110.128906 C 165.535156 110.035156 165.644531 109.863281 165.644531 109.640625 C 165.644531 109.265625 165.328125 109.226562 165.214844 109.226562 C 164.933594 109.226562 164.539062 109.414062 164.539062 109.996094 C 164.539062 110.597656 165.066406 111.046875 165.816406 111.046875 C 167.035156 111.046875 168.269531 109.957031 168.609375 108.609375 Z M 169.753906 104.035156 "/>
<path style=" stroke:none;fill-rule:nonzero;fill:rgb(0%,0%,0%);fill-opacity:1;" d="M 181.761719 104.671875 C 181.949219 104.671875 182.175781 104.671875 182.175781 104.445312 C 182.175781 104.203125 181.949219 104.203125 181.78125 104.203125 L 174.621094 104.203125 C 174.449219 104.203125 174.226562 104.203125 174.226562 104.445312 C 174.226562 104.671875 174.449219 104.671875 174.621094 104.671875 Z M 181.78125 106.996094 C 181.949219 106.996094 182.175781 106.996094 182.175781 106.753906 C 182.175781 106.527344 181.949219 106.527344 181.761719 106.527344 L 174.621094 106.527344 C 174.449219 106.527344 174.226562 106.527344 174.226562 106.753906 C 174.226562 106.996094 174.449219 106.996094 174.621094 106.996094 Z M 181.78125 106.996094 "/>
<path style=" stroke:none;fill-rule:nonzero;fill:rgb(0%,0%,0%);fill-opacity:1;" d="M 190.726562 98.558594 C 190.726562 98.332031 190.726562 98.332031 190.484375 98.332031 C 189.9375 98.855469 189.1875 98.855469 188.851562 98.855469 L 188.851562 99.15625 C 189.039062 99.15625 189.601562 99.15625 190.050781 98.933594 L 190.050781 103.1875 C 190.050781 103.46875 190.050781 103.582031 189.226562 103.582031 L 188.90625 103.582031 L 188.90625 103.882812 C 189.058594 103.882812 190.089844 103.84375 190.390625 103.84375 C 190.652344 103.84375 191.703125 103.882812 191.890625 103.882812 L 191.890625 103.582031 L 191.570312 103.582031 C 190.726562 103.582031 190.726562 103.46875 190.726562 103.1875 Z M 190.726562 98.558594 "/>
<path style="fill:none;stroke-width:0.4776;stroke-linecap:butt;stroke-linejoin:miter;stroke:rgb(0%,0%,0%);stroke-opacity:1;stroke-miterlimit:10;" d="M 187.605469 -105.601562 L 193.027344 -105.601562 " transform="matrix(1,0,0,-1,0,0)"/>
<path style=" stroke:none;fill-rule:nonzero;fill:rgb(0%,0%,0%);fill-opacity:1;" d="M 189.6875 111.832031 C 189.613281 112.113281 189.332031 112.5625 188.898438 112.5625 C 188.878906 112.5625 188.617188 112.5625 188.449219 112.449219 C 188.785156 112.335938 188.824219 112.035156 188.824219 111.980469 C 188.824219 111.792969 188.675781 111.679688 188.488281 111.679688 C 188.242188 111.679688 188 111.867188 188 112.1875 C 188 112.597656 188.46875 112.785156 188.878906 112.785156 C 189.273438 112.785156 189.613281 112.5625 189.816406 112.207031 C 190.023438 112.636719 190.472656 112.785156 190.8125 112.785156 C 191.785156 112.785156 192.292969 111.753906 192.292969 111.511719 C 192.292969 111.398438 192.179688 111.398438 192.160156 111.398438 C 192.03125 111.398438 192.03125 111.457031 191.992188 111.550781 C 191.824219 112.128906 191.316406 112.5625 190.847656 112.5625 C 190.511719 112.5625 190.34375 112.335938 190.34375 112.019531 C 190.34375 111.792969 190.550781 111.042969 190.773438 110.105469 C 190.941406 109.46875 191.316406 109.261719 191.597656 109.261719 C 191.617188 109.261719 191.863281 109.261719 192.050781 109.375 C 191.785156 109.449219 191.675781 109.691406 191.675781 109.84375 C 191.675781 110.011719 191.824219 110.144531 192.011719 110.144531 C 192.199219 110.144531 192.480469 109.992188 192.480469 109.636719 C 192.480469 109.167969 191.9375 109.019531 191.617188 109.019531 C 191.1875 109.019531 190.847656 109.300781 190.679688 109.617188 C 190.53125 109.28125 190.136719 109.019531 189.667969 109.019531 C 188.730469 109.019531 188.207031 110.050781 188.207031 110.3125 C 188.207031 110.40625 188.316406 110.40625 188.335938 110.40625 C 188.449219 110.40625 188.449219 110.386719 188.503906 110.273438 C 188.710938 109.617188 189.238281 109.261719 189.648438 109.261719 C 189.929688 109.261719 190.15625 109.410156 190.15625 109.804688 C 190.15625 109.972656 190.042969 110.386719 189.96875 110.6875 Z M 189.6875 111.832031 "/>
<path style="fill:none;stroke-width:0.8;stroke-linecap:butt;stroke-linejoin:miter;stroke:rgb(100%,0%,0%);stroke-opacity:1;stroke-miterlimit:4;" d="M 232.40625 139.199219 L 434.003906 139.199219 "/>
<path style="fill-rule:evenodd;fill:rgb(100%,0%,0%);fill-opacity:1;stroke-width:0.4;stroke-linecap:butt;stroke-linejoin:miter;stroke:rgb(100%,0%,0%);stroke-opacity:1;stroke-miterlimit:4;" d="M 233.972656 139.199219 C 233.972656 140.082031 233.253906 140.800781 232.371094 140.800781 C 231.488281 140.800781 230.773438 140.082031 230.773438 139.199219 C 230.773438 138.316406 231.488281 137.601562 232.371094 137.601562 C 233.253906 137.601562 233.972656 138.316406 233.972656 139.199219 Z M 233.972656 139.199219 "/>
<path style=" stroke:none;fill-rule:evenodd;fill:rgb(100%,0%,0%);fill-opacity:1;" d="M 430.804688 139.199219 L 429.203125 140.800781 L 434.804688 139.199219 L 429.203125 137.601562 Z M 430.804688 139.199219 "/>
<g clip-path="url(#clip6)" clip-rule="nonzero">
<path style="fill:none;stroke-width:0.4;stroke-linecap:butt;stroke-linejoin:miter;stroke:rgb(100%,0%,0%);stroke-opacity:1;stroke-miterlimit:4;" d="M -430.804688 -139.199219 L -429.203125 -140.800781 L -434.804688 -139.199219 L -429.203125 -137.601562 Z M -430.804688 -139.199219 " transform="matrix(-1,0,0,-1,0,0)"/>
</g>
<path style="fill:none;stroke-width:0.8;stroke-linecap:butt;stroke-linejoin:miter;stroke:rgb(100%,0%,0%);stroke-opacity:1;stroke-miterlimit:4;" d="M 232.40625 139.199219 L 232.40625 9.601562 "/>
<path style="fill-rule:evenodd;fill:rgb(100%,0%,0%);fill-opacity:1;stroke-width:0.4;stroke-linecap:butt;stroke-linejoin:miter;stroke:rgb(100%,0%,0%);stroke-opacity:1;stroke-miterlimit:4;" d="M -137.632812 232.40625 C -137.632812 233.289062 -138.347656 234.003906 -139.230469 234.003906 C -140.113281 234.003906 -140.832031 233.289062 -140.832031 232.40625 C -140.832031 231.519531 -140.113281 230.804688 -139.230469 230.804688 C -138.347656 230.804688 -137.632812 231.519531 -137.632812 232.40625 Z M -137.632812 232.40625 " transform="matrix(0,-1,1,0,0,0)"/>
<path style="fill-rule:evenodd;fill:rgb(100%,0%,0%);fill-opacity:1;stroke-width:0.4;stroke-linecap:butt;stroke-linejoin:miter;stroke:rgb(100%,0%,0%);stroke-opacity:1;stroke-miterlimit:4;" d="M 12.800781 -232.40625 L 14.398438 -234.003906 L 8.800781 -232.40625 L 14.398438 -230.804688 Z M 12.800781 -232.40625 " transform="matrix(0,1,-1,0,0,0)"/>
<path style="fill-rule:nonzero;fill:rgb(79.998779%,79.998779%,79.998779%);fill-opacity:1;stroke-width:1.6;stroke-linecap:square;stroke-linejoin:miter;stroke:rgb(0%,0%,0%);stroke-opacity:1;stroke-miterlimit:4;" d="M 347.605469 115.199219 L 376.40625 115.199219 L 376.40625 139.199219 L 347.605469 139.199219 Z M 347.605469 115.199219 "/>
<path style="fill-rule:nonzero;fill:rgb(79.998779%,79.998779%,79.998779%);fill-opacity:1;stroke-width:1.6;stroke-linecap:square;stroke-linejoin:miter;stroke:rgb(0%,0%,0%);stroke-opacity:1;stroke-miterlimit:4;" d="M 261.203125 81.601562 L 290.003906 81.601562 L 290.003906 139.199219 L 261.203125 139.199219 Z M 261.203125 81.601562 "/>
<path style="fill-rule:nonzero;fill:rgb(79.998779%,79.998779%,79.998779%);fill-opacity:1;stroke-width:1.6;stroke-linecap:square;stroke-linejoin:miter;stroke:rgb(0%,0%,0%);stroke-opacity:1;stroke-miterlimit:4;" d="M 290.003906 100.800781 L 318.804688 100.800781 L 318.804688 139.199219 L 290.003906 139.199219 Z M 290.003906 100.800781 "/>
<path style="fill-rule:nonzero;fill:rgb(79.998779%,79.998779%,79.998779%);fill-opacity:1;stroke-width:1.6;stroke-linecap:square;stroke-linejoin:miter;stroke:rgb(0%,0%,0%);stroke-opacity:1;stroke-miterlimit:4;" d="M 318.804688 110.398438 L 347.605469 110.398438 L 347.605469 139.199219 L 318.804688 139.199219 Z M 318.804688 110.398438 "/>
<g clip-path="url(#clip7)" clip-rule="nonzero">
<path style="fill:none;stroke-width:1.6;stroke-linecap:butt;stroke-linejoin:miter;stroke:rgb(0%,0%,100%);stroke-opacity:1;stroke-miterlimit:4;" d="M 256.40625 0 C 256.40625 13.46875 270.804688 67.199219 290.003906 81.601562 C 309.203125 96 309.078125 96.042969 318.804688 100.800781 C 328.53125 105.558594 337.972656 108.007812 347.605469 110.398438 C 357.238281 112.792969 362.015625 113.40625 376.40625 115.199219 C 390.792969 116.996094 434.003906 120 434.003906 120 "/>
</g>
<g clip-path="url(#clip8)" clip-rule="nonzero">
<path style=" stroke:none;fill-rule:nonzero;fill:rgb(0%,0%,0%);fill-opacity:1;" d="M 261.546875 143.976562 C 261.546875 143.675781 261.546875 143.65625 261.265625 143.65625 C 260.515625 144.425781 259.464844 144.425781 259.089844 144.425781 L 259.089844 144.800781 C 259.332031 144.800781 260.027344 144.800781 260.644531 144.484375 L 260.644531 150.6875 C 260.644531 151.121094 260.609375 151.25 259.539062 151.25 L 259.164062 151.25 L 259.164062 151.625 C 259.578125 151.589844 260.609375 151.589844 261.09375 151.589844 C 261.5625 151.589844 262.613281 151.589844 263.027344 151.625 L 263.027344 151.25 L 262.652344 151.25 C 261.5625 151.25 261.546875 151.121094 261.546875 150.6875 Z M 261.546875 143.976562 "/>
</g>
<g clip-path="url(#clip9)" clip-rule="nonzero">
<path style=" stroke:none;fill-rule:nonzero;fill:rgb(0%,0%,0%);fill-opacity:1;" d="M 288.675781 150.707031 L 289.953125 149.46875 C 291.808594 147.820312 292.519531 147.183594 292.519531 145.984375 C 292.519531 144.613281 291.453125 143.65625 289.988281 143.65625 C 288.640625 143.65625 287.757812 144.765625 287.757812 145.832031 C 287.757812 146.488281 288.359375 146.488281 288.394531 146.488281 C 288.601562 146.488281 289.015625 146.359375 289.015625 145.851562 C 289.015625 145.550781 288.789062 145.234375 288.375 145.234375 C 288.28125 145.234375 288.265625 145.234375 288.226562 145.25 C 288.488281 144.464844 289.144531 144.03125 289.839844 144.03125 C 290.925781 144.03125 291.433594 145.007812 291.433594 145.984375 C 291.433594 146.9375 290.851562 147.875 290.175781 148.625 L 287.890625 151.175781 C 287.757812 151.308594 287.757812 151.34375 287.757812 151.625 L 292.203125 151.625 L 292.519531 149.546875 L 292.238281 149.546875 C 292.164062 149.902344 292.089844 150.425781 291.957031 150.613281 C 291.882812 150.707031 291.09375 150.707031 290.832031 150.707031 Z M 288.675781 150.707031 "/>
</g>
<g clip-path="url(#clip10)" clip-rule="nonzero">
<path style=" stroke:none;fill-rule:nonzero;fill:rgb(0%,0%,0%);fill-opacity:1;" d="M 319.425781 147.144531 C 320.402344 146.828125 321.09375 146 321.09375 145.046875 C 321.09375 144.070312 320.046875 143.394531 318.902344 143.394531 C 317.703125 143.394531 316.78125 144.109375 316.78125 145.027344 C 316.78125 145.421875 317.046875 145.644531 317.402344 145.644531 C 317.757812 145.644531 318 145.382812 318 145.027344 C 318 144.445312 317.4375 144.445312 317.269531 144.445312 C 317.625 143.84375 318.414062 143.695312 318.84375 143.695312 C 319.351562 143.695312 320.007812 143.957031 320.007812 145.027344 C 320.007812 145.175781 319.96875 145.871094 319.671875 146.394531 C 319.3125 146.976562 318.902344 147.015625 318.601562 147.015625 C 318.507812 147.03125 318.226562 147.050781 318.132812 147.050781 C 318.039062 147.070312 317.964844 147.089844 317.964844 147.203125 C 317.964844 147.332031 318.039062 147.332031 318.246094 147.332031 L 318.769531 147.332031 C 319.746094 147.332031 320.195312 148.140625 320.195312 149.320312 C 320.195312 150.953125 319.371094 151.289062 318.84375 151.289062 C 318.320312 151.289062 317.421875 151.082031 317.007812 150.390625 C 317.421875 150.445312 317.796875 150.183594 317.796875 149.734375 C 317.796875 149.300781 317.476562 149.058594 317.140625 149.058594 C 316.839844 149.058594 316.464844 149.226562 316.464844 149.75 C 316.464844 150.839844 317.570312 151.625 318.882812 151.625 C 320.34375 151.625 321.433594 150.539062 321.433594 149.320312 C 321.433594 148.34375 320.664062 147.40625 319.425781 147.144531 Z M 319.425781 147.144531 "/>
</g>
<g clip-path="url(#clip11)" clip-rule="nonzero">
<path style=" stroke:none;fill-rule:nonzero;fill:rgb(0%,0%,0%);fill-opacity:1;" d="M 347.4375 149.65625 L 347.4375 150.6875 C 347.4375 151.121094 347.402344 151.25 346.519531 151.25 L 346.277344 151.25 L 346.277344 151.625 C 346.761719 151.589844 347.382812 151.589844 347.886719 151.589844 C 348.394531 151.589844 349.011719 151.589844 349.519531 151.625 L 349.519531 151.25 L 349.257812 151.25 C 348.375 151.25 348.355469 151.121094 348.355469 150.6875 L 348.355469 149.65625 L 349.539062 149.65625 L 349.539062 149.28125 L 348.355469 149.28125 L 348.355469 143.84375 C 348.355469 143.601562 348.355469 143.527344 348.152344 143.527344 C 348.058594 143.527344 348.019531 143.527344 347.925781 143.675781 L 344.25 149.28125 L 344.25 149.65625 Z M 347.496094 149.28125 L 344.589844 149.28125 L 347.496094 144.820312 Z M 347.496094 149.28125 "/>
</g>
<g clip-path="url(#clip12)" clip-rule="nonzero">
<path style=" stroke:none;fill-rule:nonzero;fill:rgb(0%,0%,0%);fill-opacity:1;" d="M 378.414062 148.964844 C 378.414062 147.539062 377.4375 146.339844 376.144531 146.339844 C 375.582031 146.339844 375.058594 146.527344 374.625 146.957031 L 374.625 144.613281 C 374.871094 144.6875 375.261719 144.765625 375.636719 144.765625 C 377.121094 144.765625 377.964844 143.675781 377.964844 143.527344 C 377.964844 143.453125 377.925781 143.394531 377.832031 143.394531 C 377.832031 143.394531 377.792969 143.394531 377.738281 143.433594 C 377.496094 143.546875 376.914062 143.789062 376.105469 143.789062 C 375.636719 143.789062 375.074219 143.695312 374.511719 143.453125 C 374.417969 143.414062 374.402344 143.414062 374.382812 143.414062 C 374.25 143.414062 374.25 143.507812 374.25 143.695312 L 374.25 147.238281 C 374.25 147.445312 374.25 147.539062 374.417969 147.539062 C 374.511719 147.539062 374.53125 147.519531 374.589844 147.445312 C 374.71875 147.257812 375.152344 146.601562 376.125 146.601562 C 376.746094 146.601562 377.042969 147.144531 377.136719 147.371094 C 377.324219 147.820312 377.363281 148.269531 377.363281 148.871094 C 377.363281 149.300781 377.363281 150.015625 377.0625 150.519531 C 376.78125 150.988281 376.332031 151.289062 375.789062 151.289062 C 374.925781 151.289062 374.230469 150.652344 374.027344 149.957031 C 374.0625 149.957031 374.101562 149.976562 374.230469 149.976562 C 374.625 149.976562 374.832031 149.675781 374.832031 149.394531 C 374.832031 149.09375 374.625 148.796875 374.230469 148.796875 C 374.0625 148.796875 373.652344 148.890625 373.652344 149.433594 C 373.652344 150.464844 374.476562 151.625 375.808594 151.625 C 377.195312 151.625 378.414062 150.484375 378.414062 148.964844 Z M 378.414062 148.964844 "/>
</g>
<path style=" stroke:none;fill-rule:nonzero;fill:rgb(0%,0%,0%);fill-opacity:1;" d="M 400.152344 104.035156 C 400.207031 103.863281 400.207031 103.847656 400.207031 103.753906 C 400.207031 103.546875 400.039062 103.433594 399.851562 103.433594 C 399.738281 103.433594 399.550781 103.507812 399.441406 103.675781 C 399.421875 103.753906 399.308594 104.109375 399.269531 104.332031 C 399.175781 104.632812 399.101562 104.972656 399.027344 105.289062 L 398.484375 107.445312 C 398.445312 107.613281 397.921875 108.457031 397.132812 108.457031 C 396.535156 108.457031 396.402344 107.933594 396.402344 107.484375 C 396.402344 106.941406 396.609375 106.191406 397.003906 105.140625 C 397.191406 104.652344 397.246094 104.519531 397.246094 104.277344 C 397.246094 103.753906 396.871094 103.300781 396.269531 103.300781 C 395.128906 103.300781 394.695312 105.046875 394.695312 105.140625 C 394.695312 105.269531 394.808594 105.269531 394.828125 105.269531 C 394.957031 105.269531 394.957031 105.234375 395.015625 105.046875 C 395.351562 103.921875 395.820312 103.566406 396.234375 103.566406 C 396.328125 103.566406 396.535156 103.566406 396.535156 103.941406 C 396.535156 104.238281 396.402344 104.558594 396.328125 104.785156 C 395.839844 106.058594 395.632812 106.734375 395.632812 107.296875 C 395.632812 108.363281 396.382812 108.722656 397.097656 108.722656 C 397.566406 108.722656 397.957031 108.515625 398.296875 108.175781 C 398.144531 108.796875 397.996094 109.394531 397.527344 110.035156 C 397.207031 110.425781 396.757812 110.785156 396.214844 110.785156 C 396.046875 110.785156 395.503906 110.746094 395.296875 110.277344 C 395.484375 110.277344 395.652344 110.277344 395.800781 110.128906 C 395.933594 110.035156 396.046875 109.863281 396.046875 109.640625 C 396.046875 109.265625 395.726562 109.226562 395.613281 109.226562 C 395.332031 109.226562 394.941406 109.414062 394.941406 109.996094 C 394.941406 110.597656 395.464844 111.046875 396.214844 111.046875 C 397.433594 111.046875 398.671875 109.957031 399.007812 108.609375 Z M 400.152344 104.035156 "/>
<path style=" stroke:none;fill-rule:nonzero;fill:rgb(0%,0%,0%);fill-opacity:1;" d="M 412.164062 104.671875 C 412.351562 104.671875 412.574219 104.671875 412.574219 104.445312 C 412.574219 104.203125 412.351562 104.203125 412.183594 104.203125 L 405.019531 104.203125 C 404.851562 104.203125 404.625 104.203125 404.625 104.445312 C 404.625 104.671875 404.851562 104.671875 405.019531 104.671875 Z M 412.183594 106.996094 C 412.351562 106.996094 412.574219 106.996094 412.574219 106.753906 C 412.574219 106.527344 412.351562 106.527344 412.164062 106.527344 L 405.019531 106.527344 C 404.851562 106.527344 404.625 106.527344 404.625 106.753906 C 404.625 106.996094 404.851562 106.996094 405.019531 106.996094 Z M 412.183594 106.996094 "/>
<path style=" stroke:none;fill-rule:nonzero;fill:rgb(0%,0%,0%);fill-opacity:1;" d="M 423.460938 98.558594 C 423.460938 98.332031 423.460938 98.332031 423.214844 98.332031 C 422.671875 98.855469 421.921875 98.855469 421.585938 98.855469 L 421.585938 99.15625 C 421.773438 99.15625 422.335938 99.15625 422.785156 98.933594 L 422.785156 103.1875 C 422.785156 103.46875 422.785156 103.582031 421.960938 103.582031 L 421.640625 103.582031 L 421.640625 103.882812 C 421.789062 103.882812 422.820312 103.84375 423.121094 103.84375 C 423.382812 103.84375 424.433594 103.882812 424.621094 103.882812 L 424.621094 103.582031 L 424.304688 103.582031 C 423.460938 103.582031 423.460938 103.46875 423.460938 103.1875 Z M 423.460938 98.558594 "/>
<path style="fill:none;stroke-width:0.4776;stroke-linecap:butt;stroke-linejoin:miter;stroke:rgb(0%,0%,0%);stroke-opacity:1;stroke-miterlimit:10;" d="M 418.003906 -105.601562 L 428.09375 -105.601562 " transform="matrix(1,0,0,-1,0,0)"/>
<path style=" stroke:none;fill-rule:nonzero;fill:rgb(0%,0%,0%);fill-opacity:1;" d="M 420.085938 111.832031 C 420.011719 112.113281 419.730469 112.5625 419.300781 112.5625 C 419.28125 112.5625 419.019531 112.5625 418.847656 112.449219 C 419.1875 112.335938 419.222656 112.035156 419.222656 111.980469 C 419.222656 111.792969 419.074219 111.679688 418.886719 111.679688 C 418.644531 111.679688 418.398438 111.867188 418.398438 112.1875 C 418.398438 112.597656 418.867188 112.785156 419.28125 112.785156 C 419.675781 112.785156 420.011719 112.5625 420.21875 112.207031 C 420.425781 112.636719 420.875 112.785156 421.210938 112.785156 C 422.1875 112.785156 422.691406 111.753906 422.691406 111.511719 C 422.691406 111.398438 422.582031 111.398438 422.5625 111.398438 C 422.429688 111.398438 422.429688 111.457031 422.394531 111.550781 C 422.222656 112.128906 421.71875 112.5625 421.25 112.5625 C 420.910156 112.5625 420.742188 112.335938 420.742188 112.019531 C 420.742188 111.792969 420.949219 111.042969 421.175781 110.105469 C 421.34375 109.46875 421.71875 109.261719 422 109.261719 C 422.019531 109.261719 422.261719 109.261719 422.449219 109.375 C 422.1875 109.449219 422.074219 109.691406 422.074219 109.84375 C 422.074219 110.011719 422.222656 110.144531 422.410156 110.144531 C 422.597656 110.144531 422.878906 109.992188 422.878906 109.636719 C 422.878906 109.167969 422.335938 109.019531 422.019531 109.019531 C 421.585938 109.019531 421.25 109.300781 421.082031 109.617188 C 420.929688 109.28125 420.535156 109.019531 420.066406 109.019531 C 419.128906 109.019531 418.605469 110.050781 418.605469 110.3125 C 418.605469 110.40625 418.71875 110.40625 418.738281 110.40625 C 418.847656 110.40625 418.847656 110.386719 418.90625 110.273438 C 419.113281 109.617188 419.636719 109.261719 420.050781 109.261719 C 420.332031 109.261719 420.554688 109.410156 420.554688 109.804688 C 420.554688 109.972656 420.441406 110.386719 420.367188 110.6875 Z M 420.085938 111.832031 "/>
<path style=" stroke:none;fill-rule:nonzero;fill:rgb(0%,0%,0%);fill-opacity:1;" d="M 426.953125 109.160156 L 426.6875 109.160156 C 426.6875 109.269531 426.613281 109.644531 426.519531 109.703125 C 426.484375 109.738281 425.976562 109.738281 425.882812 109.738281 L 424.71875 109.738281 C 425.113281 109.457031 425.546875 109.121094 425.902344 108.878906 C 426.445312 108.503906 426.953125 108.164062 426.953125 107.527344 C 426.953125 106.757812 426.21875 106.347656 425.375 106.347656 C 424.570312 106.347656 423.96875 106.796875 423.96875 107.394531 C 423.96875 107.695312 424.234375 107.753906 424.328125 107.753906 C 424.476562 107.753906 424.664062 107.640625 424.664062 107.394531 C 424.664062 107.191406 424.515625 107.058594 424.328125 107.058594 C 424.496094 106.777344 424.851562 106.609375 425.246094 106.609375 C 425.828125 106.609375 426.3125 106.945312 426.3125 107.527344 C 426.3125 108.035156 425.957031 108.425781 425.507812 108.800781 L 424.046875 110.039062 C 423.988281 110.097656 423.96875 110.097656 423.96875 110.132812 L 423.96875 110.320312 L 426.746094 110.320312 Z M 426.953125 109.160156 "/>
<path style=" stroke:none;fill-rule:nonzero;fill:rgb(0%,0%,0%);fill-opacity:1;" d="M 276.015625 98.796875 C 276.015625 98.574219 276.015625 98.574219 275.769531 98.574219 C 275.226562 99.097656 274.476562 99.097656 274.140625 99.097656 L 274.140625 99.398438 C 274.328125 99.398438 274.890625 99.398438 275.339844 99.171875 L 275.339844 103.429688 C 275.339844 103.710938 275.339844 103.824219 274.515625 103.824219 L 274.195312 103.824219 L 274.195312 104.121094 C 274.34375 104.121094 275.375 104.085938 275.675781 104.085938 C 275.9375 104.085938 276.988281 104.121094 277.175781 104.121094 L 277.175781 103.824219 L 276.859375 103.824219 C 276.015625 103.824219 276.015625 103.710938 276.015625 103.429688 Z M 276.015625 98.796875 "/>
<path style="fill:none;stroke-width:0.4776;stroke-linecap:butt;stroke-linejoin:miter;stroke:rgb(0%,0%,0%);stroke-opacity:1;stroke-miterlimit:10;" d="M 270.890625 -105.839844 L 280.320312 -105.839844 " transform="matrix(1,0,0,-1,0,0)"/>
<path style=" stroke:none;fill-rule:nonzero;fill:rgb(0%,0%,0%);fill-opacity:1;" d="M 275.105469 111.433594 L 274.824219 111.433594 C 274.804688 111.621094 274.710938 112.109375 274.601562 112.183594 C 274.542969 112.238281 273.90625 112.238281 273.773438 112.238281 L 272.238281 112.238281 C 273.117188 111.472656 273.417969 111.226562 273.90625 110.832031 C 274.523438 110.347656 275.105469 109.820312 275.105469 109.035156 C 275.105469 108.019531 274.226562 107.402344 273.15625 107.402344 C 272.125 107.402344 271.414062 108.132812 271.414062 108.902344 C 271.414062 109.316406 271.769531 109.371094 271.863281 109.371094 C 272.050781 109.371094 272.292969 109.222656 272.292969 108.921875 C 272.292969 108.769531 272.238281 108.472656 271.804688 108.472656 C 272.070312 107.890625 272.632812 107.703125 273.023438 107.703125 C 273.867188 107.703125 274.300781 108.359375 274.300781 109.035156 C 274.300781 109.765625 273.773438 110.328125 273.511719 110.628906 L 271.507812 112.632812 C 271.414062 112.707031 271.414062 112.726562 271.414062 112.953125 L 274.863281 112.953125 Z M 275.105469 111.433594 "/>
<path style=" stroke:none;fill-rule:nonzero;fill:rgb(0%,0%,0%);fill-opacity:1;" d="M 279.179688 109.398438 L 278.914062 109.398438 C 278.914062 109.511719 278.839844 109.886719 278.746094 109.941406 C 278.710938 109.980469 278.203125 109.980469 278.109375 109.980469 L 276.945312 109.980469 C 277.339844 109.699219 277.773438 109.363281 278.128906 109.117188 C 278.671875 108.742188 279.179688 108.40625 279.179688 107.769531 C 279.179688 107 278.445312 106.585938 277.601562 106.585938 C 276.796875 106.585938 276.195312 107.035156 276.195312 107.636719 C 276.195312 107.9375 276.460938 107.992188 276.554688 107.992188 C 276.703125 107.992188 276.890625 107.878906 276.890625 107.636719 C 276.890625 107.429688 276.742188 107.300781 276.554688 107.300781 C 276.722656 107.019531 277.078125 106.847656 277.472656 106.847656 C 278.054688 106.847656 278.539062 107.1875 278.539062 107.769531 C 278.539062 108.273438 278.183594 108.667969 277.734375 109.042969 L 276.273438 110.28125 C 276.214844 110.335938 276.195312 110.335938 276.195312 110.375 L 276.195312 110.5625 L 278.972656 110.5625 Z M 279.179688 109.398438 "/>
<path style=" stroke:none;fill-rule:nonzero;fill:rgb(0%,0%,0%);fill-opacity:1;" d="M 304.8125 111.597656 C 304.8125 111.371094 304.8125 111.371094 304.570312 111.371094 C 304.027344 111.898438 303.277344 111.898438 302.9375 111.898438 L 302.9375 112.199219 C 303.125 112.199219 303.6875 112.199219 304.140625 111.972656 L 304.140625 116.230469 C 304.140625 116.511719 304.140625 116.621094 303.3125 116.621094 L 302.996094 116.621094 L 302.996094 116.921875 C 303.144531 116.921875 304.175781 116.886719 304.476562 116.886719 C 304.738281 116.886719 305.789062 116.921875 305.976562 116.921875 L 305.976562 116.621094 L 305.65625 116.621094 C 304.8125 116.621094 304.8125 116.511719 304.8125 116.230469 Z M 304.8125 111.597656 "/>
<path style="fill:none;stroke-width:0.4776;stroke-linecap:butt;stroke-linejoin:miter;stroke:rgb(0%,0%,0%);stroke-opacity:1;stroke-miterlimit:10;" d="M 299.6875 -118.640625 L 309.121094 -118.640625 " transform="matrix(1,0,0,-1,0,0)"/>
<path style=" stroke:none;fill-rule:nonzero;fill:rgb(0%,0%,0%);fill-opacity:1;" d="M 301.976562 122.957031 C 302.632812 122.957031 303.101562 123.410156 303.101562 124.308594 C 303.101562 125.339844 302.480469 125.660156 302.011719 125.660156 C 301.675781 125.660156 300.925781 125.566406 300.585938 125.058594 C 300.980469 125.058594 301.074219 124.777344 301.074219 124.589844 C 301.074219 124.328125 300.867188 124.140625 300.605469 124.140625 C 300.382812 124.140625 300.136719 124.289062 300.136719 124.628906 C 300.136719 125.414062 301 125.921875 302.011719 125.921875 C 303.175781 125.921875 303.980469 125.132812 303.980469 124.308594 C 303.980469 123.652344 303.457031 122.996094 302.539062 122.808594 C 303.398438 122.488281 303.71875 121.871094 303.71875 121.347656 C 303.71875 120.691406 302.96875 120.203125 302.03125 120.203125 C 301.113281 120.203125 300.398438 120.652344 300.398438 121.328125 C 300.398438 121.609375 300.585938 121.757812 300.832031 121.757812 C 301.09375 121.757812 301.261719 121.570312 301.261719 121.347656 C 301.261719 121.101562 301.09375 120.914062 300.832031 120.894531 C 301.132812 120.539062 301.695312 120.445312 302.011719 120.445312 C 302.386719 120.445312 302.914062 120.632812 302.914062 121.347656 C 302.914062 121.703125 302.800781 122.097656 302.574219 122.339844 C 302.3125 122.660156 302.070312 122.675781 301.65625 122.714844 C 301.449219 122.734375 301.429688 122.734375 301.394531 122.734375 C 301.375 122.734375 301.300781 122.753906 301.300781 122.847656 C 301.300781 122.957031 301.375 122.957031 301.523438 122.957031 Z M 301.976562 122.957031 "/>
<path style=" stroke:none;fill-rule:nonzero;fill:rgb(0%,0%,0%);fill-opacity:1;" d="M 307.976562 122.199219 L 307.714844 122.199219 C 307.714844 122.3125 307.640625 122.6875 307.546875 122.742188 C 307.507812 122.78125 307.003906 122.78125 306.910156 122.78125 L 305.746094 122.78125 C 306.140625 122.5 306.570312 122.160156 306.929688 121.917969 C 307.472656 121.542969 307.976562 121.207031 307.976562 120.566406 C 307.976562 119.800781 307.246094 119.386719 306.402344 119.386719 C 305.597656 119.386719 304.996094 119.835938 304.996094 120.4375 C 304.996094 120.738281 305.257812 120.792969 305.351562 120.792969 C 305.503906 120.792969 305.691406 120.679688 305.691406 120.4375 C 305.691406 120.230469 305.539062 120.097656 305.351562 120.097656 C 305.523438 119.816406 305.878906 119.648438 306.273438 119.648438 C 306.851562 119.648438 307.339844 119.988281 307.339844 120.566406 C 307.339844 121.074219 306.984375 121.46875 306.535156 121.84375 L 305.070312 123.082031 C 305.015625 123.136719 304.996094 123.136719 304.996094 123.175781 L 304.996094 123.363281 L 307.773438 123.363281 Z M 307.976562 122.199219 "/>
<path style=" stroke:none;fill-rule:nonzero;fill:rgb(0%,0%,0%);fill-opacity:1;" d="M 333.613281 117.757812 C 333.613281 117.53125 333.613281 117.53125 333.371094 117.53125 C 332.828125 118.058594 332.078125 118.058594 331.738281 118.058594 L 331.738281 118.355469 C 331.925781 118.355469 332.488281 118.355469 332.9375 118.132812 L 332.9375 122.386719 C 332.9375 122.667969 332.9375 122.78125 332.113281 122.78125 L 331.796875 122.78125 L 331.796875 123.082031 C 331.945312 123.082031 332.976562 123.042969 333.277344 123.042969 C 333.539062 123.042969 334.589844 123.082031 334.777344 123.082031 L 334.777344 122.78125 L 334.457031 122.78125 C 333.613281 122.78125 333.613281 122.667969 333.613281 122.386719 Z M 333.613281 117.757812 "/>
<path style="fill:none;stroke-width:0.4776;stroke-linecap:butt;stroke-linejoin:miter;stroke:rgb(0%,0%,0%);stroke-opacity:1;stroke-miterlimit:10;" d="M 328.488281 -124.800781 L 337.921875 -124.800781 " transform="matrix(1,0,0,-1,0,0)"/>
<path style=" stroke:none;fill-rule:nonzero;fill:rgb(0%,0%,0%);fill-opacity:1;" d="M 332.914062 130.542969 L 332.914062 130.242188 L 331.976562 130.242188 L 331.976562 126.511719 C 331.976562 126.34375 331.976562 126.269531 331.804688 126.269531 C 331.695312 126.269531 331.65625 126.269531 331.582031 126.398438 L 328.804688 130.242188 L 328.804688 130.542969 L 331.28125 130.542969 L 331.28125 131.21875 C 331.28125 131.519531 331.28125 131.613281 330.585938 131.613281 L 330.363281 131.613281 L 330.363281 131.910156 C 330.792969 131.894531 331.320312 131.875 331.617188 131.875 C 331.9375 131.875 332.460938 131.894531 332.894531 131.910156 L 332.894531 131.613281 L 332.667969 131.613281 C 331.976562 131.613281 331.976562 131.519531 331.976562 131.21875 L 331.976562 130.542969 Z M 331.335938 127.1875 L 331.335938 130.242188 L 329.125 130.242188 Z M 331.335938 127.1875 "/>
<path style=" stroke:none;fill-rule:nonzero;fill:rgb(0%,0%,0%);fill-opacity:1;" d="M 336.777344 128.359375 L 336.515625 128.359375 C 336.515625 128.472656 336.441406 128.847656 336.347656 128.902344 C 336.308594 128.941406 335.804688 128.941406 335.710938 128.941406 L 334.546875 128.941406 C 334.941406 128.660156 335.371094 128.320312 335.726562 128.078125 C 336.273438 127.703125 336.777344 127.363281 336.777344 126.726562 C 336.777344 125.957031 336.046875 125.546875 335.203125 125.546875 C 334.398438 125.546875 333.796875 125.996094 333.796875 126.597656 C 333.796875 126.894531 334.058594 126.953125 334.152344 126.953125 C 334.304688 126.953125 334.492188 126.839844 334.492188 126.597656 C 334.492188 126.390625 334.339844 126.257812 334.152344 126.257812 C 334.320312 125.976562 334.679688 125.808594 335.070312 125.808594 C 335.652344 125.808594 336.140625 126.144531 336.140625 126.726562 C 336.140625 127.234375 335.785156 127.628906 335.335938 128.003906 L 333.871094 129.238281 C 333.816406 129.296875 333.796875 129.296875 333.796875 129.332031 L 333.796875 129.519531 L 336.570312 129.519531 Z M 336.777344 128.359375 "/>
<path style=" stroke:none;fill-rule:nonzero;fill:rgb(0%,0%,0%);fill-opacity:1;" d="M 362.414062 119.355469 C 362.414062 119.132812 362.414062 119.132812 362.171875 119.132812 C 361.625 119.65625 360.875 119.65625 360.539062 119.65625 L 360.539062 119.957031 C 360.726562 119.957031 361.289062 119.957031 361.738281 119.730469 L 361.738281 123.988281 C 361.738281 124.269531 361.738281 124.382812 360.914062 124.382812 L 360.59375 124.382812 L 360.59375 124.683594 C 360.746094 124.683594 361.777344 124.644531 362.078125 124.644531 C 362.339844 124.644531 363.390625 124.683594 363.578125 124.683594 L 363.578125 124.382812 L 363.257812 124.382812 C 362.414062 124.382812 362.414062 124.269531 362.414062 123.988281 Z M 362.414062 119.355469 "/>
<path style="fill:none;stroke-width:0.4776;stroke-linecap:butt;stroke-linejoin:miter;stroke:rgb(0%,0%,0%);stroke-opacity:1;stroke-miterlimit:10;" d="M 357.289062 -126.398438 L 366.71875 -126.398438 " transform="matrix(1,0,0,-1,0,0)"/>
<path style=" stroke:none;fill-rule:nonzero;fill:rgb(0%,0%,0%);fill-opacity:1;" d="M 358.582031 128.84375 C 359.011719 128.957031 359.257812 128.957031 359.386719 128.957031 C 360.492188 128.957031 361.148438 128.207031 361.148438 128.074219 C 361.148438 127.980469 361.09375 127.960938 361.054688 127.960938 C 361.039062 127.960938 361.019531 127.960938 360.980469 127.980469 C 360.773438 128.054688 360.34375 128.222656 359.726562 128.222656 C 359.480469 128.222656 359.050781 128.207031 358.507812 128 C 358.414062 127.960938 358.394531 127.960938 358.394531 127.960938 C 358.28125 127.960938 358.28125 128.054688 358.28125 128.1875 L 358.28125 130.644531 C 358.28125 130.792969 358.28125 130.886719 358.414062 130.886719 C 358.488281 130.886719 358.507812 130.886719 358.582031 130.773438 C 358.9375 130.324219 359.460938 130.25 359.742188 130.25 C 360.25 130.25 360.476562 130.644531 360.511719 130.71875 C 360.664062 131 360.71875 131.316406 360.71875 131.804688 C 360.71875 132.050781 360.71875 132.535156 360.457031 132.910156 C 360.25 133.210938 359.894531 133.417969 359.480469 133.417969 C 358.9375 133.417969 358.375 133.117188 358.167969 132.554688 C 358.488281 132.574219 358.65625 132.367188 358.65625 132.144531 C 358.65625 131.785156 358.335938 131.730469 358.226562 131.730469 C 358.226562 131.730469 357.8125 131.730469 357.8125 132.179688 C 357.8125 132.929688 358.507812 133.679688 359.5 133.679688 C 360.570312 133.679688 361.507812 132.894531 361.507812 131.824219 C 361.507812 130.886719 360.792969 130.023438 359.761719 130.023438 C 359.386719 130.023438 358.957031 130.097656 358.582031 130.417969 Z M 358.582031 128.84375 "/>
<path style=" stroke:none;fill-rule:nonzero;fill:rgb(0%,0%,0%);fill-opacity:1;" d="M 365.578125 129.957031 L 365.316406 129.957031 C 365.316406 130.070312 365.242188 130.445312 365.148438 130.503906 C 365.109375 130.539062 364.601562 130.539062 364.507812 130.539062 L 363.347656 130.539062 C 363.742188 130.257812 364.171875 129.921875 364.527344 129.675781 C 365.070312 129.300781 365.578125 128.964844 365.578125 128.328125 C 365.578125 127.558594 364.847656 127.144531 364.003906 127.144531 C 363.195312 127.144531 362.597656 127.597656 362.597656 128.195312 C 362.597656 128.496094 362.859375 128.550781 362.953125 128.550781 C 363.101562 128.550781 363.289062 128.441406 363.289062 128.195312 C 363.289062 127.988281 363.140625 127.859375 362.953125 127.859375 C 363.121094 127.578125 363.476562 127.410156 363.871094 127.410156 C 364.453125 127.410156 364.941406 127.746094 364.941406 128.328125 C 364.941406 128.832031 364.585938 129.226562 364.132812 129.601562 L 362.671875 130.839844 C 362.617188 130.894531 362.597656 130.894531 362.597656 130.933594 L 362.597656 131.121094 L 365.371094 131.121094 Z M 365.578125 129.957031 "/>
</g>
</svg>
