<?xml version="1.0" encoding="UTF-8"?>
<svg xmlns="http://www.w3.org/2000/svg" xmlns:xlink="http://www.w3.org/1999/xlink" width="110pt" height="59pt" viewBox="0 0 110 59" version="1.1">
<g id="surface1">
<path style=" stroke:none;fill-rule:nonzero;fill:rgb(69.921875%,69.921875%,69.921875%);fill-opacity:1;" d="M 5.71875 54.902344 L 106.519531 54.902344 L 48.917969 4.726562 "/>
<path style="fill:none;stroke-width:10;stroke-linecap:butt;stroke-linejoin:miter;stroke:rgb(0%,0%,0%);stroke-opacity:1;stroke-miterlimit:10;" d="M 57.1875 40.976562 L 1065.195312 40.976562 " transform="matrix(0.1,0,0,-0.1,0,59)"/>
<path style="fill:none;stroke-width:10;stroke-linecap:butt;stroke-linejoin:miter;stroke:rgb(0%,0%,0%);stroke-opacity:1;stroke-miterlimit:10;" d="M 57.1875 40.976562 L 489.179688 542.734375 " transform="matrix(0.1,0,0,-0.1,0,59)"/>
<path style="fill:none;stroke-width:10;stroke-linecap:butt;stroke-linejoin:miter;stroke:rgb(0%,0%,0%);stroke-opacity:1;stroke-miterlimit:10;" d="M 1065.195312 40.976562 L 489.179688 542.734375 " transform="matrix(0.1,0,0,-0.1,0,59)"/>
<path style="fill:none;stroke-width:10;stroke-linecap:butt;stroke-linejoin:miter;stroke:rgb(92.939758%,10.978699%,14.118958%);stroke-opacity:1;stroke-miterlimit:10;" d="M 57.1875 40.976562 L 777.1875 291.835938 " transform="matrix(0.1,0,0,-0.1,0,59)"/>
<path style="fill:none;stroke-width:10;stroke-linecap:butt;stroke-linejoin:miter;stroke:rgb(92.939758%,10.978699%,14.118958%);stroke-opacity:1;stroke-miterlimit:10;" d="M 1065.195312 40.976562 L 273.203125 291.835938 " transform="matrix(0.1,0,0,-0.1,0,59)"/>
<path style="fill:none;stroke-width:10;stroke-linecap:butt;stroke-linejoin:miter;stroke:rgb(92.939758%,10.978699%,14.118958%);stroke-opacity:1;stroke-miterlimit:10;" d="M 489.179688 542.734375 L 561.210938 40.976562 " transform="matrix(0.1,0,0,-0.1,0,59)"/>
<path style=" stroke:none;fill-rule:nonzero;fill:rgb(0%,0%,0%);fill-opacity:1;" d="M 7.878906 54.902344 C 7.878906 53.714844 6.914062 52.753906 5.71875 52.753906 C 4.527344 52.753906 3.558594 53.714844 3.558594 54.902344 C 3.558594 56.089844 4.527344 57.054688 5.71875 57.054688 C 6.914062 57.054688 7.878906 56.089844 7.878906 54.902344 "/>
<path style=" stroke:none;fill-rule:nonzero;fill:rgb(0%,0%,0%);fill-opacity:1;" d="M 108.679688 54.902344 C 108.679688 53.714844 107.714844 52.753906 106.519531 52.753906 C 105.328125 52.753906 104.359375 53.714844 104.359375 54.902344 C 104.359375 56.089844 105.328125 57.054688 106.519531 57.054688 C 107.714844 57.054688 108.679688 56.089844 108.679688 54.902344 "/>
<path style=" stroke:none;fill-rule:nonzero;fill:rgb(0%,0%,0%);fill-opacity:1;" d="M 51.082031 4.726562 C 51.082031 3.539062 50.113281 2.578125 48.917969 2.578125 C 47.726562 2.578125 46.761719 3.539062 46.761719 4.726562 C 46.761719 5.914062 47.726562 6.878906 48.917969 6.878906 C 50.113281 6.878906 51.082031 5.914062 51.082031 4.726562 "/>
<path style="fill-rule:nonzero;fill:rgb(100%,100%,100%);fill-opacity:1;stroke-width:5;stroke-linecap:butt;stroke-linejoin:miter;stroke:rgb(13.729858%,12.159729%,12.548828%);stroke-opacity:1;stroke-miterlimit:10;" d="M 582.8125 40.976562 C 582.8125 52.851562 573.125 62.460938 561.210938 62.460938 C 549.257812 62.460938 539.609375 52.851562 539.609375 40.976562 C 539.609375 29.101562 549.257812 19.453125 561.210938 19.453125 C 573.125 19.453125 582.8125 29.101562 582.8125 40.976562 " transform="matrix(0.1,0,0,-0.1,0,59)"/>
<path style="fill-rule:nonzero;fill:rgb(100%,100%,100%);fill-opacity:1;stroke-width:5;stroke-linecap:butt;stroke-linejoin:miter;stroke:rgb(13.729858%,12.159729%,12.548828%);stroke-opacity:1;stroke-miterlimit:10;" d="M 798.789062 291.835938 C 798.789062 303.710938 789.140625 313.359375 777.1875 313.359375 C 765.273438 313.359375 755.585938 303.710938 755.585938 291.835938 C 755.585938 279.960938 765.273438 270.351562 777.1875 270.351562 C 789.140625 270.351562 798.789062 279.960938 798.789062 291.835938 " transform="matrix(0.1,0,0,-0.1,0,59)"/>
<path style="fill-rule:nonzero;fill:rgb(100%,100%,100%);fill-opacity:1;stroke-width:5;stroke-linecap:butt;stroke-linejoin:miter;stroke:rgb(13.729858%,12.159729%,12.548828%);stroke-opacity:1;stroke-miterlimit:10;" d="M 294.804688 291.835938 C 294.804688 303.710938 285.117188 313.359375 273.203125 313.359375 C 261.289062 313.359375 251.601562 303.710938 251.601562 291.835938 C 251.601562 279.960938 261.289062 270.351562 273.203125 270.351562 C 285.117188 270.351562 294.804688 279.960938 294.804688 291.835938 " transform="matrix(0.1,0,0,-0.1,0,59)"/>
</g>
</svg>
