<?xml version="1.0" encoding="UTF-8"?>
<svg xmlns="http://www.w3.org/2000/svg" xmlns:xlink="http://www.w3.org/1999/xlink" width="612pt" height="792pt" viewBox="0 0 612 792" version="1.1">
<g id="surface1">
<path style=" stroke:none;fill-rule:nonzero;fill:rgb(22.698975%,59.999084%,37.998962%);fill-opacity:1;" d="M 0 791.191406 L 611.589844 791.191406 L 611.589844 0 L 0 0 Z M 0 791.191406 "/>
<path style="fill:none;stroke-width:1;stroke-linecap:butt;stroke-linejoin:miter;stroke:rgb(100%,100%,100%);stroke-opacity:1;stroke-miterlimit:10;" d="M 20.230469 -39.191406 L -10.105469 -39.191406 L -10.105469 200.894531 L 20.230469 200.894531 Z M 20.230469 -39.191406 " transform="matrix(1,0,0,-1,0,792)"/>
<path style="fill:none;stroke-width:1;stroke-linecap:butt;stroke-linejoin:miter;stroke:rgb(100%,100%,100%);stroke-opacity:1;stroke-miterlimit:10;" d="M 80.90625 -39.191406 L 50.570312 -39.191406 L 50.570312 284.78125 L 80.90625 284.78125 Z M 80.90625 -39.191406 " transform="matrix(1,0,0,-1,0,792)"/>
<path style="fill:none;stroke-width:1;stroke-linecap:butt;stroke-linejoin:miter;stroke:rgb(100%,100%,100%);stroke-opacity:1;stroke-miterlimit:10;" d="M 111.246094 -39.191406 L 80.90625 -39.191406 L 80.90625 101.976562 L 111.246094 101.976562 Z M 111.246094 -39.191406 " transform="matrix(1,0,0,-1,0,792)"/>
<path style="fill:none;stroke-width:1;stroke-linecap:butt;stroke-linejoin:miter;stroke:rgb(100%,100%,100%);stroke-opacity:1;stroke-miterlimit:10;" d="M 141.585938 -39.191406 L 111.246094 -39.191406 L 111.246094 163.144531 L 141.585938 163.144531 Z M 141.585938 -39.191406 " transform="matrix(1,0,0,-1,0,792)"/>
<path style="fill:none;stroke-width:1;stroke-linecap:butt;stroke-linejoin:miter;stroke:rgb(100%,100%,100%);stroke-opacity:1;stroke-miterlimit:10;" d="M 171.925781 -39.191406 L 141.585938 -39.191406 L 141.585938 174.78125 L 171.925781 174.78125 Z M 171.925781 -39.191406 " transform="matrix(1,0,0,-1,0,792)"/>
<path style="fill:none;stroke-width:1;stroke-linecap:butt;stroke-linejoin:miter;stroke:rgb(100%,100%,100%);stroke-opacity:1;stroke-miterlimit:10;" d="M 202.261719 -39.191406 L 171.925781 -39.191406 L 171.925781 200.894531 L 202.261719 200.894531 Z M 202.261719 -39.191406 " transform="matrix(1,0,0,-1,0,792)"/>
<path style="fill:none;stroke-width:1;stroke-linecap:butt;stroke-linejoin:miter;stroke:rgb(100%,100%,100%);stroke-opacity:1;stroke-miterlimit:10;" d="M 50.570312 -41.285156 L 20.230469 -41.285156 L 20.230469 257.699219 L 50.570312 257.699219 Z M 50.570312 -41.285156 " transform="matrix(1,0,0,-1,0,792)"/>
<path style="fill:none;stroke-width:1;stroke-linecap:butt;stroke-linejoin:miter;stroke:rgb(100%,100%,100%);stroke-opacity:1;stroke-miterlimit:10;" d="M 262.941406 -39.191406 L 232.601562 -39.191406 L 232.601562 182.652344 L 262.941406 182.652344 Z M 262.941406 -39.191406 " transform="matrix(1,0,0,-1,0,792)"/>
<path style="fill:none;stroke-width:1;stroke-linecap:butt;stroke-linejoin:miter;stroke:rgb(100%,100%,100%);stroke-opacity:1;stroke-miterlimit:10;" d="M 293.277344 -41.285156 L 262.941406 -41.285156 L 262.941406 204.855469 L 293.277344 204.855469 Z M 293.277344 -41.285156 " transform="matrix(1,0,0,-1,0,792)"/>
<path style="fill:none;stroke-width:1;stroke-linecap:butt;stroke-linejoin:miter;stroke:rgb(100%,100%,100%);stroke-opacity:1;stroke-miterlimit:10;" d="M 323.617188 -41.285156 L 293.277344 -41.285156 L 293.277344 257.699219 L 323.617188 257.699219 Z M 323.617188 -41.285156 " transform="matrix(1,0,0,-1,0,792)"/>
<path style="fill:none;stroke-width:1;stroke-linecap:butt;stroke-linejoin:miter;stroke:rgb(100%,100%,100%);stroke-opacity:1;stroke-miterlimit:10;" d="M 353.957031 -41.285156 L 323.617188 -41.285156 L 323.617188 144.78125 L 353.957031 144.78125 Z M 353.957031 -41.285156 " transform="matrix(1,0,0,-1,0,792)"/>
<path style="fill:none;stroke-width:1;stroke-linecap:butt;stroke-linejoin:miter;stroke:rgb(100%,100%,100%);stroke-opacity:1;stroke-miterlimit:10;" d="M 384.296875 -41.285156 L 353.957031 -41.285156 L 353.957031 214.625 L 384.296875 214.625 Z M 384.296875 -41.285156 " transform="matrix(1,0,0,-1,0,792)"/>
<path style="fill:none;stroke-width:1;stroke-linecap:butt;stroke-linejoin:miter;stroke:rgb(100%,100%,100%);stroke-opacity:1;stroke-miterlimit:10;" d="M 232.601562 -39.191406 L 202.265625 -39.191406 L 202.265625 247.699219 L 232.601562 247.699219 Z M 232.601562 -39.191406 " transform="matrix(1,0,0,-1,0,792)"/>
<path style="fill:none;stroke-width:1;stroke-linecap:butt;stroke-linejoin:miter;stroke:rgb(100%,100%,100%);stroke-opacity:1;stroke-miterlimit:10;" d="M 444.972656 -39.191406 L 414.632812 -39.191406 L 414.632812 200.894531 L 444.972656 200.894531 Z M 444.972656 -39.191406 " transform="matrix(1,0,0,-1,0,792)"/>
<path style="fill:none;stroke-width:1;stroke-linecap:butt;stroke-linejoin:miter;stroke:rgb(100%,100%,100%);stroke-opacity:1;stroke-miterlimit:10;" d="M 475.3125 -41.285156 L 444.972656 -41.285156 L 444.972656 220.839844 L 475.3125 220.839844 Z M 475.3125 -41.285156 " transform="matrix(1,0,0,-1,0,792)"/>
<path style="fill:none;stroke-width:1;stroke-linecap:butt;stroke-linejoin:miter;stroke:rgb(100%,100%,100%);stroke-opacity:1;stroke-miterlimit:10;" d="M 505.648438 -39.191406 L 475.3125 -39.191406 L 475.3125 243.144531 L 505.648438 243.144531 Z M 505.648438 -39.191406 " transform="matrix(1,0,0,-1,0,792)"/>
<path style="fill:none;stroke-width:1;stroke-linecap:butt;stroke-linejoin:miter;stroke:rgb(100%,100%,100%);stroke-opacity:1;stroke-miterlimit:10;" d="M 535.988281 -41.285156 L 505.648438 -41.285156 L 505.648438 284.78125 L 535.988281 284.78125 Z M 535.988281 -41.285156 " transform="matrix(1,0,0,-1,0,792)"/>
<path style="fill:none;stroke-width:1;stroke-linecap:butt;stroke-linejoin:miter;stroke:rgb(100%,100%,100%);stroke-opacity:1;stroke-miterlimit:10;" d="M 566.328125 -39.191406 L 535.988281 -39.191406 L 535.988281 101.976562 L 566.328125 101.976562 Z M 566.328125 -39.191406 " transform="matrix(1,0,0,-1,0,792)"/>
<path style="fill:none;stroke-width:1;stroke-linecap:butt;stroke-linejoin:miter;stroke:rgb(100%,100%,100%);stroke-opacity:1;stroke-miterlimit:10;" d="M 414.636719 -39.191406 L 384.296875 -39.191406 L 384.296875 247.699219 L 414.636719 247.699219 Z M 414.636719 -39.191406 " transform="matrix(1,0,0,-1,0,792)"/>
<path style="fill:none;stroke-width:1;stroke-linecap:butt;stroke-linejoin:miter;stroke:rgb(100%,100%,100%);stroke-opacity:1;stroke-miterlimit:10;" d="M 627.003906 -39.191406 L 596.664062 -39.191406 L 596.664062 200.894531 L 627.003906 200.894531 Z M 627.003906 -39.191406 " transform="matrix(1,0,0,-1,0,792)"/>
<path style="fill:none;stroke-width:1;stroke-linecap:butt;stroke-linejoin:miter;stroke:rgb(100%,100%,100%);stroke-opacity:1;stroke-miterlimit:10;" d="M 596.664062 -41.285156 L 566.328125 -41.285156 L 566.328125 257.699219 L 596.664062 257.699219 Z M 596.664062 -41.285156 " transform="matrix(1,0,0,-1,0,792)"/>
<path style=" stroke:none;fill-rule:nonzero;fill:rgb(22.698975%,59.999084%,37.998962%);fill-opacity:1;" d="M 491.730469 474.734375 L 120.269531 474.734375 L 120.269531 317.265625 L 491.730469 317.265625 Z M 491.730469 474.734375 "/>
<path style=" stroke:none;fill-rule:nonzero;fill:rgb(100%,100%,100%);fill-opacity:1;" d="M 486.570312 322.25 L 125.429688 322.25 L 125.429688 469.75 L 486.570312 469.75 Z M 471.570312 454.75 L 140.429688 454.75 L 140.429688 337.25 L 471.570312 337.25 Z M 471.570312 454.75 "/>
<path style=" stroke:none;fill-rule:nonzero;fill:rgb(100%,100%,100%);fill-opacity:1;" d="M 152.582031 350.398438 C 151.886719 350.398438 151.289062 350.265625 150.785156 350 C 150.28125 349.734375 149.894531 349.34375 149.625 348.835938 C 149.355469 348.324219 149.222656 347.714844 149.222656 347 C 149.222656 346.285156 149.355469 345.675781 149.625 345.167969 C 149.894531 344.65625 150.28125 344.265625 150.785156 344 C 151.289062 343.734375 151.886719 343.601562 152.582031 343.601562 C 153.355469 343.601562 154.015625 343.765625 154.5625 344.09375 C 155.109375 344.425781 155.449219 344.925781 155.582031 345.601562 L 153.582031 346.378906 C 153.527344 345.972656 153.429688 345.699219 153.289062 345.558594 C 153.152344 345.421875 152.933594 345.351562 152.640625 345.351562 C 152.292969 345.351562 152.035156 345.484375 151.859375 345.75 C 151.6875 346.015625 151.601562 346.433594 151.601562 347 C 151.601562 347.566406 151.683594 347.984375 151.851562 348.25 C 152.019531 348.515625 152.273438 348.648438 152.621094 348.648438 C 152.933594 348.648438 153.160156 348.582031 153.300781 348.441406 C 153.441406 348.300781 153.53125 348.070312 153.570312 347.75 L 155.628906 348.28125 C 155.289062 349.695312 154.273438 350.398438 152.582031 350.398438 "/>
<path style=" stroke:none;fill-rule:nonzero;fill:rgb(100%,100%,100%);fill-opacity:1;" d="M 161.519531 348.589844 L 161.519531 350.300781 L 156.199219 350.300781 L 156.199219 343.699219 L 158.53125 343.699219 L 158.53125 348.589844 Z M 161.519531 348.589844 "/>
<path style=" stroke:none;fill-rule:nonzero;fill:rgb(100%,100%,100%);fill-opacity:1;" d="M 165.996094 346.449219 C 166.125 346.351562 166.191406 346.195312 166.191406 345.980469 C 166.191406 345.765625 166.125 345.609375 165.996094 345.511719 C 165.867188 345.410156 165.65625 345.359375 165.371094 345.359375 L 164.582031 345.359375 L 164.582031 346.601562 L 165.371094 346.601562 C 165.65625 346.601562 165.867188 346.550781 165.996094 346.449219 M 168.519531 346.011719 C 168.519531 346.722656 168.289062 347.265625 167.820312 347.640625 C 167.355469 348.015625 166.664062 348.199219 165.75 348.199219 L 164.582031 348.199219 L 164.582031 350.300781 L 162.25 350.300781 L 162.25 343.699219 L 165.75 343.699219 C 167.597656 343.699219 168.519531 344.472656 168.519531 346.011719 "/>
<path style=" stroke:none;fill-rule:nonzero;fill:rgb(100%,100%,100%);fill-opacity:1;" d="M 171.820312 348.898438 C 172.78125 348.394531 173.511719 347.878906 174.015625 347.351562 C 174.519531 346.824219 174.769531 346.355469 174.769531 345.949219 C 174.769531 345.777344 174.726562 345.632812 174.640625 345.519531 C 174.554688 345.40625 174.417969 345.351562 174.230469 345.351562 C 174.003906 345.351562 173.835938 345.445312 173.730469 345.636719 C 173.625 345.824219 173.578125 346.121094 173.589844 346.519531 L 171.601562 346.042969 C 171.585938 345.5 171.699219 345.046875 171.941406 344.683594 C 172.179688 344.320312 172.511719 344.050781 172.941406 343.871094 C 173.367188 343.691406 173.851562 343.601562 174.390625 343.601562 C 175.019531 343.601562 175.53125 343.710938 175.929688 343.929688 C 176.332031 344.148438 176.617188 344.425781 176.796875 344.753906 C 176.972656 345.085938 177.0625 345.417969 177.0625 345.75 C 177.0625 346.363281 176.832031 346.90625 176.371094 347.378906 C 175.910156 347.855469 175.289062 348.277344 174.5 348.648438 L 174.5 348.671875 C 174.914062 348.628906 175.4375 348.609375 176.070312 348.609375 L 177.101562 348.609375 L 177.101562 350.300781 L 171.820312 350.300781 Z M 171.820312 348.898438 "/>
<path style=" stroke:none;fill-rule:nonzero;fill:rgb(100%,100%,100%);fill-opacity:1;" d="M 163.410156 393.300781 L 149.429688 393.300781 L 149.429688 353.699219 L 163.410156 353.699219 Z M 163.410156 393.300781 "/>
<path style=" stroke:none;fill-rule:nonzero;fill:rgb(100%,100%,100%);fill-opacity:1;" d="M 208.171875 393.300781 L 193.050781 393.300781 L 183.570312 375.300781 L 181.410156 370.441406 L 181.289062 370.441406 L 181.53125 378.601562 L 181.53125 393.300781 L 169.410156 393.300781 L 169.410156 353.699219 L 184.53125 353.699219 L 194.011719 371.761719 L 196.171875 376.558594 L 196.289062 376.558594 L 196.050781 368.402344 L 196.050781 353.699219 L 208.171875 353.699219 Z M 208.171875 393.300781 "/>
<path style=" stroke:none;fill-rule:nonzero;fill:rgb(100%,100%,100%);fill-opacity:1;" d="M 251.128906 363.960938 L 238.769531 363.960938 L 238.769531 393.300781 L 224.789062 393.300781 L 224.789062 363.960938 L 212.371094 363.960938 L 212.371094 353.699219 L 251.128906 353.699219 Z M 251.128906 363.960938 "/>
<path style=" stroke:none;fill-rule:nonzero;fill:rgb(100%,100%,100%);fill-opacity:1;" d="M 288.929688 383.039062 L 288.929688 393.300781 L 255.328125 393.300781 L 255.328125 353.699219 L 288.210938 353.699219 L 288.210938 363.960938 L 269.308594 363.960938 L 269.308594 368.878906 L 284.550781 368.878906 L 284.550781 378.359375 L 269.308594 378.359375 L 269.308594 383.039062 Z M 288.929688 383.039062 "/>
<path style=" stroke:none;fill-rule:nonzero;fill:rgb(100%,100%,100%);fill-opacity:1;" d="M 312.148438 370.980469 L 330.507812 370.980469 L 330.507812 393.300781 L 321.269531 393.300781 L 320.789062 388.800781 C 318.75 392.203125 315.167969 393.898438 310.050781 393.898438 C 306.570312 393.898438 303.4375 393.128906 300.660156 391.589844 C 297.878906 390.050781 295.679688 387.761719 294.058594 384.71875 C 292.4375 381.679688 291.628906 377.980469 291.628906 373.621094 C 291.628906 367.140625 293.4375 362.101562 297.058594 358.5 C 300.679688 354.898438 305.710938 353.101562 312.148438 353.101562 C 317.070312 353.101562 320.976562 353.941406 323.878906 355.621094 C 326.777344 357.300781 329.027344 360.082031 330.628906 363.960938 L 317.609375 368.640625 C 317.089844 365.28125 315.429688 363.601562 312.628906 363.601562 C 310.308594 363.601562 308.609375 364.390625 307.527344 365.96875 C 306.449219 367.550781 305.910156 370.0625 305.910156 373.5 C 305.910156 377.179688 306.488281 379.8125 307.648438 381.390625 C 308.808594 382.972656 310.628906 383.761719 313.109375 383.761719 C 314.871094 383.761719 316.257812 383.410156 317.277344 382.710938 C 318.300781 382.011719 318.808594 380.980469 318.808594 379.621094 L 318.808594 379.558594 L 312.148438 379.558594 Z M 312.148438 370.980469 "/>
<path style=" stroke:none;fill-rule:nonzero;fill:rgb(100%,100%,100%);fill-opacity:1;" d="M 349.886719 370.980469 L 354.867188 370.980469 C 356.628906 370.980469 357.878906 370.710938 358.617188 370.171875 C 359.359375 369.628906 359.726562 368.679688 359.726562 367.320312 C 359.726562 366 359.359375 365.0625 358.617188 364.5 C 357.878906 363.941406 356.628906 363.660156 354.867188 363.660156 L 349.886719 363.660156 Z M 353.726562 380.160156 L 349.886719 380.160156 L 349.886719 393.300781 L 336.207031 393.300781 L 336.207031 353.703125 L 357.6875 353.703125 C 362.96875 353.703125 366.957031 354.808594 369.660156 357.03125 C 372.359375 359.25 373.707031 362.5625 373.707031 366.960938 C 373.707031 372.761719 371.328125 376.660156 366.570312 378.660156 L 375.929688 393.300781 L 360.75 393.300781 Z M 353.726562 380.160156 "/>
<path style=" stroke:none;fill-rule:nonzero;fill:rgb(100%,100%,100%);fill-opacity:1;" d="M 399.328125 377.039062 L 396.148438 363.839844 L 395.96875 363.839844 L 394.40625 370.5625 L 392.789062 377.039062 Z M 401.367188 385.742188 L 390.6875 385.742188 L 388.828125 393.300781 L 374.90625 393.300781 L 387.746094 353.699219 L 404.546875 353.699219 L 417.449219 393.300781 L 403.167969 393.300781 Z M 401.367188 385.742188 "/>
<path style=" stroke:none;fill-rule:nonzero;fill:rgb(100%,100%,100%);fill-opacity:1;" d="M 451.765625 383.039062 L 451.765625 393.300781 L 419.847656 393.300781 L 419.847656 353.699219 L 433.828125 353.699219 L 433.828125 383.039062 Z M 451.765625 383.039062 "/>
<path style=" stroke:none;fill-rule:nonzero;fill:rgb(100%,100%,100%);fill-opacity:1;" d="M 168.332031 438.898438 C 164.167969 438.898438 160.582031 438.101562 157.5625 436.5 C 154.539062 434.902344 152.222656 432.570312 150.601562 429.511719 C 148.980469 426.449219 148.171875 422.78125 148.171875 418.5 C 148.171875 414.21875 148.980469 410.550781 150.601562 407.492188 C 152.222656 404.429688 154.539062 402.101562 157.5625 400.5 C 160.582031 398.902344 164.167969 398.101562 168.332031 398.101562 C 172.972656 398.101562 176.929688 399.089844 180.210938 401.070312 C 183.492188 403.050781 185.53125 406.0625 186.332031 410.101562 L 174.332031 414.78125 C 174.011719 412.339844 173.429688 410.699219 172.589844 409.859375 C 171.75 409.019531 170.449219 408.601562 168.691406 408.601562 C 166.609375 408.601562 165.050781 409.402344 164.011719 411 C 162.972656 412.601562 162.449219 415.101562 162.449219 418.5 C 162.449219 421.902344 162.949219 424.402344 163.949219 426 C 164.949219 427.601562 166.492188 428.398438 168.570312 428.398438 C 170.449219 428.398438 171.8125 427.980469 172.652344 427.140625 C 173.492188 426.300781 174.03125 424.921875 174.269531 423 L 186.628906 426.179688 C 184.589844 434.660156 178.492188 438.898438 168.332031 438.898438 "/>
<path style=" stroke:none;fill-rule:nonzero;fill:rgb(100%,100%,100%);fill-opacity:1;" d="M 210.871094 422.039062 L 207.691406 408.839844 L 207.511719 408.839844 L 205.949219 415.5625 L 204.328125 422.039062 Z M 212.910156 430.742188 L 202.230469 430.742188 L 200.371094 438.300781 L 186.449219 438.300781 L 199.289062 398.699219 L 216.089844 398.699219 L 228.988281 438.300781 L 214.710938 438.300781 Z M 212.910156 430.742188 "/>
<path style=" stroke:none;fill-rule:nonzero;fill:rgb(100%,100%,100%);fill-opacity:1;" d="M 263.308594 428.039062 L 263.308594 438.300781 L 231.390625 438.300781 L 231.390625 398.699219 L 245.371094 398.699219 L 245.371094 428.039062 Z M 263.308594 428.039062 "/>
<path style=" stroke:none;fill-rule:nonzero;fill:rgb(100%,100%,100%);fill-opacity:1;" d="M 285.390625 438.898438 C 281.230469 438.898438 277.640625 438.101562 274.621094 436.5 C 271.601562 434.902344 269.28125 432.570312 267.660156 429.511719 C 266.039062 426.449219 265.230469 422.78125 265.230469 418.5 C 265.230469 414.21875 266.039062 410.550781 267.660156 407.492188 C 269.28125 404.429688 271.601562 402.101562 274.621094 400.5 C 277.640625 398.902344 281.230469 398.101562 285.390625 398.101562 C 290.03125 398.101562 293.992188 399.089844 297.269531 401.070312 C 300.550781 403.050781 302.589844 406.0625 303.390625 410.101562 L 291.390625 414.78125 C 291.070312 412.339844 290.492188 410.699219 289.652344 409.859375 C 288.8125 409.019531 287.511719 408.601562 285.75 408.601562 C 283.671875 408.601562 282.113281 409.402344 281.070312 411 C 280.03125 412.601562 279.511719 415.101562 279.511719 418.5 C 279.511719 421.902344 280.011719 424.402344 281.011719 426 C 282.011719 427.601562 283.550781 428.398438 285.632812 428.398438 C 287.511719 428.398438 288.871094 427.980469 289.710938 427.140625 C 290.550781 426.300781 291.089844 424.921875 291.332031 423 L 303.691406 426.179688 C 301.652344 434.660156 295.550781 438.898438 285.390625 438.898438 "/>
<path style=" stroke:none;fill-rule:nonzero;fill:rgb(100%,100%,100%);fill-opacity:1;" d="M 344.488281 421.261719 C 344.488281 433.019531 338.109375 438.902344 325.351562 438.902344 C 312.589844 438.902344 306.210938 433.019531 306.210938 421.261719 L 306.210938 398.699219 L 320.25 398.699219 L 320.25 422.339844 C 320.25 424.339844 320.679688 425.851562 321.539062 426.871094 C 322.398438 427.890625 323.671875 428.402344 325.351562 428.402344 C 327.03125 428.402344 328.308594 427.890625 329.191406 426.871094 C 330.070312 425.851562 330.511719 424.339844 330.511719 422.339844 L 330.511719 398.699219 L 344.488281 398.699219 Z M 344.488281 421.261719 "/>
<path style=" stroke:none;fill-rule:nonzero;fill:rgb(100%,100%,100%);fill-opacity:1;" d="M 381.507812 428.039062 L 381.507812 438.300781 L 349.589844 438.300781 L 349.589844 398.699219 L 363.570312 398.699219 L 363.570312 428.039062 Z M 381.507812 428.039062 "/>
<path style=" stroke:none;fill-rule:nonzero;fill:rgb(100%,100%,100%);fill-opacity:1;" d="M 423.269531 421.261719 C 423.269531 433.019531 416.890625 438.902344 404.128906 438.902344 C 391.371094 438.902344 384.992188 433.019531 384.992188 421.261719 L 384.992188 398.699219 L 399.03125 398.699219 L 399.03125 422.339844 C 399.03125 424.339844 399.457031 425.851562 400.320312 426.871094 C 401.179688 427.890625 402.449219 428.402344 404.128906 428.402344 C 405.808594 428.402344 407.089844 427.890625 407.96875 426.871094 C 408.847656 425.851562 409.289062 424.339844 409.289062 422.339844 L 409.289062 398.699219 L 423.269531 398.699219 Z M 423.269531 421.261719 "/>
<path style=" stroke:none;fill-rule:nonzero;fill:rgb(100%,100%,100%);fill-opacity:1;" d="M 455.609375 399.480469 C 458.367188 400.402344 461.109375 402.042969 463.828125 404.398438 L 457.710938 413.101562 C 455.910156 411.421875 454.078125 410.210938 452.21875 409.46875 C 450.359375 408.730469 448.289062 408.359375 446.007812 408.359375 C 444.609375 408.359375 443.488281 408.570312 442.648438 408.992188 C 441.808594 409.410156 441.390625 409.960938 441.390625 410.640625 C 441.390625 411.082031 441.789062 411.421875 442.589844 411.660156 C 443.386719 411.898438 444.789062 412.203125 446.789062 412.558594 C 452.589844 413.601562 456.757812 415.171875 459.300781 417.269531 C 461.839844 419.371094 463.109375 422.320312 463.109375 426.121094 C 463.109375 428.839844 462.328125 431.160156 460.769531 433.082031 C 459.210938 435 457.089844 436.453125 454.410156 437.429688 C 451.730469 438.410156 448.730469 438.898438 445.410156 438.898438 C 440.730469 438.898438 436.988281 438.460938 434.1875 437.582031 C 431.386719 436.703125 428.648438 435.28125 425.96875 433.320312 L 431.96875 423.839844 C 433.648438 425.480469 435.488281 426.691406 437.488281 427.46875 C 439.488281 428.25 441.789062 428.640625 444.390625 428.640625 C 447.308594 428.640625 448.769531 428.042969 448.769531 426.839844 C 448.769531 426.203125 448.308594 425.722656 447.390625 425.398438 C 446.46875 425.082031 444.96875 424.742188 442.890625 424.378906 C 439.847656 423.820312 437.257812 423.179688 435.117188 422.460938 C 432.980469 421.742188 431.097656 420.519531 429.480469 418.800781 C 427.859375 417.082031 427.050781 414.71875 427.050781 411.71875 C 427.050781 409 427.769531 406.621094 429.210938 404.582031 C 430.648438 402.542969 432.757812 400.953125 435.539062 399.808594 C 438.320312 398.671875 441.667969 398.101562 445.589844 398.101562 C 449.507812 398.101562 452.847656 398.5625 455.609375 399.480469 "/>
<path style=" stroke:none;fill-rule:nonzero;fill:rgb(100%,100%,100%);fill-opacity:1;" d="M 151.761719 443.410156 L 151.761719 444.332031 L 154.300781 444.332031 L 154.300781 446.039062 L 151.761719 446.039062 L 151.761719 448.300781 L 149.429688 448.300781 L 149.429688 441.699219 L 154.902344 441.699219 L 154.902344 443.410156 Z M 151.761719 443.410156 "/>
<path style=" stroke:none;fill-rule:nonzero;fill:rgb(100%,100%,100%);fill-opacity:1;" d="M 161.171875 446.589844 L 161.171875 448.300781 L 155.570312 448.300781 L 155.570312 441.699219 L 161.050781 441.699219 L 161.050781 443.410156 L 157.902344 443.410156 L 157.902344 444.230469 L 160.441406 444.230469 L 160.441406 445.808594 L 157.902344 445.808594 L 157.902344 446.589844 Z M 161.171875 446.589844 "/>
<path style=" stroke:none;fill-rule:nonzero;fill:rgb(100%,100%,100%);fill-opacity:1;" d="M 167.152344 446.589844 L 167.152344 448.300781 L 161.832031 448.300781 L 161.832031 441.699219 L 164.160156 441.699219 L 164.160156 446.589844 Z M 167.152344 446.589844 "/>
<path style=" stroke:none;fill-rule:nonzero;fill:rgb(100%,100%,100%);fill-opacity:1;" d="M 171.640625 446.261719 C 171.792969 446.007812 171.871094 445.585938 171.871094 445 C 171.871094 444.414062 171.792969 443.992188 171.640625 443.742188 C 171.488281 443.488281 171.203125 443.359375 170.789062 443.359375 L 170.210938 443.359375 L 170.210938 446.640625 L 170.789062 446.640625 C 171.203125 446.640625 171.488281 446.515625 171.640625 446.261719 M 173.457031 442.554688 C 173.984375 443.125 174.25 443.941406 174.25 445 C 174.25 446.058594 173.984375 446.875 173.457031 447.445312 C 172.925781 448.015625 172.148438 448.300781 171.121094 448.300781 L 167.878906 448.300781 L 167.878906 441.699219 L 171.121094 441.699219 C 172.148438 441.699219 172.925781 441.984375 173.457031 442.554688 "/>
<path style=" stroke:none;fill-rule:nonzero;fill:rgb(100%,100%,100%);fill-opacity:1;" d="M 183.519531 448.300781 L 181.492188 448.300781 L 181.492188 446.011719 L 181.519531 443.789062 L 181.492188 443.789062 L 180.210938 448.300781 L 178.351562 448.300781 L 177.089844 443.789062 L 177.050781 443.789062 L 177.082031 446.011719 L 177.082031 448.300781 L 175.039062 448.300781 L 175.039062 441.699219 L 178.300781 441.699219 L 179.0625 444.628906 L 179.351562 445.859375 L 179.371094 445.859375 L 179.660156 444.628906 L 180.421875 441.699219 L 183.519531 441.699219 Z M 183.519531 448.300781 "/>
<path style=" stroke:none;fill-rule:nonzero;fill:rgb(100%,100%,100%);fill-opacity:1;" d="M 187.992188 445.589844 L 187.460938 443.390625 L 187.429688 443.390625 L 187.171875 444.511719 L 186.902344 445.589844 Z M 188.332031 447.039062 L 186.550781 447.039062 L 186.242188 448.300781 L 183.921875 448.300781 L 186.0625 441.699219 L 188.859375 441.699219 L 191.011719 448.300781 L 188.632812 448.300781 Z M 188.332031 447.039062 "/>
<path style=" stroke:none;fill-rule:nonzero;fill:rgb(100%,100%,100%);fill-opacity:1;" d="M 197.871094 448.300781 L 195.351562 448.300781 L 193.769531 445.300781 L 193.410156 444.492188 L 193.390625 444.492188 L 193.429688 445.851562 L 193.429688 448.300781 L 191.410156 448.300781 L 191.410156 441.699219 L 193.929688 441.699219 L 195.511719 444.710938 L 195.871094 445.511719 L 195.890625 445.511719 L 195.851562 444.152344 L 195.851562 441.699219 L 197.871094 441.699219 Z M 197.871094 448.300781 "/>
<path style=" stroke:none;fill-rule:nonzero;fill:rgb(100%,100%,100%);fill-opacity:1;" d="M 211.148438 444.582031 L 211.980469 444.582031 C 212.273438 444.582031 212.480469 444.535156 212.605469 444.445312 C 212.730469 444.355469 212.789062 444.195312 212.789062 443.972656 C 212.789062 443.75 212.730469 443.59375 212.605469 443.5 C 212.480469 443.40625 212.273438 443.359375 211.980469 443.359375 L 211.148438 443.359375 Z M 211.789062 446.109375 L 211.148438 446.109375 L 211.148438 448.300781 L 208.871094 448.300781 L 208.871094 441.699219 L 212.449219 441.699219 C 213.332031 441.699219 213.996094 441.886719 214.445312 442.253906 C 214.894531 442.625 215.121094 443.179688 215.121094 443.910156 C 215.121094 444.878906 214.722656 445.527344 213.929688 445.859375 L 215.488281 448.300781 L 212.960938 448.300781 Z M 211.789062 446.109375 "/>
<path style=" stroke:none;fill-rule:nonzero;fill:rgb(100%,100%,100%);fill-opacity:1;" d="M 221.519531 446.589844 L 221.519531 448.300781 L 215.921875 448.300781 L 215.921875 441.699219 L 221.398438 441.699219 L 221.398438 443.410156 L 218.25 443.410156 L 218.25 444.230469 L 220.789062 444.230469 L 220.789062 445.808594 L 218.25 445.808594 L 218.25 446.589844 Z M 221.519531 446.589844 "/>
<path style=" stroke:none;fill-rule:nonzero;fill:rgb(100%,100%,100%);fill-opacity:1;" d="M 225.332031 448.398438 C 224.636719 448.398438 224.039062 448.265625 223.535156 448 C 223.03125 447.734375 222.644531 447.34375 222.375 446.835938 C 222.105469 446.324219 221.96875 445.714844 221.96875 445 C 221.96875 444.285156 222.105469 443.675781 222.375 443.167969 C 222.644531 442.65625 223.03125 442.265625 223.535156 442 C 224.039062 441.734375 224.636719 441.601562 225.332031 441.601562 C 226.101562 441.601562 226.765625 441.765625 227.308594 442.09375 C 227.855469 442.425781 228.199219 442.925781 228.332031 443.601562 L 226.332031 444.378906 C 226.277344 443.972656 226.179688 443.699219 226.039062 443.558594 C 225.898438 443.421875 225.683594 443.351562 225.390625 443.351562 C 225.042969 443.351562 224.785156 443.484375 224.609375 443.75 C 224.4375 444.015625 224.351562 444.433594 224.351562 445 C 224.351562 445.566406 224.433594 445.984375 224.601562 446.25 C 224.765625 446.515625 225.023438 446.648438 225.371094 446.648438 C 225.683594 446.648438 225.910156 446.582031 226.050781 446.441406 C 226.191406 446.300781 226.28125 446.070312 226.320312 445.75 L 228.378906 446.28125 C 228.039062 447.695312 227.023438 448.398438 225.332031 448.398438 "/>
<path style=" stroke:none;fill-rule:nonzero;fill:rgb(100%,100%,100%);fill-opacity:1;" d="M 235.421875 441.699219 L 235.421875 448.300781 L 233.089844 448.300781 L 233.089844 445.839844 L 231.28125 445.839844 L 231.28125 448.300781 L 228.949219 448.300781 L 228.949219 441.699219 L 231.28125 441.699219 L 231.28125 444.132812 L 233.089844 444.132812 L 233.089844 441.699219 Z M 235.421875 441.699219 "/>
<path style=" stroke:none;fill-rule:nonzero;fill:rgb(100%,100%,100%);fill-opacity:1;" d="M 242.878906 448.300781 L 240.359375 448.300781 L 238.78125 445.300781 L 238.421875 444.492188 L 238.398438 444.492188 L 238.441406 445.851562 L 238.441406 448.300781 L 236.421875 448.300781 L 236.421875 441.699219 L 238.941406 441.699219 L 240.519531 444.710938 L 240.878906 445.511719 L 240.898438 445.511719 L 240.859375 444.152344 L 240.859375 441.699219 L 242.878906 441.699219 Z M 242.878906 448.300781 "/>
<path style=" stroke:none;fill-rule:nonzero;fill:rgb(100%,100%,100%);fill-opacity:1;" d="M 246.210938 448.300781 L 243.878906 448.300781 L 243.878906 441.699219 L 246.210938 441.699219 Z M 246.210938 448.300781 "/>
<path style=" stroke:none;fill-rule:nonzero;fill:rgb(100%,100%,100%);fill-opacity:1;" d="M 253.371094 443.410156 L 251.308594 443.410156 L 251.308594 448.300781 L 248.980469 448.300781 L 248.980469 443.410156 L 246.910156 443.410156 L 246.910156 441.699219 L 253.371094 441.699219 Z M 253.371094 443.410156 "/>
<path style=" stroke:none;fill-rule:nonzero;fill:rgb(100%,100%,100%);fill-opacity:1;" d="M 259.789062 446.640625 L 259.789062 448.300781 L 253.820312 448.300781 L 253.820312 446.710938 L 257.167969 443.359375 L 253.859375 443.359375 L 253.859375 441.703125 L 259.679688 441.703125 L 259.679688 443.289062 L 256.351562 446.640625 Z M 259.789062 446.640625 "/>
<path style=" stroke:none;fill-rule:nonzero;fill:rgb(100%,100%,100%);fill-opacity:1;" d="M 266.039062 446.589844 L 266.039062 448.300781 L 260.441406 448.300781 L 260.441406 441.699219 L 265.921875 441.699219 L 265.921875 443.410156 L 262.769531 443.410156 L 262.769531 444.230469 L 265.3125 444.230469 L 265.3125 445.808594 L 262.769531 445.808594 L 262.769531 446.589844 Z M 266.039062 446.589844 "/>
<path style=" stroke:none;fill-rule:nonzero;fill:rgb(100%,100%,100%);fill-opacity:1;" d="M 268.980469 444.582031 L 269.808594 444.582031 C 270.101562 444.582031 270.3125 444.535156 270.433594 444.445312 C 270.558594 444.355469 270.621094 444.195312 270.621094 443.972656 C 270.621094 443.75 270.558594 443.59375 270.433594 443.5 C 270.3125 443.40625 270.101562 443.359375 269.808594 443.359375 L 268.980469 443.359375 Z M 269.621094 446.109375 L 268.980469 446.109375 L 268.980469 448.300781 L 266.699219 448.300781 L 266.699219 441.699219 L 270.28125 441.699219 C 271.160156 441.699219 271.824219 441.886719 272.273438 442.253906 C 272.726562 442.625 272.949219 443.179688 272.949219 443.910156 C 272.949219 444.878906 272.554688 445.527344 271.761719 445.859375 L 273.320312 448.300781 L 270.789062 448.300781 Z M 269.621094 446.109375 "/>
<path style=" stroke:none;fill-rule:nonzero;fill:rgb(100%,100%,100%);fill-opacity:1;" d="M 287.980469 446.011719 L 287.980469 448.300781 L 285.648438 448.300781 L 285.648438 446.011719 L 283.339844 441.699219 L 285.660156 441.699219 L 286.359375 443.210938 L 286.832031 444.410156 L 287.300781 443.210938 L 288 441.699219 L 290.289062 441.699219 Z M 287.980469 446.011719 "/>
<path style=" stroke:none;fill-rule:nonzero;fill:rgb(100%,100%,100%);fill-opacity:1;" d="M 296.480469 446.589844 L 296.480469 448.300781 L 290.878906 448.300781 L 290.878906 441.699219 L 296.359375 441.699219 L 296.359375 443.410156 L 293.210938 443.410156 L 293.210938 444.230469 L 295.75 444.230469 L 295.75 445.808594 L 293.210938 445.808594 L 293.210938 446.589844 Z M 296.480469 446.589844 "/>
<path style=" stroke:none;fill-rule:nonzero;fill:rgb(100%,100%,100%);fill-opacity:1;" d="M 300.609375 445.589844 L 300.082031 443.390625 L 300.050781 443.390625 L 299.789062 444.511719 L 299.519531 445.589844 Z M 300.949219 447.039062 L 299.171875 447.039062 L 298.859375 448.300781 L 296.539062 448.300781 L 298.679688 441.699219 L 301.480469 441.699219 L 303.632812 448.300781 L 301.25 448.300781 Z M 300.949219 447.039062 "/>
<path style=" stroke:none;fill-rule:nonzero;fill:rgb(100%,100%,100%);fill-opacity:1;" d="M 306.980469 444.582031 L 310.039062 444.582031 L 310.039062 448.300781 L 308.5 448.300781 L 308.417969 447.550781 C 308.082031 448.117188 307.484375 448.398438 306.628906 448.398438 C 306.050781 448.398438 305.527344 448.273438 305.066406 448.015625 C 304.601562 447.757812 304.234375 447.378906 303.964844 446.871094 C 303.695312 446.363281 303.558594 445.746094 303.558594 445.019531 C 303.558594 443.941406 303.863281 443.101562 304.464844 442.5 C 305.066406 441.898438 305.90625 441.601562 306.980469 441.601562 C 307.800781 441.601562 308.453125 441.742188 308.933594 442.019531 C 309.417969 442.300781 309.792969 442.765625 310.058594 443.410156 L 307.890625 444.191406 C 307.804688 443.628906 307.527344 443.351562 307.058594 443.351562 C 306.671875 443.351562 306.390625 443.480469 306.210938 443.746094 C 306.03125 444.007812 305.941406 444.429688 305.941406 445 C 305.941406 445.613281 306.039062 446.054688 306.230469 446.316406 C 306.421875 446.578125 306.726562 446.710938 307.140625 446.710938 C 307.433594 446.710938 307.664062 446.652344 307.835938 446.535156 C 308.003906 446.417969 308.089844 446.246094 308.089844 446.019531 L 308.089844 446.011719 L 306.980469 446.011719 Z M 306.980469 444.582031 "/>
<path style=" stroke:none;fill-rule:nonzero;fill:rgb(100%,100%,100%);fill-opacity:1;" d="M 316.589844 446.589844 L 316.589844 448.300781 L 310.988281 448.300781 L 310.988281 441.699219 L 316.46875 441.699219 L 316.46875 443.410156 L 313.320312 443.410156 L 313.320312 444.230469 L 315.859375 444.230469 L 315.859375 445.808594 L 313.320312 445.808594 L 313.320312 446.589844 Z M 316.589844 446.589844 "/>
<path style=" stroke:none;fill-rule:nonzero;fill:rgb(100%,100%,100%);fill-opacity:1;" d="M 319.53125 444.582031 L 320.359375 444.582031 C 320.652344 444.582031 320.859375 444.535156 320.984375 444.445312 C 321.109375 444.355469 321.171875 444.195312 321.171875 443.972656 C 321.171875 443.75 321.109375 443.59375 320.984375 443.5 C 320.859375 443.40625 320.652344 443.359375 320.359375 443.359375 L 319.53125 443.359375 Z M 320.171875 446.109375 L 319.53125 446.109375 L 319.53125 448.300781 L 317.25 448.300781 L 317.25 441.699219 L 320.828125 441.699219 C 321.710938 441.699219 322.375 441.886719 322.824219 442.253906 C 323.273438 442.625 323.5 443.179688 323.5 443.910156 C 323.5 444.878906 323.101562 445.527344 322.308594 445.859375 L 323.871094 448.300781 L 321.339844 448.300781 Z M 320.171875 446.109375 "/>
</g>
</svg>
