<?xml version="1.0" encoding="UTF-8" standalone="no"?>
<!-- Created with Inkscape (http://www.inkscape.org/) -->

<svg
   xmlns:ns0="http://www.iki.fi/pav/software/textext/"
   xmlns:dc="http://purl.org/dc/elements/1.1/"
   xmlns:cc="http://creativecommons.org/ns#"
   xmlns:rdf="http://www.w3.org/1999/02/22-rdf-syntax-ns#"
   xmlns:svg="http://www.w3.org/2000/svg"
   xmlns="http://www.w3.org/2000/svg"
   xmlns:xlink="http://www.w3.org/1999/xlink"
   xmlns:sodipodi="http://sodipodi.sourceforge.net/DTD/sodipodi-0.dtd"
   xmlns:inkscape="http://www.inkscape.org/namespaces/inkscape"
   width="74.146011mm"
   height="57.738632mm"
   viewBox="0 0 262.72209 204.5857"
   id="svg2"
   version="1.1"
   inkscape:version="0.91 r13725"
   sodipodi:docname="area_between3.svg">
  <sodipodi:namedview
     id="base"
     pagecolor="#ffffff"
     bordercolor="#666666"
     borderopacity="1.0"
     inkscape:pageopacity="0.0"
     inkscape:pageshadow="2"
     inkscape:zoom="2.0358216"
     inkscape:cx="62.565344"
     inkscape:cy="102.29286"
     inkscape:document-units="px"
     inkscape:current-layer="layer1"
     showgrid="true"
     inkscape:window-width="1680"
     inkscape:window-height="991"
     inkscape:window-x="0"
     inkscape:window-y="0"
     inkscape:window-maximized="1"
     inkscape:snap-bbox="true"
     inkscape:bbox-paths="true"
     inkscape:object-paths="true"
     inkscape:snap-intersection-paths="true"
     inkscape:object-nodes="true"
     inkscape:snap-smooth-nodes="true"
     fit-margin-top="0"
     fit-margin-left="0"
     fit-margin-right="0"
     fit-margin-bottom="0">
    <inkscape:grid
       empspacing="6"
       spacingy="6.0000001"
       spacingx="6"
       id="grid4136"
       type="xygrid"
       originx="-28.089985"
       originy="-349.32429" />
  </sodipodi:namedview>
  <defs
     id="defs4">
    <marker
       inkscape:stockid="Arrow1Mstart"
       orient="auto"
       refY="0"
       refX="0"
       id="marker24324"
       style="overflow:visible"
       inkscape:isstock="true">
      <path
         id="path24326"
         d="M 0,0 5,-5 -12.5,0 5,5 0,0 Z"
         style="fill:#ff0000;fill-opacity:1;fill-rule:evenodd;stroke:#ff0000;stroke-width:1pt;stroke-opacity:1"
         transform="matrix(0.4,0,0,0.4,4,0)"
         inkscape:connector-curvature="0" />
    </marker>
    <marker
       inkscape:stockid="Arrow1Mend"
       orient="auto"
       refY="0"
       refX="0"
       id="marker20453"
       style="overflow:visible"
       inkscape:isstock="true">
      <path
         id="path20455"
         d="M 0,0 5,-5 -12.5,0 5,5 0,0 Z"
         style="fill:#ff0000;fill-opacity:1;fill-rule:evenodd;stroke:#ff0000;stroke-width:1pt;stroke-opacity:1"
         transform="matrix(-0.4,0,0,-0.4,-4,0)"
         inkscape:connector-curvature="0" />
    </marker>
    <marker
       inkscape:isstock="true"
       style="overflow:visible"
       id="marker20443"
       refX="0"
       refY="0"
       orient="auto"
       inkscape:stockid="Arrow1Mstart"
       inkscape:collect="always">
      <path
         transform="matrix(0.4,0,0,0.4,4,0)"
         style="fill:#ff0000;fill-opacity:1;fill-rule:evenodd;stroke:#ff0000;stroke-width:1pt;stroke-opacity:1"
         d="M 0,0 5,-5 -12.5,0 5,5 0,0 Z"
         id="path20445"
         inkscape:connector-curvature="0" />
    </marker>
    <marker
       inkscape:stockid="Arrow1Mend"
       orient="auto"
       refY="0"
       refX="0"
       id="marker20369"
       style="overflow:visible"
       inkscape:isstock="true">
      <path
         id="path20371"
         d="M 0,0 5,-5 -12.5,0 5,5 0,0 Z"
         style="fill:#ff0000;fill-opacity:1;fill-rule:evenodd;stroke:#ff0000;stroke-width:1pt;stroke-opacity:1"
         transform="matrix(-0.4,0,0,-0.4,-4,0)"
         inkscape:connector-curvature="0" />
    </marker>
    <marker
       inkscape:isstock="true"
       style="overflow:visible"
       id="marker20359"
       refX="0"
       refY="0"
       orient="auto"
       inkscape:stockid="Arrow1Mstart">
      <path
         transform="matrix(0.4,0,0,0.4,4,0)"
         style="fill:#ff0000;fill-opacity:1;fill-rule:evenodd;stroke:#ff0000;stroke-width:1pt;stroke-opacity:1"
         d="M 0,0 5,-5 -12.5,0 5,5 0,0 Z"
         id="path20361"
         inkscape:connector-curvature="0" />
    </marker>
    <marker
       inkscape:isstock="true"
       style="overflow:visible"
       id="marker18103"
       refX="0"
       refY="0"
       orient="auto"
       inkscape:stockid="Arrow1Mend">
      <path
         transform="matrix(-0.4,0,0,-0.4,-4,0)"
         style="fill:#ff0000;fill-opacity:1;fill-rule:evenodd;stroke:#ff0000;stroke-width:1pt;stroke-opacity:1"
         d="M 0,0 5,-5 -12.5,0 5,5 0,0 Z"
         id="path18105"
         inkscape:connector-curvature="0" />
    </marker>
    <marker
       inkscape:stockid="Arrow1Mstart"
       orient="auto"
       refY="0"
       refX="0"
       id="marker18093"
       style="overflow:visible"
       inkscape:isstock="true">
      <path
         id="path18095"
         d="M 0,0 5,-5 -12.5,0 5,5 0,0 Z"
         style="fill:#ff0000;fill-opacity:1;fill-rule:evenodd;stroke:#ff0000;stroke-width:1pt;stroke-opacity:1"
         transform="matrix(0.4,0,0,0.4,4,0)"
         inkscape:connector-curvature="0" />
    </marker>
    <marker
       inkscape:isstock="true"
       style="overflow:visible"
       id="marker6617"
       refX="0"
       refY="0"
       orient="auto"
       inkscape:stockid="Arrow1Mend"
       inkscape:collect="always">
      <path
         transform="matrix(-0.4,0,0,-0.4,-4,0)"
         style="fill:#ff0000;fill-opacity:1;fill-rule:evenodd;stroke:#ff0000;stroke-width:1pt;stroke-opacity:1"
         d="M 0,0 5,-5 -12.5,0 5,5 0,0 Z"
         id="path6619"
         inkscape:connector-curvature="0" />
    </marker>
    <marker
       inkscape:stockid="DotM"
       orient="auto"
       refY="0"
       refX="0"
       id="marker4853"
       style="overflow:visible"
       inkscape:isstock="true">
      <path
         id="path4855"
         d="m -2.5,-1 c 0,2.76 -2.24,5 -5,5 -2.76,0 -5,-2.24 -5,-5 0,-2.76 2.24,-5 5,-5 2.76,0 5,2.24 5,5 z"
         style="fill:#ff0000;fill-opacity:1;fill-rule:evenodd;stroke:#ff0000;stroke-width:1pt;stroke-opacity:1"
         transform="matrix(0.4,0,0,0.4,2.96,0.4)"
         inkscape:connector-curvature="0" />
    </marker>
    <marker
       inkscape:isstock="true"
       style="overflow:visible"
       id="marker19495"
       refX="0"
       refY="0"
       orient="auto"
       inkscape:stockid="Arrow1Mend">
      <path
         transform="matrix(-0.4,0,0,-0.4,-4,0)"
         style="fill:#ff0000;fill-opacity:1;fill-rule:evenodd;stroke:#ff0000;stroke-width:1pt;stroke-opacity:1"
         d="M 0,0 5,-5 -12.5,0 5,5 0,0 Z"
         id="path19497"
         inkscape:connector-curvature="0" />
    </marker>
    <marker
       inkscape:isstock="true"
       style="overflow:visible"
       id="marker19485"
       refX="0"
       refY="0"
       orient="auto"
       inkscape:stockid="DotM">
      <path
         transform="matrix(0.4,0,0,0.4,2.96,0.4)"
         style="fill:#ff0000;fill-opacity:1;fill-rule:evenodd;stroke:#ff0000;stroke-width:1pt;stroke-opacity:1"
         d="m -2.5,-1 c 0,2.76 -2.24,5 -5,5 -2.76,0 -5,-2.24 -5,-5 0,-2.76 2.24,-5 5,-5 2.76,0 5,2.24 5,5 z"
         id="path19487"
         inkscape:connector-curvature="0" />
    </marker>
    <marker
       inkscape:isstock="true"
       style="overflow:visible"
       id="marker12663"
       refX="0"
       refY="0"
       orient="auto"
       inkscape:stockid="Arrow1Mend">
      <path
         transform="matrix(-0.4,0,0,-0.4,-4,0)"
         style="fill:#ff0000;fill-opacity:1;fill-rule:evenodd;stroke:#ff0000;stroke-width:1pt;stroke-opacity:1"
         d="M 0,0 5,-5 -12.5,0 5,5 0,0 Z"
         id="path12665"
         inkscape:connector-curvature="0" />
    </marker>
    <marker
       inkscape:isstock="true"
       style="overflow:visible"
       id="marker12653"
       refX="0"
       refY="0"
       orient="auto"
       inkscape:stockid="DotM">
      <path
         transform="matrix(0.4,0,0,0.4,2.96,0.4)"
         style="fill:#ff0000;fill-opacity:1;fill-rule:evenodd;stroke:#ff0000;stroke-width:1pt;stroke-opacity:1"
         d="m -2.5,-1 c 0,2.76 -2.24,5 -5,5 -2.76,0 -5,-2.24 -5,-5 0,-2.76 2.24,-5 5,-5 2.76,0 5,2.24 5,5 z"
         id="path12655"
         inkscape:connector-curvature="0" />
    </marker>
    <marker
       inkscape:stockid="Arrow1Mend"
       orient="auto"
       refY="0"
       refX="0"
       id="marker9486"
       style="overflow:visible"
       inkscape:isstock="true">
      <path
         id="path9488"
         d="M 0,0 5,-5 -12.5,0 5,5 0,0 Z"
         style="fill:#ff0000;fill-opacity:1;fill-rule:evenodd;stroke:#ff0000;stroke-width:1pt;stroke-opacity:1"
         transform="matrix(-0.4,0,0,-0.4,-4,0)"
         inkscape:connector-curvature="0" />
    </marker>
    <marker
       inkscape:stockid="DotM"
       orient="auto"
       refY="0"
       refX="0"
       id="marker9476"
       style="overflow:visible"
       inkscape:isstock="true">
      <path
         id="path9478"
         d="m -2.5,-1 c 0,2.76 -2.24,5 -5,5 -2.76,0 -5,-2.24 -5,-5 0,-2.76 2.24,-5 5,-5 2.76,0 5,2.24 5,5 z"
         style="fill:#ff0000;fill-opacity:1;fill-rule:evenodd;stroke:#ff0000;stroke-width:1pt;stroke-opacity:1"
         transform="matrix(0.4,0,0,0.4,2.96,0.4)"
         inkscape:connector-curvature="0" />
    </marker>
  </defs>
  <metadata
     id="metadata7">
    <rdf:RDF>
      <cc:Work
         rdf:about="">
        <dc:format>image/svg+xml</dc:format>
        <dc:type
           rdf:resource="http://purl.org/dc/dcmitype/StillImage" />
        <dc:title />
      </cc:Work>
    </rdf:RDF>
  </metadata>
  <g
     id="layer1"
     inkscape:groupmode="layer"
     inkscape:label="Layer 1"
     transform="translate(-28.089986,-498.4522)">
    <path
       sodipodi:nodetypes="cc"
       inkscape:connector-curvature="0"
       id="path4138"
       d="m 144,698.36221 0,-198"
       style="fill:none;fill-rule:evenodd;stroke:#ff0000;stroke-width:1px;stroke-linecap:butt;stroke-linejoin:miter;stroke-opacity:1;marker-start:url(#marker20443);marker-end:url(#marker18103)" />
    <path
       style="fill:none;fill-rule:evenodd;stroke:#ff0000;stroke-width:1px;stroke-linecap:butt;stroke-linejoin:miter;stroke-opacity:1;marker-start:url(#marker24324);marker-end:url(#marker6617)"
       d="m 30,620.36221 228,0"
       id="path6509"
       inkscape:connector-curvature="0"
       sodipodi:nodetypes="cc" />
    <path
       style="fill:#0000ff;fill-rule:evenodd;stroke:none;stroke-width:1px;stroke-linecap:butt;stroke-linejoin:miter;stroke-opacity:1"
       d="m 198,593.36218 0,-54 c -14.70284,-11.16021 -24.60262,-25.46725 -54,-27 -26.02527,0.97473 -39.46389,14.53611 -54.000001,27 l 0,108"
       id="path8666"
       inkscape:connector-curvature="0"
       sodipodi:nodetypes="ccccc" />
    <path
       sodipodi:nodetypes="cc"
       inkscape:connector-curvature="0"
       id="path7653"
       d="m 36,674.36218 216,-108"
       style="fill:none;fill-rule:evenodd;stroke:#000000;stroke-width:2;stroke-linecap:butt;stroke-linejoin:miter;stroke-miterlimit:4;stroke-dasharray:none;stroke-opacity:1" />
    <path
       sodipodi:nodetypes="cc"
       inkscape:connector-curvature="0"
       id="path7655"
       d="m 89.999999,512.36218 0,180.00003"
       style="fill:none;fill-rule:evenodd;stroke:#000000;stroke-width:2;stroke-linecap:butt;stroke-linejoin:miter;stroke-miterlimit:4;stroke-dasharray:none;stroke-opacity:1" />
    <path
       sodipodi:nodetypes="cc"
       inkscape:connector-curvature="0"
       id="path7657"
       d="m 198,512.36218 0,180.00003"
       style="fill:none;fill-rule:evenodd;stroke:#000000;stroke-width:2;stroke-linecap:butt;stroke-linejoin:miter;stroke-miterlimit:4;stroke-dasharray:none;stroke-opacity:1" />
    <g
       transform="matrix(1.5,0,0,1.5,-79.998414,365.67035)"
       ns0:text="$y=x$"
       ns0:preamble="/home/andrew/.config/inkscape/extensions/header.txt"
       id="g9304">
      <defs
         id="defs9306">
        <g
           id="g9308">
          <symbol
             style="overflow:visible"
             overflow="visible"
             id="textext-7e8d40ac-0">
            <path
               inkscape:connector-curvature="0"
               style="stroke:none"
               d=""
               id="path9311" />
          </symbol>
          <symbol
             style="overflow:visible"
             overflow="visible"
             id="textext-7e8d40ac-1">
            <path
               inkscape:connector-curvature="0"
               style="stroke:none"
               d="m 4.84375,-3.796875 c 0.046875,-0.140625 0.046875,-0.15625 0.046875,-0.234375 0,-0.171875 -0.140625,-0.265625 -0.296875,-0.265625 -0.09375,0 -0.25,0.0625 -0.34375,0.203125 -0.015625,0.0625 -0.109375,0.359375 -0.140625,0.546875 -0.078125,0.25 -0.140625,0.53125 -0.203125,0.796875 l -0.453125,1.796875 c -0.03125,0.140625 -0.46875,0.84375 -1.125,0.84375 -0.5,0 -0.609375,-0.4375 -0.609375,-0.8125 C 1.71875,-1.375 1.890625,-2 2.21875,-2.875 2.375,-3.28125 2.421875,-3.390625 2.421875,-3.59375 c 0,-0.4375 -0.3125,-0.8125 -0.8125,-0.8125 -0.953125,0 -1.3125,1.453125 -1.3125,1.53125 0,0.109375 0.09375,0.109375 0.109375,0.109375 0.109375,0 0.109375,-0.03125 0.15625,-0.1875 0.28125,-0.9375 0.671875,-1.234375 1.015625,-1.234375 0.078125,0 0.25,0 0.25,0.3125 0,0.25 -0.109375,0.515625 -0.171875,0.703125 -0.40625,1.0625 -0.578125,1.625 -0.578125,2.09375 0,0.890625 0.625,1.1875 1.21875,1.1875 0.390625,0 0.71875,-0.171875 1,-0.453125 -0.125,0.515625 -0.25,1.015625 -0.640625,1.546875 -0.265625,0.328125 -0.640625,0.625 -1.09375,0.625 -0.140625,0 -0.59375,-0.03125 -0.765625,-0.421875 0.15625,0 0.296875,0 0.421875,-0.125 C 1.328125,1.203125 1.421875,1.0625 1.421875,0.875 1.421875,0.5625 1.15625,0.53125 1.0625,0.53125 0.828125,0.53125 0.5,0.6875 0.5,1.171875 c 0,0.5 0.4375,0.875 1.0625,0.875 1.015625,0 2.046875,-0.90625 2.328125,-2.03125 z m 0,0"
               id="path9314" />
          </symbol>
          <symbol
             style="overflow:visible"
             overflow="visible"
             id="textext-7e8d40ac-2">
            <path
               inkscape:connector-curvature="0"
               style="stroke:none"
               d="M 3.328125,-3.015625 C 3.390625,-3.265625 3.625,-4.1875 4.3125,-4.1875 c 0.046875,0 0.296875,0 0.5,0.125 C 4.53125,-4 4.34375,-3.765625 4.34375,-3.515625 c 0,0.15625 0.109375,0.34375 0.375,0.34375 0.21875,0 0.53125,-0.171875 0.53125,-0.578125 0,-0.515625 -0.578125,-0.65625 -0.921875,-0.65625 -0.578125,0 -0.921875,0.53125 -1.046875,0.75 -0.25,-0.65625 -0.78125,-0.75 -1.078125,-0.75 -1.03125,0 -1.609375,1.28125 -1.609375,1.53125 0,0.109375 0.109375,0.109375 0.125,0.109375 0.078125,0 0.109375,-0.03125 0.125,-0.109375 0.34375,-1.0625 1,-1.3125 1.34375,-1.3125 0.1875,0 0.53125,0.09375 0.53125,0.671875 0,0.3125 -0.171875,0.96875 -0.53125,2.375 -0.15625,0.609375 -0.515625,1.03125 -0.953125,1.03125 -0.0625,0 -0.28125,0 -0.5,-0.125 0.25,-0.0625 0.46875,-0.265625 0.46875,-0.546875 0,-0.265625 -0.21875,-0.34375 -0.359375,-0.34375 -0.3125,0 -0.546875,0.25 -0.546875,0.578125 0,0.453125 0.484375,0.65625 0.921875,0.65625 0.671875,0 1.03125,-0.703125 1.046875,-0.75 0.125,0.359375 0.484375,0.75 1.078125,0.75 1.03125,0 1.59375,-1.28125 1.59375,-1.53125 0,-0.109375 -0.078125,-0.109375 -0.109375,-0.109375 -0.09375,0 -0.109375,0.046875 -0.140625,0.109375 -0.328125,1.078125 -1,1.3125 -1.3125,1.3125 -0.390625,0 -0.546875,-0.3125 -0.546875,-0.65625 0,-0.21875 0.046875,-0.4375 0.15625,-0.875 z m 0,0"
               id="path9317" />
          </symbol>
          <symbol
             style="overflow:visible"
             overflow="visible"
             id="textext-7e8d40ac-3">
            <path
               inkscape:connector-curvature="0"
               style="stroke:none"
               d=""
               id="path9320" />
          </symbol>
          <symbol
             style="overflow:visible"
             overflow="visible"
             id="textext-7e8d40ac-4">
            <path
               inkscape:connector-curvature="0"
               style="stroke:none"
               d="m 6.84375,-3.265625 c 0.15625,0 0.34375,0 0.34375,-0.1875 C 7.1875,-3.65625 7,-3.65625 6.859375,-3.65625 l -5.96875,0 c -0.140625,0 -0.328125,0 -0.328125,0.203125 0,0.1875 0.1875,0.1875 0.328125,0.1875 z m 0.015625,1.9375 c 0.140625,0 0.328125,0 0.328125,-0.203125 0,-0.1875 -0.1875,-0.1875 -0.34375,-0.1875 l -5.953125,0 c -0.140625,0 -0.328125,0 -0.328125,0.1875 0,0.203125 0.1875,0.203125 0.328125,0.203125 z m 0,0"
               id="path9323" />
          </symbol>
        </g>
      </defs>
      <g
         id="textext-7e8d40ac-5">
        <g
           style="fill:#000000;fill-opacity:1"
           id="g9326">
          <use
             height="100%"
             width="100%"
             xlink:href="#textext-7e8d40ac-1"
             x="223.43201"
             y="134.765"
             id="use9328" />
        </g>
        <g
           style="fill:#000000;fill-opacity:1"
           id="g9330">
          <use
             height="100%"
             width="100%"
             xlink:href="#textext-7e8d40ac-4"
             x="231.44099"
             y="134.765"
             id="use9332" />
        </g>
        <g
           style="fill:#000000;fill-opacity:1"
           id="g9334">
          <use
             height="100%"
             width="100%"
             xlink:href="#textext-7e8d40ac-2"
             x="241.957"
             y="134.765"
             id="use9336" />
        </g>
      </g>
    </g>
    <g
       id="g10424"
       transform="matrix(1.5,0,0,1.5,-122.10272,341.60907)"
       ns0:preamble="/home/andrew/.config/inkscape/extensions/header.txt"
       ns0:text="$y=4-x^2$">
      <defs
         id="defs10426">
        <g
           id="g10428">
          <symbol
             id="textext-432db976-0"
             overflow="visible"
             style="overflow:visible">
            <path
               id="path10431"
               d=""
               style="stroke:none"
               inkscape:connector-curvature="0" />
          </symbol>
          <symbol
             id="textext-432db976-1"
             overflow="visible"
             style="overflow:visible">
            <path
               id="path10434"
               d="m 4.84375,-3.796875 c 0.046875,-0.140625 0.046875,-0.15625 0.046875,-0.234375 0,-0.171875 -0.140625,-0.265625 -0.296875,-0.265625 -0.09375,0 -0.25,0.0625 -0.34375,0.203125 -0.015625,0.0625 -0.109375,0.359375 -0.140625,0.546875 -0.078125,0.25 -0.140625,0.53125 -0.203125,0.796875 l -0.453125,1.796875 c -0.03125,0.140625 -0.46875,0.84375 -1.125,0.84375 -0.5,0 -0.609375,-0.4375 -0.609375,-0.8125 C 1.71875,-1.375 1.890625,-2 2.21875,-2.875 2.375,-3.28125 2.421875,-3.390625 2.421875,-3.59375 c 0,-0.4375 -0.3125,-0.8125 -0.8125,-0.8125 -0.953125,0 -1.3125,1.453125 -1.3125,1.53125 0,0.109375 0.09375,0.109375 0.109375,0.109375 0.109375,0 0.109375,-0.03125 0.15625,-0.1875 0.28125,-0.9375 0.671875,-1.234375 1.015625,-1.234375 0.078125,0 0.25,0 0.25,0.3125 0,0.25 -0.109375,0.515625 -0.171875,0.703125 -0.40625,1.0625 -0.578125,1.625 -0.578125,2.09375 0,0.890625 0.625,1.1875 1.21875,1.1875 0.390625,0 0.71875,-0.171875 1,-0.453125 -0.125,0.515625 -0.25,1.015625 -0.640625,1.546875 -0.265625,0.328125 -0.640625,0.625 -1.09375,0.625 -0.140625,0 -0.59375,-0.03125 -0.765625,-0.421875 0.15625,0 0.296875,0 0.421875,-0.125 C 1.328125,1.203125 1.421875,1.0625 1.421875,0.875 1.421875,0.5625 1.15625,0.53125 1.0625,0.53125 0.828125,0.53125 0.5,0.6875 0.5,1.171875 c 0,0.5 0.4375,0.875 1.0625,0.875 1.015625,0 2.046875,-0.90625 2.328125,-2.03125 z m 0,0"
               style="stroke:none"
               inkscape:connector-curvature="0" />
          </symbol>
          <symbol
             id="textext-432db976-2"
             overflow="visible"
             style="overflow:visible">
            <path
               id="path10437"
               d="M 3.328125,-3.015625 C 3.390625,-3.265625 3.625,-4.1875 4.3125,-4.1875 c 0.046875,0 0.296875,0 0.5,0.125 C 4.53125,-4 4.34375,-3.765625 4.34375,-3.515625 c 0,0.15625 0.109375,0.34375 0.375,0.34375 0.21875,0 0.53125,-0.171875 0.53125,-0.578125 0,-0.515625 -0.578125,-0.65625 -0.921875,-0.65625 -0.578125,0 -0.921875,0.53125 -1.046875,0.75 -0.25,-0.65625 -0.78125,-0.75 -1.078125,-0.75 -1.03125,0 -1.609375,1.28125 -1.609375,1.53125 0,0.109375 0.109375,0.109375 0.125,0.109375 0.078125,0 0.109375,-0.03125 0.125,-0.109375 0.34375,-1.0625 1,-1.3125 1.34375,-1.3125 0.1875,0 0.53125,0.09375 0.53125,0.671875 0,0.3125 -0.171875,0.96875 -0.53125,2.375 -0.15625,0.609375 -0.515625,1.03125 -0.953125,1.03125 -0.0625,0 -0.28125,0 -0.5,-0.125 0.25,-0.0625 0.46875,-0.265625 0.46875,-0.546875 0,-0.265625 -0.21875,-0.34375 -0.359375,-0.34375 -0.3125,0 -0.546875,0.25 -0.546875,0.578125 0,0.453125 0.484375,0.65625 0.921875,0.65625 0.671875,0 1.03125,-0.703125 1.046875,-0.75 0.125,0.359375 0.484375,0.75 1.078125,0.75 1.03125,0 1.59375,-1.28125 1.59375,-1.53125 0,-0.109375 -0.078125,-0.109375 -0.109375,-0.109375 -0.09375,0 -0.109375,0.046875 -0.140625,0.109375 -0.328125,1.078125 -1,1.3125 -1.3125,1.3125 -0.390625,0 -0.546875,-0.3125 -0.546875,-0.65625 0,-0.21875 0.046875,-0.4375 0.15625,-0.875 z m 0,0"
               style="stroke:none"
               inkscape:connector-curvature="0" />
          </symbol>
          <symbol
             id="textext-432db976-3"
             overflow="visible"
             style="overflow:visible">
            <path
               id="path10440"
               d=""
               style="stroke:none"
               inkscape:connector-curvature="0" />
          </symbol>
          <symbol
             id="textext-432db976-4"
             overflow="visible"
             style="overflow:visible">
            <path
               id="path10443"
               d="m 6.84375,-3.265625 c 0.15625,0 0.34375,0 0.34375,-0.1875 C 7.1875,-3.65625 7,-3.65625 6.859375,-3.65625 l -5.96875,0 c -0.140625,0 -0.328125,0 -0.328125,0.203125 0,0.1875 0.1875,0.1875 0.328125,0.1875 z m 0.015625,1.9375 c 0.140625,0 0.328125,0 0.328125,-0.203125 0,-0.1875 -0.1875,-0.1875 -0.34375,-0.1875 l -5.953125,0 c -0.140625,0 -0.328125,0 -0.328125,0.1875 0,0.203125 0.1875,0.203125 0.328125,0.203125 z m 0,0"
               style="stroke:none"
               inkscape:connector-curvature="0" />
          </symbol>
          <symbol
             id="textext-432db976-5"
             overflow="visible"
             style="overflow:visible">
            <path
               id="path10446"
               d="m 2.9375,-1.640625 0,0.859375 c 0,0.359375 -0.03125,0.46875 -0.765625,0.46875 l -0.203125,0 0,0.3125 C 2.375,-0.03125 2.890625,-0.03125 3.3125,-0.03125 c 0.421875,0 0.9375,0 1.359375,0.03125 l 0,-0.3125 -0.21875,0 c -0.734375,0 -0.75,-0.109375 -0.75,-0.46875 l 0,-0.859375 0.984375,0 0,-0.3125 -0.984375,0 0,-4.53125 c 0,-0.203125 0,-0.265625 -0.171875,-0.265625 -0.078125,0 -0.109375,0 -0.1875,0.125 l -3.0625,4.671875 0,0.3125 z m 0.046875,-0.3125 -2.421875,0 2.421875,-3.71875 z m 0,0"
               style="stroke:none"
               inkscape:connector-curvature="0" />
          </symbol>
          <symbol
             id="textext-432db976-6"
             overflow="visible"
             style="overflow:visible">
            <path
               id="path10449"
               d=""
               style="stroke:none"
               inkscape:connector-curvature="0" />
          </symbol>
          <symbol
             id="textext-432db976-7"
             overflow="visible"
             style="overflow:visible">
            <path
               id="path10452"
               d="m 6.5625,-2.296875 c 0.171875,0 0.359375,0 0.359375,-0.203125 0,-0.1875 -0.1875,-0.1875 -0.359375,-0.1875 l -5.390625,0 c -0.171875,0 -0.34375,0 -0.34375,0.1875 0,0.203125 0.171875,0.203125 0.34375,0.203125 z m 0,0"
               style="stroke:none"
               inkscape:connector-curvature="0" />
          </symbol>
          <symbol
             id="textext-432db976-8"
             overflow="visible"
             style="overflow:visible">
            <path
               id="path10455"
               d=""
               style="stroke:none"
               inkscape:connector-curvature="0" />
          </symbol>
          <symbol
             id="textext-432db976-9"
             overflow="visible"
             style="overflow:visible">
            <path
               id="path10458"
               d="m 3.515625,-1.265625 -0.234375,0 c -0.015625,0.15625 -0.09375,0.5625 -0.1875,0.625 -0.046875,0.046875 -0.578125,0.046875 -0.6875,0.046875 l -1.28125,0 c 0.734375,-0.640625 0.984375,-0.84375 1.390625,-1.171875 0.515625,-0.40625 1,-0.84375 1,-1.5 0,-0.84375 -0.734375,-1.359375 -1.625,-1.359375 -0.859375,0 -1.453125,0.609375 -1.453125,1.25 0,0.34375 0.296875,0.390625 0.375,0.390625 0.15625,0 0.359375,-0.125 0.359375,-0.375 0,-0.125 -0.046875,-0.375 -0.40625,-0.375 C 0.984375,-4.21875 1.453125,-4.375 1.78125,-4.375 c 0.703125,0 1.0625,0.546875 1.0625,1.109375 0,0.609375 -0.4375,1.078125 -0.65625,1.328125 L 0.515625,-0.265625 C 0.4375,-0.203125 0.4375,-0.1875 0.4375,0 l 2.875,0 z m 0,0"
               style="stroke:none"
               inkscape:connector-curvature="0" />
          </symbol>
        </g>
      </defs>
      <g
         id="textext-432db976-10">
        <g
           id="g10461"
           style="fill:#000000;fill-opacity:1">
          <use
             id="use10463"
             y="134.765"
             x="223.43201"
             xlink:href="#textext-432db976-1"
             width="100%"
             height="100%" />
        </g>
        <g
           id="g10465"
           style="fill:#000000;fill-opacity:1">
          <use
             id="use10467"
             y="134.765"
             x="231.44099"
             xlink:href="#textext-432db976-4"
             width="100%"
             height="100%" />
        </g>
        <g
           id="g10469"
           style="fill:#000000;fill-opacity:1">
          <use
             id="use10471"
             y="134.765"
             x="241.95952"
             xlink:href="#textext-432db976-5"
             width="100%"
             height="100%" />
        </g>
        <g
           id="g10473"
           style="fill:#000000;fill-opacity:1">
          <use
             id="use10475"
             y="134.765"
             x="249.153"
             xlink:href="#textext-432db976-7"
             width="100%"
             height="100%" />
        </g>
        <g
           id="g10477"
           style="fill:#000000;fill-opacity:1">
          <use
             id="use10479"
             y="134.765"
             x="259.11499"
             xlink:href="#textext-432db976-2"
             width="100%"
             height="100%" />
        </g>
        <g
           id="g10481"
           style="fill:#000000;fill-opacity:1">
          <use
             id="use10483"
             y="131.149"
             x="264.80899"
             xlink:href="#textext-432db976-9"
             width="100%"
             height="100%" />
        </g>
      </g>
    </g>
    <g
       ns0:text="$x=1$"
       ns0:preamble="/home/andrew/.config/inkscape/extensions/header.txt"
       transform="matrix(1.5,0,0,1.5,-154.98951,500.67807)"
       id="g11643">
      <defs
         id="defs11645">
        <g
           id="g11647">
          <symbol
             overflow="visible"
             id="textext-39940687-0"
             style="overflow:visible">
            <path
               style="stroke:none"
               d=""
               id="path11650"
               inkscape:connector-curvature="0" />
          </symbol>
          <symbol
             overflow="visible"
             id="textext-39940687-1"
             style="overflow:visible">
            <path
               style="stroke:none"
               d="M 3.328125,-3.015625 C 3.390625,-3.265625 3.625,-4.1875 4.3125,-4.1875 c 0.046875,0 0.296875,0 0.5,0.125 C 4.53125,-4 4.34375,-3.765625 4.34375,-3.515625 c 0,0.15625 0.109375,0.34375 0.375,0.34375 0.21875,0 0.53125,-0.171875 0.53125,-0.578125 0,-0.515625 -0.578125,-0.65625 -0.921875,-0.65625 -0.578125,0 -0.921875,0.53125 -1.046875,0.75 -0.25,-0.65625 -0.78125,-0.75 -1.078125,-0.75 -1.03125,0 -1.609375,1.28125 -1.609375,1.53125 0,0.109375 0.109375,0.109375 0.125,0.109375 0.078125,0 0.109375,-0.03125 0.125,-0.109375 0.34375,-1.0625 1,-1.3125 1.34375,-1.3125 0.1875,0 0.53125,0.09375 0.53125,0.671875 0,0.3125 -0.171875,0.96875 -0.53125,2.375 -0.15625,0.609375 -0.515625,1.03125 -0.953125,1.03125 -0.0625,0 -0.28125,0 -0.5,-0.125 0.25,-0.0625 0.46875,-0.265625 0.46875,-0.546875 0,-0.265625 -0.21875,-0.34375 -0.359375,-0.34375 -0.3125,0 -0.546875,0.25 -0.546875,0.578125 0,0.453125 0.484375,0.65625 0.921875,0.65625 0.671875,0 1.03125,-0.703125 1.046875,-0.75 0.125,0.359375 0.484375,0.75 1.078125,0.75 1.03125,0 1.59375,-1.28125 1.59375,-1.53125 0,-0.109375 -0.078125,-0.109375 -0.109375,-0.109375 -0.09375,0 -0.109375,0.046875 -0.140625,0.109375 -0.328125,1.078125 -1,1.3125 -1.3125,1.3125 -0.390625,0 -0.546875,-0.3125 -0.546875,-0.65625 0,-0.21875 0.046875,-0.4375 0.15625,-0.875 z m 0,0"
               id="path11653"
               inkscape:connector-curvature="0" />
          </symbol>
          <symbol
             overflow="visible"
             id="textext-39940687-2"
             style="overflow:visible">
            <path
               style="stroke:none"
               d=""
               id="path11656"
               inkscape:connector-curvature="0" />
          </symbol>
          <symbol
             overflow="visible"
             id="textext-39940687-3"
             style="overflow:visible">
            <path
               style="stroke:none"
               d="m 6.84375,-3.265625 c 0.15625,0 0.34375,0 0.34375,-0.1875 C 7.1875,-3.65625 7,-3.65625 6.859375,-3.65625 l -5.96875,0 c -0.140625,0 -0.328125,0 -0.328125,0.203125 0,0.1875 0.1875,0.1875 0.328125,0.1875 z m 0.015625,1.9375 c 0.140625,0 0.328125,0 0.328125,-0.203125 0,-0.1875 -0.1875,-0.1875 -0.34375,-0.1875 l -5.953125,0 c -0.140625,0 -0.328125,0 -0.328125,0.1875 0,0.203125 0.1875,0.203125 0.328125,0.203125 z m 0,0"
               id="path11659"
               inkscape:connector-curvature="0" />
          </symbol>
          <symbol
             overflow="visible"
             id="textext-39940687-4"
             style="overflow:visible">
            <path
               style="stroke:none"
               d="m 2.9375,-6.375 c 0,-0.25 0,-0.265625 -0.234375,-0.265625 C 2.078125,-6 1.203125,-6 0.890625,-6 l 0,0.3125 c 0.203125,0 0.78125,0 1.296875,-0.265625 l 0,5.171875 c 0,0.359375 -0.03125,0.46875 -0.921875,0.46875 l -0.3125,0 0,0.3125 c 0.34375,-0.03125 1.203125,-0.03125 1.609375,-0.03125 0.390625,0 1.265625,0 1.609375,0.03125 l 0,-0.3125 -0.3125,0 c -0.90625,0 -0.921875,-0.109375 -0.921875,-0.46875 z m 0,0"
               id="path11662"
               inkscape:connector-curvature="0" />
          </symbol>
        </g>
      </defs>
      <g
         id="textext-39940687-5">
        <g
           style="fill:#000000;fill-opacity:1"
           id="g11665">
          <use
             xlink:href="#textext-39940687-1"
             x="223.43201"
             y="134.765"
             id="use11667"
             width="100%"
             height="100%" />
        </g>
        <g
           style="fill:#000000;fill-opacity:1"
           id="g11669">
          <use
             xlink:href="#textext-39940687-3"
             x="231.89301"
             y="134.765"
             id="use11671"
             width="100%"
             height="100%" />
        </g>
        <g
           style="fill:#000000;fill-opacity:1"
           id="g11673">
          <use
             xlink:href="#textext-39940687-4"
             x="242.41151"
             y="134.765"
             id="use11675"
             width="100%"
             height="100%" />
        </g>
      </g>
    </g>
    <g
       id="g12875"
       transform="matrix(1.5,0,0,1.5,-268.59844,500.72634)"
       ns0:preamble="/home/andrew/.config/inkscape/extensions/header.txt"
       ns0:text="$x=-1$">
      <defs
         id="defs12877">
        <g
           id="g12879">
          <symbol
             id="textext-2e81deba-0"
             overflow="visible"
             style="overflow:visible">
            <path
               id="path12882"
               d=""
               style="stroke:none"
               inkscape:connector-curvature="0" />
          </symbol>
          <symbol
             id="textext-2e81deba-1"
             overflow="visible"
             style="overflow:visible">
            <path
               id="path12885"
               d="M 3.328125,-3.015625 C 3.390625,-3.265625 3.625,-4.1875 4.3125,-4.1875 c 0.046875,0 0.296875,0 0.5,0.125 C 4.53125,-4 4.34375,-3.765625 4.34375,-3.515625 c 0,0.15625 0.109375,0.34375 0.375,0.34375 0.21875,0 0.53125,-0.171875 0.53125,-0.578125 0,-0.515625 -0.578125,-0.65625 -0.921875,-0.65625 -0.578125,0 -0.921875,0.53125 -1.046875,0.75 -0.25,-0.65625 -0.78125,-0.75 -1.078125,-0.75 -1.03125,0 -1.609375,1.28125 -1.609375,1.53125 0,0.109375 0.109375,0.109375 0.125,0.109375 0.078125,0 0.109375,-0.03125 0.125,-0.109375 0.34375,-1.0625 1,-1.3125 1.34375,-1.3125 0.1875,0 0.53125,0.09375 0.53125,0.671875 0,0.3125 -0.171875,0.96875 -0.53125,2.375 -0.15625,0.609375 -0.515625,1.03125 -0.953125,1.03125 -0.0625,0 -0.28125,0 -0.5,-0.125 0.25,-0.0625 0.46875,-0.265625 0.46875,-0.546875 0,-0.265625 -0.21875,-0.34375 -0.359375,-0.34375 -0.3125,0 -0.546875,0.25 -0.546875,0.578125 0,0.453125 0.484375,0.65625 0.921875,0.65625 0.671875,0 1.03125,-0.703125 1.046875,-0.75 0.125,0.359375 0.484375,0.75 1.078125,0.75 1.03125,0 1.59375,-1.28125 1.59375,-1.53125 0,-0.109375 -0.078125,-0.109375 -0.109375,-0.109375 -0.09375,0 -0.109375,0.046875 -0.140625,0.109375 -0.328125,1.078125 -1,1.3125 -1.3125,1.3125 -0.390625,0 -0.546875,-0.3125 -0.546875,-0.65625 0,-0.21875 0.046875,-0.4375 0.15625,-0.875 z m 0,0"
               style="stroke:none"
               inkscape:connector-curvature="0" />
          </symbol>
          <symbol
             id="textext-2e81deba-2"
             overflow="visible"
             style="overflow:visible">
            <path
               id="path12888"
               d=""
               style="stroke:none"
               inkscape:connector-curvature="0" />
          </symbol>
          <symbol
             id="textext-2e81deba-3"
             overflow="visible"
             style="overflow:visible">
            <path
               id="path12891"
               d="m 6.84375,-3.265625 c 0.15625,0 0.34375,0 0.34375,-0.1875 C 7.1875,-3.65625 7,-3.65625 6.859375,-3.65625 l -5.96875,0 c -0.140625,0 -0.328125,0 -0.328125,0.203125 0,0.1875 0.1875,0.1875 0.328125,0.1875 z m 0.015625,1.9375 c 0.140625,0 0.328125,0 0.328125,-0.203125 0,-0.1875 -0.1875,-0.1875 -0.34375,-0.1875 l -5.953125,0 c -0.140625,0 -0.328125,0 -0.328125,0.1875 0,0.203125 0.1875,0.203125 0.328125,0.203125 z m 0,0"
               style="stroke:none"
               inkscape:connector-curvature="0" />
          </symbol>
          <symbol
             id="textext-2e81deba-4"
             overflow="visible"
             style="overflow:visible">
            <path
               id="path12894"
               d="m 2.9375,-6.375 c 0,-0.25 0,-0.265625 -0.234375,-0.265625 C 2.078125,-6 1.203125,-6 0.890625,-6 l 0,0.3125 c 0.203125,0 0.78125,0 1.296875,-0.265625 l 0,5.171875 c 0,0.359375 -0.03125,0.46875 -0.921875,0.46875 l -0.3125,0 0,0.3125 c 0.34375,-0.03125 1.203125,-0.03125 1.609375,-0.03125 0.390625,0 1.265625,0 1.609375,0.03125 l 0,-0.3125 -0.3125,0 c -0.90625,0 -0.921875,-0.109375 -0.921875,-0.46875 z m 0,0"
               style="stroke:none"
               inkscape:connector-curvature="0" />
          </symbol>
          <symbol
             id="textext-2e81deba-5"
             overflow="visible"
             style="overflow:visible">
            <path
               id="path12897"
               d=""
               style="stroke:none"
               inkscape:connector-curvature="0" />
          </symbol>
          <symbol
             id="textext-2e81deba-6"
             overflow="visible"
             style="overflow:visible">
            <path
               id="path12900"
               d="m 6.5625,-2.296875 c 0.171875,0 0.359375,0 0.359375,-0.203125 0,-0.1875 -0.1875,-0.1875 -0.359375,-0.1875 l -5.390625,0 c -0.171875,0 -0.34375,0 -0.34375,0.1875 0,0.203125 0.171875,0.203125 0.34375,0.203125 z m 0,0"
               style="stroke:none"
               inkscape:connector-curvature="0" />
          </symbol>
        </g>
      </defs>
      <g
         id="textext-2e81deba-7">
        <g
           id="g12903"
           style="fill:#000000;fill-opacity:1">
          <use
             id="use12905"
             y="134.765"
             x="223.43201"
             xlink:href="#textext-2e81deba-1"
             width="100%"
             height="100%" />
        </g>
        <g
           id="g12907"
           style="fill:#000000;fill-opacity:1">
          <use
             id="use12909"
             y="134.765"
             x="231.89301"
             xlink:href="#textext-2e81deba-3"
             width="100%"
             height="100%" />
        </g>
        <g
           id="g12911"
           style="fill:#000000;fill-opacity:1">
          <use
             id="use12913"
             y="134.765"
             x="242.409"
             xlink:href="#textext-2e81deba-6"
             width="100%"
             height="100%" />
        </g>
        <g
           id="g12915"
           style="fill:#000000;fill-opacity:1">
          <use
             id="use12917"
             y="134.765"
             x="250.158"
             xlink:href="#textext-2e81deba-4"
             width="100%"
             height="100%" />
        </g>
      </g>
    </g>
    <path
       inkscape:connector-curvature="0"
       id="path19089"
       title="4-x*x"
       d="m 36,620.36218 c 0.727273,-1.45455 1.454545,-2.8944 2.181818,-4.31956 0.727273,-1.42516 1.454546,-2.83563 2.181818,-4.2314 0.727273,-1.39578 1.454546,-2.77686 2.181819,-4.14325 0.727272,-1.3664 1.454545,-2.71809 2.181818,-4.0551 0.727272,-1.33701 1.454545,-2.65932 2.181818,-3.96694 0.727273,-1.30763 1.454545,-2.60055 2.181818,-3.87879 0.727273,-1.27824 1.454546,-2.54178 2.181818,-3.79063 0.727273,-1.24886 1.454546,-2.48302 2.181818,-3.70248 0.727273,-1.21947 1.454546,-2.42425 2.181819,-3.61433 0.727272,-1.19008 1.454545,-2.36547 2.181818,-3.52617 0.727273,-1.1607 1.454545,-2.3067 2.181818,-3.43802 0.727273,-1.13131 1.454545,-2.24793 2.181818,-3.34986 0.727273,-1.10193 1.454546,-2.18916 2.181818,-3.26171 0.727273,-1.07254 1.454546,-2.13039 2.181819,-3.17355 0.727272,-1.04316 1.454545,-2.07163 2.181818,-3.0854 0.727272,-1.01377 1.454545,-2.01286 2.181818,-2.99725 0.727273,-0.98438 1.454545,-1.95408 2.181818,-2.90909 0.727273,-0.955 1.454546,-1.89531 2.181818,-2.82093 0.727273,-0.92562 1.454546,-1.83655 2.181818,-2.73279 0.727273,-0.89623 1.454546,-1.77777 2.181819,-2.64462 0.727272,-0.86685 1.454545,-1.71901 2.181818,-2.55648 0.727273,-0.83746 1.454545,-1.66024 2.181818,-2.46832 0.727273,-0.80808 1.454545,-1.60147 2.181818,-2.38016 0.727273,-0.7787 1.454546,-1.5427 2.181818,-2.29201 0.727273,-0.74931 1.454546,-1.48393 2.181819,-2.20386 0.727272,-0.71993 1.454545,-1.42516 2.181818,-2.1157 0.727272,-0.69054 1.454545,-1.36639 2.181818,-2.02755 0.727273,-0.66116 1.454545,-1.30762 2.181818,-1.93939 0.727273,-0.63178 1.454546,-1.24886 2.181818,-1.85124 0.727273,-0.60239 1.454543,-1.19009 2.181823,-1.76309 0.72727,-0.573 1.45454,-1.13131 2.18181,-1.67493 0.72728,-0.54362 1.45455,-1.07254 2.18182,-1.58678 0.72727,-0.51423 1.45455,-1.01377 2.18182,-1.49862 0.72727,-0.48485 1.45455,-0.955 2.18182,-1.41047 0.72727,-0.45546 1.45454,-0.89623 2.18182,-1.32231 0.72727,-0.42608 1.45454,-0.83747 2.18181,-1.23416 0.72728,-0.3967 1.45455,-0.7787 2.18182,-1.14601 0.72728,-0.36731 1.45455,-0.71992 2.18182,-1.05785 0.72727,-0.33792 1.45455,-0.66116 2.18182,-0.9697 0.72727,-0.30854 1.45454,-0.60238 2.18182,-0.88154 0.72727,-0.27915 1.45454,-0.54362 2.18182,-0.79339 0.72727,-0.24977 1.45454,-0.48485 2.18181,-0.70523 0.72728,-0.22039 1.45455,-0.42608 2.18182,-0.61708 0.72727,-0.191 1.45455,-0.36731 2.18182,-0.52893 0.72727,-0.16161 1.45455,-0.30854 2.18182,-0.44077 0.72727,-0.13223 1.45454,-0.24977 2.18182,-0.35262 0.72727,-0.10284 1.45454,-0.191 2.18181,-0.26446 0.72728,-0.0735 1.45455,-0.13223 2.18182,-0.17631 0.72728,-0.0441 1.45455,-0.0735 2.18182,-0.0882 0.72727,-0.0147 1.45455,-0.0147 2.18182,0 0.72727,0.0147 1.45454,0.0441 2.18182,0.0882 0.72727,0.0441 1.45454,0.10285 2.18182,0.17631 0.72727,0.0735 1.45454,0.16162 2.18181,0.26446 0.72728,0.10285 1.45455,0.22039 2.18182,0.35262 0.72727,0.13223 1.45455,0.27916 2.18182,0.44077 0.72727,0.16162 1.45455,0.33793 2.18182,0.52893 0.72727,0.191 1.45454,0.39669 2.18182,0.61708 0.72727,0.22038 1.45454,0.45546 2.18181,0.70523 0.72728,0.24977 1.45455,0.51424 2.18182,0.79339 0.72728,0.27916 1.45455,0.573 2.18182,0.88154 0.72727,0.30854 1.45455,0.63178 2.18182,0.9697 0.72727,0.33793 1.45454,0.69054 2.18182,1.05785 0.72727,0.36731 1.45454,0.74931 2.18182,1.14601 0.72727,0.39669 1.45454,0.80808 2.18181,1.23416 0.72728,0.42608 1.45455,0.86685 2.18182,1.32231 0.72727,0.45547 1.45455,0.92562 2.18182,1.41047 0.72727,0.48485 1.45455,0.98439 2.18182,1.49862 0.72727,0.51424 1.45454,1.04316 2.18182,1.58678 0.72727,0.54362 1.45454,1.10193 2.18181,1.67493 0.72728,0.573 1.45455,1.1607 2.18182,1.76309 0.72728,0.60238 1.45455,1.21946 2.18182,1.85124 0.72727,0.63177 1.45455,1.27823 2.18182,1.93939 0.72727,0.66116 1.45454,1.33701 2.18182,2.02755 0.72727,0.69054 1.45454,1.39577 2.18182,2.1157 0.72727,0.71993 1.45454,1.45455 2.18181,2.20386 0.72728,0.74931 1.45455,1.51331 2.18182,2.29201 0.72727,0.77869 1.45455,1.57208 2.18182,2.38016 0.72727,0.80808 1.45455,1.63086 2.18182,2.46832 0.72727,0.83747 1.45454,1.68963 2.18182,2.55648 0.72727,0.86685 1.45454,1.74839 2.18181,2.64462 0.72728,0.89624 1.45455,1.80717 2.18182,2.73279 0.72728,0.92562 1.45455,1.86593 2.18182,2.82093 0.72727,0.95501 1.45455,1.92471 2.18182,2.90909 0.72727,0.98439 1.45454,1.98348 2.18182,2.99725 0.72727,1.01377 1.45454,2.04224 2.18182,3.0854 0.72727,1.04316 1.45454,2.10101 2.18181,3.17355 0.72728,1.07255 1.45455,2.15978 2.18182,3.26171 0.72727,1.10193 1.45455,2.21855 2.18182,3.34986 0.72727,1.13132 1.45455,2.27732 2.18182,3.43802 0.72727,1.1607 1.45454,2.33609 2.18182,3.52617 0.72727,1.19008 1.45454,2.39486 2.18181,3.61433 0.72728,1.21946 1.45455,2.45362 2.18182,3.70248 0.72728,1.24885 1.45455,2.51239 2.18182,3.79063 0.72727,1.27824 1.45455,2.57116 2.18182,3.87879 0.72727,1.30762 1.45454,2.62993 2.18182,3.96694 0.72727,1.33701 1.45454,2.6887 2.18182,4.0551 0.72727,1.36639 1.45454,2.74747 2.18181,4.14325 0.72728,1.39577 1.45455,2.80624 2.18182,4.2314 0.72727,1.42516 1.45455,2.86501 2.18182,4.31956"
       style="fill:none;fill-rule:evenodd;stroke:#000000;stroke-width:2;stroke-linecap:butt;stroke-linejoin:miter;stroke-miterlimit:4;stroke-dasharray:none;stroke-opacity:1" />
  </g>
</svg>
