<?xml version="1.0" encoding="UTF-8" standalone="no"?>
<!-- Created with Inkscape (http://www.inkscape.org/) -->

<svg
   xmlns:ns0="http://www.iki.fi/pav/software/textext/"
   xmlns:dc="http://purl.org/dc/elements/1.1/"
   xmlns:cc="http://creativecommons.org/ns#"
   xmlns:rdf="http://www.w3.org/1999/02/22-rdf-syntax-ns#"
   xmlns:svg="http://www.w3.org/2000/svg"
   xmlns="http://www.w3.org/2000/svg"
   xmlns:xlink="http://www.w3.org/1999/xlink"
   xmlns:sodipodi="http://sodipodi.sourceforge.net/DTD/sodipodi-0.dtd"
   xmlns:inkscape="http://www.inkscape.org/namespaces/inkscape"
   width="105.33056mm"
   height="47.068962mm"
   viewBox="0 0 373.21852 166.77979"
   id="svg2"
   version="1.1"
   inkscape:version="0.91 r13725"
   sodipodi:docname="etox_area.svg">
  <sodipodi:namedview
     id="base"
     pagecolor="#ffffff"
     bordercolor="#666666"
     borderopacity="1.0"
     inkscape:pageopacity="0.0"
     inkscape:pageshadow="2"
     inkscape:zoom="3.3010152"
     inkscape:cx="186.60926"
     inkscape:cy="83.389894"
     inkscape:document-units="px"
     inkscape:current-layer="layer1"
     showgrid="true"
     inkscape:snap-bbox="true"
     inkscape:object-paths="true"
     inkscape:snap-intersection-paths="true"
     inkscape:object-nodes="true"
     inkscape:snap-smooth-nodes="true"
     inkscape:window-width="1680"
     inkscape:window-height="991"
     inkscape:window-x="0"
     inkscape:window-y="0"
     inkscape:window-maximized="1"
     fit-margin-top="0"
     fit-margin-left="0"
     fit-margin-right="0"
     fit-margin-bottom="0">
    <inkscape:grid
       empspacing="6"
       spacingy="6.0000001"
       spacingx="6"
       id="grid4136"
       type="xygrid"
       originx="-280.85501"
       originy="-165.13022" />
  </sodipodi:namedview>
  <defs
     id="defs4">
    <marker
       inkscape:isstock="true"
       style="overflow:visible"
       id="marker9317"
       refX="0"
       refY="0"
       orient="auto"
       inkscape:stockid="Arrow1Mend">
      <path
         transform="matrix(-0.4,0,0,-0.4,-4,0)"
         style="fill:#ff0000;fill-opacity:1;fill-rule:evenodd;stroke:#ff0000;stroke-width:1pt;stroke-opacity:1"
         d="M 0,0 5,-5 -12.5,0 5,5 0,0 Z"
         id="path9319"
         inkscape:connector-curvature="0" />
    </marker>
    <marker
       inkscape:isstock="true"
       style="overflow:visible"
       id="marker9307"
       refX="0"
       refY="0"
       orient="auto"
       inkscape:stockid="DotS">
      <path
         transform="matrix(0.2,0,0,0.2,1.48,0.2)"
         style="fill:#ff0000;fill-opacity:1;fill-rule:evenodd;stroke:#ff0000;stroke-width:1pt;stroke-opacity:1"
         d="m -2.5,-1 c 0,2.76 -2.24,5 -5,5 -2.76,0 -5,-2.24 -5,-5 0,-2.76 2.24,-5 5,-5 2.76,0 5,2.24 5,5 z"
         id="path9309"
         inkscape:connector-curvature="0" />
    </marker>
    <marker
       inkscape:isstock="true"
       style="overflow:visible"
       id="marker9234"
       refX="0"
       refY="0"
       orient="auto"
       inkscape:stockid="Arrow1Mend">
      <path
         transform="matrix(-0.4,0,0,-0.4,-4,0)"
         style="fill:#0000ff;fill-opacity:1;fill-rule:evenodd;stroke:#0000ff;stroke-width:1pt;stroke-opacity:1"
         d="M 0,0 5,-5 -12.5,0 5,5 0,0 Z"
         id="path9236"
         inkscape:connector-curvature="0" />
    </marker>
    <marker
       inkscape:isstock="true"
       style="overflow:visible"
       id="marker8664"
       refX="0"
       refY="0"
       orient="auto"
       inkscape:stockid="DotS">
      <path
         transform="matrix(0.2,0,0,0.2,1.48,0.2)"
         style="fill:#0000ff;fill-opacity:1;fill-rule:evenodd;stroke:#0000ff;stroke-width:1pt;stroke-opacity:1"
         d="m -2.5,-1 c 0,2.76 -2.24,5 -5,5 -2.76,0 -5,-2.24 -5,-5 0,-2.76 2.24,-5 5,-5 2.76,0 5,2.24 5,5 z"
         id="path8666"
         inkscape:connector-curvature="0" />
    </marker>
    <marker
       inkscape:stockid="Arrow1Mend"
       orient="auto"
       refY="0"
       refX="0"
       id="marker6247"
       style="overflow:visible"
       inkscape:isstock="true">
      <path
         id="path6249"
         d="M 0,0 5,-5 -12.5,0 5,5 0,0 Z"
         style="fill:#ff0000;fill-opacity:1;fill-rule:evenodd;stroke:#ff0000;stroke-width:1pt;stroke-opacity:1"
         transform="matrix(-0.4,0,0,-0.4,-4,0)"
         inkscape:connector-curvature="0" />
    </marker>
    <marker
       inkscape:stockid="DotS"
       orient="auto"
       refY="0"
       refX="0"
       id="marker6219"
       style="overflow:visible"
       inkscape:isstock="true">
      <path
         id="path6221"
         d="m -2.5,-1 c 0,2.76 -2.24,5 -5,5 -2.76,0 -5,-2.24 -5,-5 0,-2.76 2.24,-5 5,-5 2.76,0 5,2.24 5,5 z"
         style="fill:#ff0000;fill-opacity:1;fill-rule:evenodd;stroke:#ff0000;stroke-width:1pt;stroke-opacity:1"
         transform="matrix(0.2,0,0,0.2,1.48,0.2)"
         inkscape:connector-curvature="0" />
    </marker>
    <marker
       inkscape:collect="always"
       inkscape:isstock="true"
       style="overflow:visible"
       id="Arrow1Mend"
       refX="0"
       refY="0"
       orient="auto"
       inkscape:stockid="Arrow1Mend">
      <path
         transform="matrix(-0.4,0,0,-0.4,-4,0)"
         style="fill:#ff0000;fill-opacity:1;fill-rule:evenodd;stroke:#ff0000;stroke-width:1pt;stroke-opacity:1"
         d="M 0,0 5,-5 -12.5,0 5,5 0,0 Z"
         id="path4153"
         inkscape:connector-curvature="0" />
    </marker>
    <marker
       inkscape:collect="always"
       inkscape:isstock="true"
       style="overflow:visible"
       id="DotS"
       refX="0"
       refY="0"
       orient="auto"
       inkscape:stockid="DotS">
      <path
         transform="matrix(0.2,0,0,0.2,1.48,0.2)"
         style="fill:#ff0000;fill-opacity:1;fill-rule:evenodd;stroke:#ff0000;stroke-width:1pt;stroke-opacity:1"
         d="m -2.5,-1 c 0,2.76 -2.24,5 -5,5 -2.76,0 -5,-2.24 -5,-5 0,-2.76 2.24,-5 5,-5 2.76,0 5,2.24 5,5 z"
         id="path4211"
         inkscape:connector-curvature="0" />
    </marker>
    <marker
       inkscape:stockid="DotS"
       orient="auto"
       refY="0"
       refX="0"
       id="marker8582-4"
       style="overflow:visible"
       inkscape:isstock="true">
      <path
         id="path8584-4"
         d="m -2.5,-1 c 0,2.76 -2.24,5 -5,5 -2.76,0 -5,-2.24 -5,-5 0,-2.76 2.24,-5 5,-5 2.76,0 5,2.24 5,5 z"
         style="fill:#ff0000;fill-opacity:1;fill-rule:evenodd;stroke:#ff0000;stroke-width:1pt;stroke-opacity:1"
         transform="matrix(0.2,0,0,0.2,1.48,0.2)"
         inkscape:connector-curvature="0" />
    </marker>
    <marker
       inkscape:stockid="Arrow1Mend"
       orient="auto"
       refY="0"
       refX="0"
       id="marker8592-3"
       style="overflow:visible"
       inkscape:isstock="true">
      <path
         id="path8594-8"
         d="M 0,0 5,-5 -12.5,0 5,5 0,0 Z"
         style="fill:#ff0000;fill-opacity:1;fill-rule:evenodd;stroke:#ff0000;stroke-width:1pt;stroke-opacity:1"
         transform="matrix(-0.4,0,0,-0.4,-4,0)"
         inkscape:connector-curvature="0" />
    </marker>
    <marker
       inkscape:stockid="DotS"
       orient="auto"
       refY="0"
       refX="0"
       id="marker8582-2"
       style="overflow:visible"
       inkscape:isstock="true">
      <path
         id="path8584-8"
         d="m -2.5,-1 c 0,2.76 -2.24,5 -5,5 -2.76,0 -5,-2.24 -5,-5 0,-2.76 2.24,-5 5,-5 2.76,0 5,2.24 5,5 z"
         style="fill:#ff0000;fill-opacity:1;fill-rule:evenodd;stroke:#ff0000;stroke-width:1pt;stroke-opacity:1"
         transform="matrix(0.2,0,0,0.2,1.48,0.2)"
         inkscape:connector-curvature="0" />
    </marker>
    <marker
       inkscape:stockid="Arrow1Mend"
       orient="auto"
       refY="0"
       refX="0"
       id="marker8592-6"
       style="overflow:visible"
       inkscape:isstock="true">
      <path
         id="path8594-9"
         d="M 0,0 5,-5 -12.5,0 5,5 0,0 Z"
         style="fill:#ff0000;fill-opacity:1;fill-rule:evenodd;stroke:#ff0000;stroke-width:1pt;stroke-opacity:1"
         transform="matrix(-0.4,0,0,-0.4,-4,0)"
         inkscape:connector-curvature="0" />
    </marker>
    <marker
       inkscape:isstock="true"
       style="overflow:visible"
       id="marker9307-7"
       refX="0"
       refY="0"
       orient="auto"
       inkscape:stockid="DotS">
      <path
         transform="matrix(0.2,0,0,0.2,1.48,0.2)"
         style="fill:#ff0000;fill-opacity:1;fill-rule:evenodd;stroke:#ff0000;stroke-width:1pt;stroke-opacity:1"
         d="m -2.5,-1 c 0,2.76 -2.24,5 -5,5 -2.76,0 -5,-2.24 -5,-5 0,-2.76 2.24,-5 5,-5 2.76,0 5,2.24 5,5 z"
         id="path9309-6"
         inkscape:connector-curvature="0" />
    </marker>
    <marker
       inkscape:isstock="true"
       style="overflow:visible"
       id="marker9317-3"
       refX="0"
       refY="0"
       orient="auto"
       inkscape:stockid="Arrow1Mend">
      <path
         transform="matrix(-0.4,0,0,-0.4,-4,0)"
         style="fill:#ff0000;fill-opacity:1;fill-rule:evenodd;stroke:#ff0000;stroke-width:1pt;stroke-opacity:1"
         d="M 0,0 5,-5 -12.5,0 5,5 0,0 Z"
         id="path9319-6"
         inkscape:connector-curvature="0" />
    </marker>
    <marker
       inkscape:isstock="true"
       style="overflow:visible"
       id="marker9307-7-6"
       refX="0"
       refY="0"
       orient="auto"
       inkscape:stockid="DotS">
      <path
         transform="matrix(0.2,0,0,0.2,1.48,0.2)"
         style="fill:#ff0000;fill-opacity:1;fill-rule:evenodd;stroke:#ff0000;stroke-width:1pt;stroke-opacity:1"
         d="m -2.5,-1 c 0,2.76 -2.24,5 -5,5 -2.76,0 -5,-2.24 -5,-5 0,-2.76 2.24,-5 5,-5 2.76,0 5,2.24 5,5 z"
         id="path9309-6-2"
         inkscape:connector-curvature="0" />
    </marker>
    <marker
       inkscape:isstock="true"
       style="overflow:visible"
       id="marker9317-3-8"
       refX="0"
       refY="0"
       orient="auto"
       inkscape:stockid="Arrow1Mend">
      <path
         transform="matrix(-0.4,0,0,-0.4,-4,0)"
         style="fill:#ff0000;fill-opacity:1;fill-rule:evenodd;stroke:#ff0000;stroke-width:1pt;stroke-opacity:1"
         d="M 0,0 5,-5 -12.5,0 5,5 0,0 Z"
         id="path9319-6-3"
         inkscape:connector-curvature="0" />
    </marker>
  </defs>
  <metadata
     id="metadata7">
    <rdf:RDF>
      <cc:Work
         rdf:about="">
        <dc:format>image/svg+xml</dc:format>
        <dc:type
           rdf:resource="http://purl.org/dc/dcmitype/StillImage" />
        <dc:title />
      </cc:Work>
    </rdf:RDF>
  </metadata>
  <g
     id="layer1"
     inkscape:groupmode="layer"
     inkscape:label="Layer 1"
     transform="translate(-280.855,-720.4522)">
    <path
       style="fill:none;fill-rule:evenodd;stroke:#ff0000;stroke-width:1px;stroke-linecap:butt;stroke-linejoin:miter;stroke-opacity:1;marker-start:url(#DotS);marker-end:url(#Arrow1Mend)"
       d="m 288,878.36221 0,-156"
       id="path7473"
       inkscape:connector-curvature="0"
       sodipodi:nodetypes="cc" />
    <path
       sodipodi:nodetypes="cc"
       inkscape:connector-curvature="0"
       id="path7475"
       d="m 282,872.36221 174,-3e-5"
       style="fill:none;fill-rule:evenodd;stroke:#ff0000;stroke-width:1px;stroke-linecap:butt;stroke-linejoin:miter;stroke-opacity:1;marker-start:url(#marker6219);marker-end:url(#marker6247)" />
    <path
       inkscape:connector-curvature="0"
       id="path8580-9"
       d="m 408,746.36218 -6,6 0,18"
       style="color:#000000;clip-rule:nonzero;display:inline;overflow:visible;visibility:visible;opacity:1;isolation:auto;mix-blend-mode:normal;color-interpolation:sRGB;color-interpolation-filters:linearRGB;solid-color:#000000;solid-opacity:1;fill:none;fill-opacity:1;fill-rule:evenodd;stroke:#ff0000;stroke-width:1px;stroke-linecap:butt;stroke-linejoin:miter;stroke-miterlimit:4;stroke-dasharray:none;stroke-dashoffset:0;stroke-opacity:1;marker-start:url(#marker9307-7);marker-end:url(#marker9317-3);color-rendering:auto;image-rendering:auto;shape-rendering:auto;text-rendering:auto;enable-background:accumulate" />
    <path
       id="path4976"
       title="exp(x)"
       d="m 432.00916,753.90486 c -0.48485,0.43931 -0.9697,0.87641 -1.45455,1.31132 -0.48485,0.4349 -0.9697,0.86761 -1.45454,1.29814 -0.48485,0.43053 -0.9697,0.85889 -1.45455,1.28509 -0.48485,0.42621 -0.9697,0.85026 -1.45455,1.27218 -0.48484,0.42193 -0.96969,0.84172 -1.45454,1.2594 -0.48485,0.41768 -0.9697,0.83325 -1.45455,1.24674 -0.48484,0.41348 -0.96969,0.82487 -1.45454,1.2342 -0.48485,0.40933 -0.9697,0.81659 -1.45455,1.22181 -0.48485,0.40521 -0.96969,0.80838 -1.45454,1.20952 -0.48485,0.40114 -0.9697,0.80026 -1.45455,1.19737 -0.48485,0.39711 -0.96969,0.79221 -1.45454,1.18533 -0.48485,0.39312 -0.9697,0.78426 -1.45455,1.17342 -0.48485,0.38917 -0.9697,0.77637 -1.45454,1.16163 -0.48485,0.38526 -0.9697,0.76857 -1.45455,1.14996 -0.48485,0.38138 -0.9697,0.76084 -1.45455,1.13839 -0.48484,0.37755 -0.96969,0.7532 -1.45454,1.12696 -0.48485,0.37376 -0.9697,0.74563 -1.45455,1.11563 -0.48484,0.37 -0.96969,0.73813 -1.45454,1.10441 -0.48485,0.36629 -0.9697,0.73072 -1.45455,1.09332 -0.48485,0.3626 -0.96969,0.72337 -1.45454,1.08233 -0.48485,0.35896 -0.9697,0.7161 -1.45455,1.07145 -0.48485,0.35535 -0.96969,0.70891 -1.45454,1.06069 -0.48485,0.35178 -0.9697,0.70178 -1.45455,1.05002 -0.48485,0.34824 -0.9697,0.69473 -1.45454,1.03947 -0.48485,0.34474 -0.9697,0.68775 -1.45455,1.02903 -0.48485,0.34127 -0.9697,0.68083 -1.45455,1.01868 -0.48484,0.33785 -0.96969,0.67399 -1.45454,1.00844 -0.48485,0.33445 -0.9697,0.66722 -1.45455,0.99831 -0.48484,0.33109 -0.96969,0.66051 -1.45454,0.98828 -0.48485,0.32776 -0.9697,0.65387 -1.45455,0.97834 -0.48485,0.32447 -0.96969,0.6473 -1.45454,0.96851 -0.48485,0.32121 -0.9697,0.6408 -1.45455,0.95878 -0.48485,0.31798 -0.96969,0.63435 -1.45454,0.94914 -0.48485,0.31479 -0.9697,0.62798 -1.45455,0.9396 -0.48485,0.31162 -0.9697,0.62167 -1.45454,0.93016 -0.48485,0.30849 -0.9697,0.61542 -1.45455,0.92081 -0.48485,0.30539 -0.9697,0.60924 -1.45455,0.91156 -0.48484,0.30232 -0.96969,0.60311 -1.45454,0.90239 -0.48485,0.29929 -0.9697,0.59706 -1.45455,0.89333 -0.48484,0.29627 -0.96969,0.59105 -1.45454,0.88435 -0.48485,0.2933 -0.9697,0.58511 -1.45455,0.87546 -0.48485,0.29035 -0.96969,0.57923 -1.45454,0.86666 -0.48485,0.28743 -0.9697,0.57341 -1.45455,0.85795 -0.48485,0.28454 -0.96969,0.56765 -1.45454,0.84933 -0.48485,0.28168 -0.9697,0.56194 -1.45455,0.8408 -0.48485,0.27885 -0.9697,0.55629 -1.45454,0.83234 -0.48485,0.27605 -0.9697,0.5507 -1.45455,0.82398 -0.48485,0.27327 -0.9697,0.54516 -1.45455,0.81569 -0.48484,0.27053 -0.96969,0.53969 -1.45454,0.8075 -0.48485,0.26781 -0.9697,0.53427 -1.45455,0.79939 -0.48484,0.26511 -0.96969,0.52889 -1.45454,0.79134 -0.48485,0.26246 -0.9697,0.52359 -1.45455,0.7834 -0.48485,0.25982 -0.96969,0.51832 -1.45454,0.77552 -0.48485,0.25721 -0.9697,0.51311 -1.45455,0.76773 -0.48485,0.25462 -0.96969,0.50796 -1.45454,0.76002 -0.48485,0.25206 -0.9697,0.50284 -1.45455,0.75237 -0.48485,0.24953 -0.9697,0.49779 -1.45454,0.74481 -0.48485,0.24702 -0.9697,0.4928 -1.45455,0.73733 -0.48485,0.24454 -0.9697,0.48784 -1.45455,0.72992 -0.48484,0.24208 -0.96969,0.48294 -1.45454,0.72258 -0.48485,0.23965 -0.9697,0.47808 -1.45455,0.71532 -0.48484,0.23724 -0.96969,0.47328 -1.45454,0.70813 -0.48485,0.23485 -0.9697,0.46852 -1.45455,0.70102 -0.48485,0.23249 -0.96969,0.46381 -1.45454,0.69396 -0.48485,0.23016 -0.9697,0.45915 -1.45455,0.687 -0.48485,0.22784 -0.96969,0.45453 -1.45454,0.68009 -0.48485,0.22555 -0.9697,0.44997 -1.45455,0.67325 -0.48485,0.22329 -0.9697,0.44545 -1.45454,0.66649 -0.48485,0.22104 -0.9697,0.44097 -1.45455,0.65979 -0.48485,0.21882 -0.9697,0.43654 -1.45455,0.65316 -0.48484,0.21662 -0.96969,0.43215 -1.45454,0.64659 -0.48485,0.21445 -0.9697,0.42781 -1.45455,0.6401 -0.48484,0.21229 -0.96969,0.42351 -1.45454,0.63366 -0.48485,0.21016 -0.9697,0.41925 -1.45455,0.6273 -0.48485,0.20804 -0.96969,0.41503 -1.45454,0.62099 -0.48485,0.20595 -0.9697,0.41086 -1.45455,0.61475 -0.48485,0.20388 -0.96969,0.40673 -1.45454,0.60857 -0.48485,0.20183 -0.9697,0.40265 -1.45455,0.60245 -0.48485,0.19981 -0.9697,0.39861 -1.45454,0.5964 -0.48485,0.1978 -0.9697,0.3946 -1.45455,0.59041 -0.48485,0.19581 -0.9697,0.39063 -1.45455,0.58447 -0.48484,0.19384 -0.96969,0.38671 -1.45454,0.5786 -0.48485,0.19189 -0.9697,0.38282 -1.45455,0.57278 -0.48484,0.18997 -0.96969,0.37897 -1.45454,0.56703 -0.48485,0.18805 -0.9697,0.37516 -1.45455,0.56133 -0.48485,0.18616 -0.96969,0.37139 -1.45454,0.55568 -0.48485,0.1843 -0.9697,0.36766 -1.45455,0.55011 -0.48485,0.18244 -0.96969,0.36396 -1.45454,0.54457 -0.48485,0.18061 -0.9697,0.3603 -1.45455,0.5391 -0.48485,0.17879 -0.9697,0.35668 -1.45454,0.53368 -0.48485,0.177 -0.9697,0.3531 -1.45455,0.52832 -0.48485,0.17522 -0.9697,0.34955 -1.45455,0.52301 -0.48484,0.17346 -0.96969,0.34604 -1.45454,0.51775 -0.48485,0.17171 -0.9697,0.34256 -1.45455,0.51255 -0.48484,0.16999 -0.96969,0.33912 -1.45454,0.5074 -0.48485,0.16828 -0.9697,0.33571 -1.45455,0.5023 -0.48485,0.16658 -0.96969,0.33233 -1.45454,0.49725 -0.48485,0.16491 -0.9697,0.32899 -1.45455,0.49225 -0.48485,0.16326 -0.96969,0.32569 -1.45454,0.4873 l -0.009,-0.0202 0,36 144,0 -1.6e-4,-114 z"
       style="fill:#0000ff;fill-rule:evenodd;stroke:#000000;stroke-width:2;stroke-linecap:butt;stroke-linejoin:miter;stroke-opacity:1"
       inkscape:connector-curvature="0"
       sodipodi:nodetypes="cssscssssssssscssscsssssscssscsssssssscsssssscscssscccsssscscsscccccssscsccccccsssscccccscssssssccscccccc" />
    <g
       ns0:text="$1$"
       ns0:preamble="/home/andrew/.config/inkscape/extensions/header.txt"
       transform="matrix(1.5,0,0,1.5,93.753609,685.08449)"
       id="g5183">
      <defs
         id="defs5185">
        <g
           id="g5187">
          <symbol
             overflow="visible"
             id="textext-19c046ce-0"
             style="overflow:visible">
            <path
               style="stroke:none"
               d=""
               id="path5190"
               inkscape:connector-curvature="0" />
          </symbol>
          <symbol
             overflow="visible"
             id="textext-19c046ce-1"
             style="overflow:visible">
            <path
               style="stroke:none"
               d="m 2.9375,-6.375 c 0,-0.25 0,-0.265625 -0.234375,-0.265625 C 2.078125,-6 1.203125,-6 0.890625,-6 l 0,0.3125 c 0.203125,0 0.78125,0 1.296875,-0.265625 l 0,5.171875 c 0,0.359375 -0.03125,0.46875 -0.921875,0.46875 l -0.3125,0 0,0.3125 c 0.34375,-0.03125 1.203125,-0.03125 1.609375,-0.03125 0.390625,0 1.265625,0 1.609375,0.03125 l 0,-0.3125 -0.3125,0 c -0.90625,0 -0.921875,-0.109375 -0.921875,-0.46875 z m 0,0"
               id="path5193"
               inkscape:connector-curvature="0" />
          </symbol>
        </g>
      </defs>
      <g
         id="textext-19c046ce-2">
        <g
           style="fill:#000000;fill-opacity:1"
           id="g5196">
          <use
             xlink:href="#textext-19c046ce-1"
             x="223.43201"
             y="134.765"
             id="use5198"
             width="100%"
             height="100%" />
        </g>
      </g>
    </g>
    <g
       id="g5402"
       transform="matrix(1.5,0,0,1.5,76.099404,545.9228)"
       ns0:preamble="/home/andrew/.config/inkscape/extensions/header.txt"
       ns0:text="$y=e^x$">
      <defs
         id="defs5404">
        <g
           id="g5406">
          <symbol
             id="textext-4de06d55-0"
             overflow="visible"
             style="overflow:visible">
            <path
               id="path5409"
               d=""
               style="stroke:none"
               inkscape:connector-curvature="0" />
          </symbol>
          <symbol
             id="textext-4de06d55-1"
             overflow="visible"
             style="overflow:visible">
            <path
               id="path5412"
               d="m 4.84375,-3.796875 c 0.046875,-0.140625 0.046875,-0.15625 0.046875,-0.234375 0,-0.171875 -0.140625,-0.265625 -0.296875,-0.265625 -0.09375,0 -0.25,0.0625 -0.34375,0.203125 -0.015625,0.0625 -0.109375,0.359375 -0.140625,0.546875 -0.078125,0.25 -0.140625,0.53125 -0.203125,0.796875 l -0.453125,1.796875 c -0.03125,0.140625 -0.46875,0.84375 -1.125,0.84375 -0.5,0 -0.609375,-0.4375 -0.609375,-0.8125 C 1.71875,-1.375 1.890625,-2 2.21875,-2.875 2.375,-3.28125 2.421875,-3.390625 2.421875,-3.59375 c 0,-0.4375 -0.3125,-0.8125 -0.8125,-0.8125 -0.953125,0 -1.3125,1.453125 -1.3125,1.53125 0,0.109375 0.09375,0.109375 0.109375,0.109375 0.109375,0 0.109375,-0.03125 0.15625,-0.1875 0.28125,-0.9375 0.671875,-1.234375 1.015625,-1.234375 0.078125,0 0.25,0 0.25,0.3125 0,0.25 -0.109375,0.515625 -0.171875,0.703125 -0.40625,1.0625 -0.578125,1.625 -0.578125,2.09375 0,0.890625 0.625,1.1875 1.21875,1.1875 0.390625,0 0.71875,-0.171875 1,-0.453125 -0.125,0.515625 -0.25,1.015625 -0.640625,1.546875 -0.265625,0.328125 -0.640625,0.625 -1.09375,0.625 -0.140625,0 -0.59375,-0.03125 -0.765625,-0.421875 0.15625,0 0.296875,0 0.421875,-0.125 C 1.328125,1.203125 1.421875,1.0625 1.421875,0.875 1.421875,0.5625 1.15625,0.53125 1.0625,0.53125 0.828125,0.53125 0.5,0.6875 0.5,1.171875 c 0,0.5 0.4375,0.875 1.0625,0.875 1.015625,0 2.046875,-0.90625 2.328125,-2.03125 z m 0,0"
               style="stroke:none"
               inkscape:connector-curvature="0" />
          </symbol>
          <symbol
             id="textext-4de06d55-2"
             overflow="visible"
             style="overflow:visible">
            <path
               id="path5415"
               d="m 1.859375,-2.296875 c 0.296875,0 1.03125,-0.03125 1.53125,-0.234375 0.703125,-0.296875 0.75,-0.890625 0.75,-1.03125 0,-0.4375 -0.375,-0.84375 -1.0625,-0.84375 -1.109375,0 -2.625,0.96875 -2.625,2.71875 0,1.015625 0.59375,1.796875 1.578125,1.796875 1.421875,0 2.25,-1.0625 2.25,-1.171875 0,-0.0625 -0.046875,-0.140625 -0.109375,-0.140625 -0.0625,0 -0.078125,0.03125 -0.140625,0.109375 -0.78125,0.984375 -1.875,0.984375 -1.984375,0.984375 -0.78125,0 -0.875,-0.84375 -0.875,-1.15625 0,-0.125 0.015625,-0.421875 0.15625,-1.03125 z m -0.46875,-0.21875 C 1.78125,-4.03125 2.8125,-4.1875 3.078125,-4.1875 c 0.453125,0 0.734375,0.296875 0.734375,0.625 0,1.046875 -1.59375,1.046875 -2.015625,1.046875 z m 0,0"
               style="stroke:none"
               inkscape:connector-curvature="0" />
          </symbol>
          <symbol
             id="textext-4de06d55-3"
             overflow="visible"
             style="overflow:visible">
            <path
               id="path5418"
               d=""
               style="stroke:none"
               inkscape:connector-curvature="0" />
          </symbol>
          <symbol
             id="textext-4de06d55-4"
             overflow="visible"
             style="overflow:visible">
            <path
               id="path5421"
               d="m 6.84375,-3.265625 c 0.15625,0 0.34375,0 0.34375,-0.1875 C 7.1875,-3.65625 7,-3.65625 6.859375,-3.65625 l -5.96875,0 c -0.140625,0 -0.328125,0 -0.328125,0.203125 0,0.1875 0.1875,0.1875 0.328125,0.1875 z m 0.015625,1.9375 c 0.140625,0 0.328125,0 0.328125,-0.203125 0,-0.1875 -0.1875,-0.1875 -0.34375,-0.1875 l -5.953125,0 c -0.140625,0 -0.328125,0 -0.328125,0.1875 0,0.203125 0.1875,0.203125 0.328125,0.203125 z m 0,0"
               style="stroke:none"
               inkscape:connector-curvature="0" />
          </symbol>
          <symbol
             id="textext-4de06d55-5"
             overflow="visible"
             style="overflow:visible">
            <path
               id="path5424"
               d=""
               style="stroke:none"
               inkscape:connector-curvature="0" />
          </symbol>
          <symbol
             id="textext-4de06d55-6"
             overflow="visible"
             style="overflow:visible">
            <path
               id="path5427"
               d="M 1.734375,-0.734375 C 1.671875,-0.5 1.4375,-0.125 1.078125,-0.125 c -0.015625,0 -0.234375,0 -0.375,-0.09375 0.28125,-0.09375 0.3125,-0.34375 0.3125,-0.390625 0,-0.15625 -0.125,-0.25 -0.28125,-0.25 -0.203125,0 -0.40625,0.15625 -0.40625,0.421875 0,0.34375 0.390625,0.5 0.734375,0.5 0.328125,0 0.609375,-0.1875 0.78125,-0.484375 C 2.015625,-0.0625 2.390625,0.0625 2.671875,0.0625 c 0.8125,0 1.234375,-0.859375 1.234375,-1.0625 0,-0.09375 -0.09375,-0.09375 -0.109375,-0.09375 -0.109375,0 -0.109375,0.046875 -0.140625,0.125 -0.140625,0.484375 -0.5625,0.84375 -0.953125,0.84375 -0.28125,0 -0.421875,-0.1875 -0.421875,-0.453125 0,-0.1875 0.171875,-0.8125 0.359375,-1.59375 C 2.78125,-2.703125 3.09375,-2.875 3.328125,-2.875 c 0.015625,0 0.21875,0 0.375,0.09375 -0.21875,0.0625 -0.3125,0.265625 -0.3125,0.390625 0,0.140625 0.125,0.25 0.28125,0.25 0.15625,0 0.390625,-0.125 0.390625,-0.421875 0,-0.390625 -0.453125,-0.515625 -0.71875,-0.515625 -0.359375,0 -0.640625,0.234375 -0.78125,0.5 -0.125,-0.28125 -0.453125,-0.5 -0.84375,-0.5 C 0.9375,-3.078125 0.5,-2.21875 0.5,-2 c 0,0.078125 0.09375,0.078125 0.109375,0.078125 0.09375,0 0.09375,-0.015625 0.140625,-0.109375 C 0.921875,-2.578125 1.359375,-2.875 1.703125,-2.875 1.9375,-2.875 2.125,-2.75 2.125,-2.421875 2.125,-2.28125 2.03125,-1.9375 1.96875,-1.6875 Z m 0,0"
               style="stroke:none"
               inkscape:connector-curvature="0" />
          </symbol>
        </g>
      </defs>
      <g
         id="textext-4de06d55-7">
        <g
           id="g5430"
           style="fill:#000000;fill-opacity:1">
          <use
             id="use5432"
             y="134.765"
             x="223.43201"
             xlink:href="#textext-4de06d55-1"
             width="100%"
             height="100%" />
        </g>
        <g
           id="g5434"
           style="fill:#000000;fill-opacity:1">
          <use
             id="use5436"
             y="134.765"
             x="231.44099"
             xlink:href="#textext-4de06d55-4"
             width="100%"
             height="100%" />
        </g>
        <g
           id="g5438"
           style="fill:#000000;fill-opacity:1">
          <use
             id="use5440"
             y="134.765"
             x="241.957"
             xlink:href="#textext-4de06d55-2"
             width="100%"
             height="100%" />
        </g>
        <g
           id="g5442"
           style="fill:#000000;fill-opacity:1">
          <use
             id="use5444"
             y="131.149"
             x="246.59599"
             xlink:href="#textext-4de06d55-6"
             width="100%"
             height="100%" />
        </g>
      </g>
    </g>
    <path
       inkscape:connector-curvature="0"
       id="path8580-9-7"
       d="m 450,818.36218 -6,6 -18,0"
       style="color:#000000;clip-rule:nonzero;display:inline;overflow:visible;visibility:visible;opacity:1;isolation:auto;mix-blend-mode:normal;color-interpolation:sRGB;color-interpolation-filters:linearRGB;solid-color:#000000;solid-opacity:1;fill:none;fill-opacity:1;fill-rule:evenodd;stroke:#ff0000;stroke-width:1px;stroke-linecap:butt;stroke-linejoin:miter;stroke-miterlimit:4;stroke-dasharray:none;stroke-dashoffset:0;stroke-opacity:1;marker-start:url(#marker9307-7-6);marker-end:url(#marker9317-3-8);color-rendering:auto;image-rendering:auto;shape-rendering:auto;text-rendering:auto;enable-background:accumulate" />
    <g
       id="g6223"
       transform="matrix(1.5,0,0,1.5,118.3125,619.87781)"
       ns0:preamble="/home/andrew/.config/inkscape/extensions/header.txt"
       ns0:text="$\\left\\{(x,y) \\mid 0\\leq y \\leq e^x, 0 \\leq x \\leq 1 \\right\\}$">
      <defs
         id="defs6225">
        <g
           id="g6227">
          <symbol
             id="textext-cffd00c4-0"
             overflow="visible"
             style="overflow:visible">
            <path
               id="path6230"
               d=""
               style="stroke:none"
               inkscape:connector-curvature="0" />
          </symbol>
          <symbol
             id="textext-cffd00c4-1"
             overflow="visible"
             style="overflow:visible">
            <path
               id="path6233"
               d="m 2.828125,-6.15625 c 0,-0.390625 0.25,-1.03125 1.34375,-1.09375 C 4.21875,-7.265625 4.25,-7.3125 4.25,-7.359375 c 0,-0.125 -0.078125,-0.125 -0.1875,-0.125 -0.984375,0 -1.90625,0.515625 -1.90625,1.25 l 0,2.28125 c 0,0.390625 0,0.703125 -0.40625,1.03125 -0.34375,0.296875 -0.71875,0.3125 -0.9375,0.3125 C 0.75,-2.59375 0.71875,-2.546875 0.71875,-2.5 c 0,0.109375 0.0625,0.109375 0.15625,0.125 0.65625,0.03125 1.140625,0.390625 1.25,0.875 0.03125,0.109375 0.03125,0.140625 0.03125,0.5 l 0,1.96875 c 0,0.421875 0,0.734375 0.46875,1.109375 C 3.015625,2.375 3.671875,2.5 4.0625,2.5 4.171875,2.5 4.25,2.5 4.25,2.375 4.25,2.28125 4.203125,2.28125 4.09375,2.265625 3.46875,2.234375 2.984375,1.90625 2.84375,1.40625 2.828125,1.3125 2.828125,1.296875 2.828125,0.9375 l 0,-2.09375 c 0,-0.453125 -0.09375,-0.625 -0.40625,-0.953125 C 2.21875,-2.3125 1.921875,-2.40625 1.640625,-2.5 c 0.828125,-0.21875 1.1875,-0.6875 1.1875,-1.265625 z m 0,0"
               style="stroke:none"
               inkscape:connector-curvature="0" />
          </symbol>
          <symbol
             id="textext-cffd00c4-2"
             overflow="visible"
             style="overflow:visible">
            <path
               id="path6236"
               d="m 1.578125,-7.125 c 0,-0.171875 0,-0.359375 -0.1875,-0.359375 -0.203125,0 -0.203125,0.1875 -0.203125,0.359375 l 0,9.265625 c 0,0.171875 0,0.359375 0.203125,0.359375 0.1875,0 0.1875,-0.1875 0.1875,-0.359375 z m 0,0"
               style="stroke:none"
               inkscape:connector-curvature="0" />
          </symbol>
          <symbol
             id="textext-cffd00c4-3"
             overflow="visible"
             style="overflow:visible">
            <path
               id="path6239"
               d="m 6.734375,-5.921875 c 0.109375,-0.046875 0.1875,-0.09375 0.1875,-0.21875 0,-0.109375 -0.078125,-0.203125 -0.203125,-0.203125 -0.046875,0 -0.140625,0.046875 -0.171875,0.0625 L 1.03125,-3.671875 c -0.171875,0.078125 -0.203125,0.140625 -0.203125,0.21875 0,0.09375 0.0625,0.15625 0.203125,0.21875 l 5.515625,2.59375 C 6.671875,-0.5625 6.6875,-0.5625 6.71875,-0.5625 c 0.109375,0 0.203125,-0.09375 0.203125,-0.203125 C 6.921875,-0.859375 6.875,-0.921875 6.703125,-1 L 1.5,-3.453125 Z M 6.5625,1.359375 c 0.171875,0 0.359375,0 0.359375,-0.1875 0,-0.203125 -0.21875,-0.203125 -0.359375,-0.203125 l -5.375,0 c -0.15625,0 -0.359375,0 -0.359375,0.203125 0,0.1875 0.171875,0.1875 0.34375,0.1875 z m 0,0"
               style="stroke:none"
               inkscape:connector-curvature="0" />
          </symbol>
          <symbol
             id="textext-cffd00c4-4"
             overflow="visible"
             style="overflow:visible">
            <path
               id="path6242"
               d="m 2.15625,1.171875 c 0,0.390625 -0.265625,1.03125 -1.34375,1.09375 C 0.75,2.28125 0.71875,2.328125 0.71875,2.375 0.71875,2.5 0.828125,2.5 0.921875,2.5 1.890625,2.5 2.8125,2 2.828125,1.25 l 0,-2.28125 c 0,-0.390625 0,-0.703125 0.390625,-1.03125 C 3.5625,-2.359375 3.953125,-2.375 4.171875,-2.375 4.21875,-2.390625 4.25,-2.4375 4.25,-2.5 4.25,-2.59375 4.203125,-2.59375 4.09375,-2.609375 3.4375,-2.640625 2.953125,-3 2.84375,-3.484375 2.828125,-3.59375 2.828125,-3.625 2.828125,-3.984375 l 0,-1.96875 c 0,-0.421875 0,-0.734375 -0.484375,-1.109375 C 1.9375,-7.375 1.25,-7.484375 0.921875,-7.484375 c -0.09375,0 -0.203125,0 -0.203125,0.125 0,0.09375 0.0625,0.09375 0.15625,0.109375 0.625,0.03125 1.125,0.359375 1.25,0.859375 0.03125,0.09375 0.03125,0.109375 0.03125,0.46875 l 0,2.09375 c 0,0.453125 0.078125,0.625 0.390625,0.953125 0.21875,0.203125 0.5,0.296875 0.78125,0.375 -0.8125,0.234375 -1.171875,0.703125 -1.171875,1.28125 z m 0,0"
               style="stroke:none"
               inkscape:connector-curvature="0" />
          </symbol>
          <symbol
             id="textext-cffd00c4-5"
             overflow="visible"
             style="overflow:visible">
            <path
               id="path6245"
               d=""
               style="stroke:none"
               inkscape:connector-curvature="0" />
          </symbol>
          <symbol
             id="textext-cffd00c4-6"
             overflow="visible"
             style="overflow:visible">
            <path
               id="path6248"
               d="m 3.296875,2.390625 c 0,-0.03125 0,-0.046875 -0.171875,-0.21875 C 1.890625,0.921875 1.5625,-0.96875 1.5625,-2.5 c 0,-1.734375 0.375,-3.46875 1.609375,-4.703125 0.125,-0.125 0.125,-0.140625 0.125,-0.171875 0,-0.078125 -0.03125,-0.109375 -0.09375,-0.109375 -0.109375,0 -1,0.6875 -1.59375,1.953125 -0.5,1.09375 -0.625,2.203125 -0.625,3.03125 0,0.78125 0.109375,1.984375 0.65625,3.125 C 2.25,1.84375 3.09375,2.5 3.203125,2.5 c 0.0625,0 0.09375,-0.03125 0.09375,-0.109375 z m 0,0"
               style="stroke:none"
               inkscape:connector-curvature="0" />
          </symbol>
          <symbol
             id="textext-cffd00c4-7"
             overflow="visible"
             style="overflow:visible">
            <path
               id="path6251"
               d="m 2.875,-2.5 c 0,-0.765625 -0.109375,-1.96875 -0.65625,-3.109375 -0.59375,-1.21875 -1.453125,-1.875 -1.546875,-1.875 -0.0625,0 -0.109375,0.046875 -0.109375,0.109375 0,0.03125 0,0.046875 0.1875,0.234375 0.984375,0.984375 1.546875,2.5625 1.546875,4.640625 0,1.71875 -0.359375,3.46875 -1.59375,4.71875 C 0.5625,2.34375 0.5625,2.359375 0.5625,2.390625 0.5625,2.453125 0.609375,2.5 0.671875,2.5 0.765625,2.5 1.671875,1.8125 2.25,0.546875 2.765625,-0.546875 2.875,-1.65625 2.875,-2.5 Z m 0,0"
               style="stroke:none"
               inkscape:connector-curvature="0" />
          </symbol>
          <symbol
             id="textext-cffd00c4-8"
             overflow="visible"
             style="overflow:visible">
            <path
               id="path6254"
               d="m 4.578125,-3.1875 c 0,-0.796875 -0.046875,-1.59375 -0.390625,-2.328125 -0.453125,-0.96875 -1.28125,-1.125 -1.6875,-1.125 -0.609375,0 -1.328125,0.265625 -1.75,1.1875 -0.3125,0.6875 -0.359375,1.46875 -0.359375,2.265625 0,0.75 0.03125,1.640625 0.453125,2.40625 0.421875,0.796875 1.15625,1 1.640625,1 0.53125,0 1.296875,-0.203125 1.734375,-1.15625 0.3125,-0.6875 0.359375,-1.46875 0.359375,-2.25 z M 2.484375,0 C 2.09375,0 1.5,-0.25 1.328125,-1.203125 1.21875,-1.796875 1.21875,-2.71875 1.21875,-3.3125 c 0,-0.640625 0,-1.296875 0.078125,-1.828125 0.1875,-1.1875 0.9375,-1.28125 1.1875,-1.28125 0.328125,0 0.984375,0.1875 1.171875,1.171875 0.109375,0.5625 0.109375,1.3125 0.109375,1.9375 0,0.75 0,1.421875 -0.109375,2.0625 C 3.5,-0.296875 2.9375,0 2.484375,0 Z m 0,0"
               style="stroke:none"
               inkscape:connector-curvature="0" />
          </symbol>
          <symbol
             id="textext-cffd00c4-9"
             overflow="visible"
             style="overflow:visible">
            <path
               id="path6257"
               d="m 2.9375,-6.375 c 0,-0.25 0,-0.265625 -0.234375,-0.265625 C 2.078125,-6 1.203125,-6 0.890625,-6 l 0,0.3125 c 0.203125,0 0.78125,0 1.296875,-0.265625 l 0,5.171875 c 0,0.359375 -0.03125,0.46875 -0.921875,0.46875 l -0.3125,0 0,0.3125 c 0.34375,-0.03125 1.203125,-0.03125 1.609375,-0.03125 0.390625,0 1.265625,0 1.609375,0.03125 l 0,-0.3125 -0.3125,0 c -0.90625,0 -0.921875,-0.109375 -0.921875,-0.46875 z m 0,0"
               style="stroke:none"
               inkscape:connector-curvature="0" />
          </symbol>
          <symbol
             id="textext-cffd00c4-10"
             overflow="visible"
             style="overflow:visible">
            <path
               id="path6260"
               d=""
               style="stroke:none"
               inkscape:connector-curvature="0" />
          </symbol>
          <symbol
             id="textext-cffd00c4-11"
             overflow="visible"
             style="overflow:visible">
            <path
               id="path6263"
               d="M 3.328125,-3.015625 C 3.390625,-3.265625 3.625,-4.1875 4.3125,-4.1875 c 0.046875,0 0.296875,0 0.5,0.125 C 4.53125,-4 4.34375,-3.765625 4.34375,-3.515625 c 0,0.15625 0.109375,0.34375 0.375,0.34375 0.21875,0 0.53125,-0.171875 0.53125,-0.578125 0,-0.515625 -0.578125,-0.65625 -0.921875,-0.65625 -0.578125,0 -0.921875,0.53125 -1.046875,0.75 -0.25,-0.65625 -0.78125,-0.75 -1.078125,-0.75 -1.03125,0 -1.609375,1.28125 -1.609375,1.53125 0,0.109375 0.109375,0.109375 0.125,0.109375 0.078125,0 0.109375,-0.03125 0.125,-0.109375 0.34375,-1.0625 1,-1.3125 1.34375,-1.3125 0.1875,0 0.53125,0.09375 0.53125,0.671875 0,0.3125 -0.171875,0.96875 -0.53125,2.375 -0.15625,0.609375 -0.515625,1.03125 -0.953125,1.03125 -0.0625,0 -0.28125,0 -0.5,-0.125 0.25,-0.0625 0.46875,-0.265625 0.46875,-0.546875 0,-0.265625 -0.21875,-0.34375 -0.359375,-0.34375 -0.3125,0 -0.546875,0.25 -0.546875,0.578125 0,0.453125 0.484375,0.65625 0.921875,0.65625 0.671875,0 1.03125,-0.703125 1.046875,-0.75 0.125,0.359375 0.484375,0.75 1.078125,0.75 1.03125,0 1.59375,-1.28125 1.59375,-1.53125 0,-0.109375 -0.078125,-0.109375 -0.109375,-0.109375 -0.09375,0 -0.109375,0.046875 -0.140625,0.109375 -0.328125,1.078125 -1,1.3125 -1.3125,1.3125 -0.390625,0 -0.546875,-0.3125 -0.546875,-0.65625 0,-0.21875 0.046875,-0.4375 0.15625,-0.875 z m 0,0"
               style="stroke:none"
               inkscape:connector-curvature="0" />
          </symbol>
          <symbol
             id="textext-cffd00c4-12"
             overflow="visible"
             style="overflow:visible">
            <path
               id="path6266"
               d="m 2.03125,-0.015625 c 0,-0.65625 -0.25,-1.046875 -0.640625,-1.046875 -0.328125,0 -0.53125,0.25 -0.53125,0.53125 C 0.859375,-0.265625 1.0625,0 1.390625,0 1.5,0 1.640625,-0.046875 1.734375,-0.125 1.765625,-0.15625 1.78125,-0.15625 1.78125,-0.15625 c 0.015625,0 0.015625,0 0.015625,0.140625 0,0.75 -0.34375,1.34375 -0.671875,1.671875 -0.109375,0.109375 -0.109375,0.125 -0.109375,0.15625 0,0.078125 0.046875,0.109375 0.09375,0.109375 0.109375,0 0.921875,-0.765625 0.921875,-1.9375 z m 0,0"
               style="stroke:none"
               inkscape:connector-curvature="0" />
          </symbol>
          <symbol
             id="textext-cffd00c4-13"
             overflow="visible"
             style="overflow:visible">
            <path
               id="path6269"
               d="m 4.84375,-3.796875 c 0.046875,-0.140625 0.046875,-0.15625 0.046875,-0.234375 0,-0.171875 -0.140625,-0.265625 -0.296875,-0.265625 -0.09375,0 -0.25,0.0625 -0.34375,0.203125 -0.015625,0.0625 -0.109375,0.359375 -0.140625,0.546875 -0.078125,0.25 -0.140625,0.53125 -0.203125,0.796875 l -0.453125,1.796875 c -0.03125,0.140625 -0.46875,0.84375 -1.125,0.84375 -0.5,0 -0.609375,-0.4375 -0.609375,-0.8125 C 1.71875,-1.375 1.890625,-2 2.21875,-2.875 2.375,-3.28125 2.421875,-3.390625 2.421875,-3.59375 c 0,-0.4375 -0.3125,-0.8125 -0.8125,-0.8125 -0.953125,0 -1.3125,1.453125 -1.3125,1.53125 0,0.109375 0.09375,0.109375 0.109375,0.109375 0.109375,0 0.109375,-0.03125 0.15625,-0.1875 0.28125,-0.9375 0.671875,-1.234375 1.015625,-1.234375 0.078125,0 0.25,0 0.25,0.3125 0,0.25 -0.109375,0.515625 -0.171875,0.703125 -0.40625,1.0625 -0.578125,1.625 -0.578125,2.09375 0,0.890625 0.625,1.1875 1.21875,1.1875 0.390625,0 0.71875,-0.171875 1,-0.453125 -0.125,0.515625 -0.25,1.015625 -0.640625,1.546875 -0.265625,0.328125 -0.640625,0.625 -1.09375,0.625 -0.140625,0 -0.59375,-0.03125 -0.765625,-0.421875 0.15625,0 0.296875,0 0.421875,-0.125 C 1.328125,1.203125 1.421875,1.0625 1.421875,0.875 1.421875,0.5625 1.15625,0.53125 1.0625,0.53125 0.828125,0.53125 0.5,0.6875 0.5,1.171875 c 0,0.5 0.4375,0.875 1.0625,0.875 1.015625,0 2.046875,-0.90625 2.328125,-2.03125 z m 0,0"
               style="stroke:none"
               inkscape:connector-curvature="0" />
          </symbol>
          <symbol
             id="textext-cffd00c4-14"
             overflow="visible"
             style="overflow:visible">
            <path
               id="path6272"
               d="m 1.859375,-2.296875 c 0.296875,0 1.03125,-0.03125 1.53125,-0.234375 0.703125,-0.296875 0.75,-0.890625 0.75,-1.03125 0,-0.4375 -0.375,-0.84375 -1.0625,-0.84375 -1.109375,0 -2.625,0.96875 -2.625,2.71875 0,1.015625 0.59375,1.796875 1.578125,1.796875 1.421875,0 2.25,-1.0625 2.25,-1.171875 0,-0.0625 -0.046875,-0.140625 -0.109375,-0.140625 -0.0625,0 -0.078125,0.03125 -0.140625,0.109375 -0.78125,0.984375 -1.875,0.984375 -1.984375,0.984375 -0.78125,0 -0.875,-0.84375 -0.875,-1.15625 0,-0.125 0.015625,-0.421875 0.15625,-1.03125 z m -0.46875,-0.21875 C 1.78125,-4.03125 2.8125,-4.1875 3.078125,-4.1875 c 0.453125,0 0.734375,0.296875 0.734375,0.625 0,1.046875 -1.59375,1.046875 -2.015625,1.046875 z m 0,0"
               style="stroke:none"
               inkscape:connector-curvature="0" />
          </symbol>
          <symbol
             id="textext-cffd00c4-15"
             overflow="visible"
             style="overflow:visible">
            <path
               id="path6275"
               d=""
               style="stroke:none"
               inkscape:connector-curvature="0" />
          </symbol>
          <symbol
             id="textext-cffd00c4-16"
             overflow="visible"
             style="overflow:visible">
            <path
               id="path6278"
               d="M 1.734375,-0.734375 C 1.671875,-0.5 1.4375,-0.125 1.078125,-0.125 c -0.015625,0 -0.234375,0 -0.375,-0.09375 0.28125,-0.09375 0.3125,-0.34375 0.3125,-0.390625 0,-0.15625 -0.125,-0.25 -0.28125,-0.25 -0.203125,0 -0.40625,0.15625 -0.40625,0.421875 0,0.34375 0.390625,0.5 0.734375,0.5 0.328125,0 0.609375,-0.1875 0.78125,-0.484375 C 2.015625,-0.0625 2.390625,0.0625 2.671875,0.0625 c 0.8125,0 1.234375,-0.859375 1.234375,-1.0625 0,-0.09375 -0.09375,-0.09375 -0.109375,-0.09375 -0.109375,0 -0.109375,0.046875 -0.140625,0.125 -0.140625,0.484375 -0.5625,0.84375 -0.953125,0.84375 -0.28125,0 -0.421875,-0.1875 -0.421875,-0.453125 0,-0.1875 0.171875,-0.8125 0.359375,-1.59375 C 2.78125,-2.703125 3.09375,-2.875 3.328125,-2.875 c 0.015625,0 0.21875,0 0.375,0.09375 -0.21875,0.0625 -0.3125,0.265625 -0.3125,0.390625 0,0.140625 0.125,0.25 0.28125,0.25 0.15625,0 0.390625,-0.125 0.390625,-0.421875 0,-0.390625 -0.453125,-0.515625 -0.71875,-0.515625 -0.359375,0 -0.640625,0.234375 -0.78125,0.5 -0.125,-0.28125 -0.453125,-0.5 -0.84375,-0.5 C 0.9375,-3.078125 0.5,-2.21875 0.5,-2 c 0,0.078125 0.09375,0.078125 0.109375,0.078125 0.09375,0 0.09375,-0.015625 0.140625,-0.109375 C 0.921875,-2.578125 1.359375,-2.875 1.703125,-2.875 1.9375,-2.875 2.125,-2.75 2.125,-2.421875 2.125,-2.28125 2.03125,-1.9375 1.96875,-1.6875 Z m 0,0"
               style="stroke:none"
               inkscape:connector-curvature="0" />
          </symbol>
        </g>
      </defs>
      <g
         id="textext-cffd00c4-17">
        <g
           id="g6281"
           style="fill:#000000;fill-opacity:1">
          <use
             id="use6283"
             y="134.765"
             x="223.43201"
             xlink:href="#textext-cffd00c4-1"
             width="100%"
             height="100%" />
        </g>
        <g
           id="g6285"
           style="fill:#000000;fill-opacity:1">
          <use
             id="use6287"
             y="134.765"
             x="228.41299"
             xlink:href="#textext-cffd00c4-6"
             width="100%"
             height="100%" />
        </g>
        <g
           id="g6289"
           style="fill:#000000;fill-opacity:1">
          <use
             id="use6291"
             y="134.765"
             x="232.28799"
             xlink:href="#textext-cffd00c4-11"
             width="100%"
             height="100%" />
          <use
             id="use6293"
             y="134.765"
             x="237.98163"
             xlink:href="#textext-cffd00c4-12"
             width="100%"
             height="100%" />
        </g>
        <g
           id="g6295"
           style="fill:#000000;fill-opacity:1">
          <use
             id="use6297"
             y="134.765"
             x="242.41299"
             xlink:href="#textext-cffd00c4-13"
             width="100%"
             height="100%" />
        </g>
        <g
           id="g6299"
           style="fill:#000000;fill-opacity:1">
          <use
             id="use6301"
             y="134.765"
             x="247.651"
             xlink:href="#textext-cffd00c4-7"
             width="100%"
             height="100%" />
        </g>
        <g
           id="g6303"
           style="fill:#000000;fill-opacity:1">
          <use
             id="use6305"
             y="134.765"
             x="254.293"
             xlink:href="#textext-cffd00c4-2"
             width="100%"
             height="100%" />
        </g>
        <g
           id="g6307"
           style="fill:#000000;fill-opacity:1">
          <use
             id="use6309"
             y="134.765"
             x="259.828"
             xlink:href="#textext-cffd00c4-8"
             width="100%"
             height="100%" />
        </g>
        <g
           id="g6311"
           style="fill:#000000;fill-opacity:1">
          <use
             id="use6313"
             y="134.765"
             x="267.577"
             xlink:href="#textext-cffd00c4-3"
             width="100%"
             height="100%" />
        </g>
        <g
           id="g6315"
           style="fill:#000000;fill-opacity:1">
          <use
             id="use6317"
             y="134.765"
             x="278.09299"
             xlink:href="#textext-cffd00c4-13"
             width="100%"
             height="100%" />
        </g>
        <g
           id="g6319"
           style="fill:#000000;fill-opacity:1">
          <use
             id="use6321"
             y="134.765"
             x="286.10199"
             xlink:href="#textext-cffd00c4-3"
             width="100%"
             height="100%" />
        </g>
        <g
           id="g6323"
           style="fill:#000000;fill-opacity:1">
          <use
             id="use6325"
             y="134.765"
             x="296.61801"
             xlink:href="#textext-cffd00c4-14"
             width="100%"
             height="100%" />
        </g>
        <g
           id="g6327"
           style="fill:#000000;fill-opacity:1">
          <use
             id="use6329"
             y="131.149"
             x="301.25699"
             xlink:href="#textext-cffd00c4-16"
             width="100%"
             height="100%" />
        </g>
        <g
           id="g6331"
           style="fill:#000000;fill-opacity:1">
          <use
             id="use6333"
             y="134.765"
             x="306.27301"
             xlink:href="#textext-cffd00c4-12"
             width="100%"
             height="100%" />
        </g>
        <g
           id="g6335"
           style="fill:#000000;fill-opacity:1">
          <use
             id="use6337"
             y="134.765"
             x="310.70099"
             xlink:href="#textext-cffd00c4-8"
             width="100%"
             height="100%" />
        </g>
        <g
           id="g6339"
           style="fill:#000000;fill-opacity:1">
          <use
             id="use6341"
             y="134.765"
             x="318.44901"
             xlink:href="#textext-cffd00c4-3"
             width="100%"
             height="100%" />
        </g>
        <g
           id="g6343"
           style="fill:#000000;fill-opacity:1">
          <use
             id="use6345"
             y="134.765"
             x="328.965"
             xlink:href="#textext-cffd00c4-11"
             width="100%"
             height="100%" />
        </g>
        <g
           id="g6347"
           style="fill:#000000;fill-opacity:1">
          <use
             id="use6349"
             y="134.765"
             x="337.427"
             xlink:href="#textext-cffd00c4-3"
             width="100%"
             height="100%" />
        </g>
        <g
           id="g6351"
           style="fill:#000000;fill-opacity:1">
          <use
             id="use6353"
             y="134.765"
             x="347.94299"
             xlink:href="#textext-cffd00c4-9"
             width="100%"
             height="100%" />
        </g>
        <g
           id="g6355"
           style="fill:#000000;fill-opacity:1">
          <use
             id="use6357"
             y="134.765"
             x="352.92401"
             xlink:href="#textext-cffd00c4-4"
             width="100%"
             height="100%" />
        </g>
      </g>
    </g>
  </g>
</svg>
