<?xml version="1.0" encoding="UTF-8"?>
<svg xmlns="http://www.w3.org/2000/svg" xmlns:xlink="http://www.w3.org/1999/xlink" width="62pt" height="75pt" viewBox="0 0 62 75" version="1.1">
<g id="surface1">
<path style="fill:none;stroke-width:5;stroke-linecap:butt;stroke-linejoin:miter;stroke:rgb(0%,0%,0%);stroke-opacity:1;stroke-miterlimit:10;" d="M 581.679688 302.148438 L 581.679688 609.414062 " transform="matrix(0.1,0,0,-0.1,0,75)"/>
<path style="fill:none;stroke-width:10;stroke-linecap:butt;stroke-linejoin:miter;stroke:rgb(0%,0%,0%);stroke-opacity:1;stroke-miterlimit:10;" d="M 28.476562 50.820312 L 65 44.414062 L 102.226562 40.234375 L 139.804688 38.320312 L 177.5 38.710938 L 215 41.328125 L 251.992188 46.210938 L 288.28125 53.320312 L 323.476562 62.578125 L 357.421875 73.90625 L 389.804688 87.265625 L 420.351562 102.539062 L 448.90625 119.570312 L 475.15625 138.242188 L 498.984375 158.4375 L 520.15625 180 L 538.554688 202.773438 L 554.023438 226.5625 L 566.40625 251.171875 L 575.625 276.445312 L 581.679688 302.148438 " transform="matrix(0.1,0,0,-0.1,0,75)"/>
<path style="fill:none;stroke-width:10;stroke-linecap:butt;stroke-linejoin:miter;stroke:rgb(0%,0%,0%);stroke-opacity:1;stroke-miterlimit:10;" d="M 28.476562 50.820312 L 94.726562 89.6875 L 162.421875 134.6875 L 229.84375 184.648438 L 295.390625 238.359375 L 357.421875 294.53125 L 414.414062 351.71875 L 464.921875 408.554688 L 487.382812 436.40625 L 507.773438 463.632812 L 525.976562 490.078125 L 541.875 515.585938 L 555.390625 540 L 566.40625 563.125 L 574.84375 584.882812 L 580.742188 605.117188 L 583.945312 623.710938 L 584.492188 640.507812 L 582.382812 655.46875 L 577.65625 668.4375 L 570.273438 679.375 L 560.351562 688.203125 L 547.890625 694.84375 L 532.96875 699.296875 L 515.742188 701.523438 L 496.25 701.484375 L 474.648438 699.21875 L 451.054688 694.6875 L 425.664062 687.96875 L 398.554688 679.101562 L 369.921875 668.125 L 339.960938 655.078125 L 308.828125 640.117188 L 276.757812 623.242188 " transform="matrix(0.1,0,0,-0.1,0,75)"/>
<path style="fill:none;stroke-width:10;stroke-linecap:butt;stroke-linejoin:miter;stroke:rgb(0%,0%,0%);stroke-opacity:1;stroke-miterlimit:10;" d="M 28.476562 50.820312 L 276.757812 623.242188 " transform="matrix(0.1,0,0,-0.1,0,75)"/>
<path style="fill:none;stroke-width:10;stroke-linecap:butt;stroke-linejoin:miter;stroke:rgb(0%,0%,0%);stroke-opacity:1;stroke-dasharray:20,20;stroke-dashoffset:10;stroke-miterlimit:10;" d="M 581.679688 302.148438 L 584.140625 322.96875 L 584.492188 343.828125 L 582.773438 364.648438 L 578.945312 385.3125 L 573.007812 405.78125 L 565.078125 425.898438 L 555.117188 445.585938 L 543.164062 464.726562 L 513.671875 501.09375 L 477.148438 534.257812 L 434.296875 563.554688 L 385.976562 588.476562 L 333.125 608.515625 L 276.757812 623.242188 " transform="matrix(0.1,0,0,-0.1,0,75)"/>
<path style=" stroke:none;fill-rule:nonzero;fill:rgb(59.959412%,59.959412%,59.959412%);fill-opacity:1;" d="M 25.199219 70.378906 L 25.199219 54.777344 L 46.699219 5.203125 L 46.699219 20.804688 "/>
<path style="fill:none;stroke-width:5;stroke-linecap:butt;stroke-linejoin:miter;stroke:rgb(0%,0%,0%);stroke-opacity:1;stroke-miterlimit:10;" d="M 251.992188 46.210938 L 251.992188 202.226562 " transform="matrix(0.1,0,0,-0.1,0,75)"/>
<path style="fill:none;stroke-width:5;stroke-linecap:butt;stroke-linejoin:miter;stroke:rgb(0%,0%,0%);stroke-opacity:1;stroke-miterlimit:10;" d="M 466.992188 541.953125 L 466.992188 697.96875 " transform="matrix(0.1,0,0,-0.1,0,75)"/>
<path style="fill:none;stroke-width:5;stroke-linecap:butt;stroke-linejoin:miter;stroke:rgb(0%,0%,0%);stroke-opacity:1;stroke-miterlimit:10;" d="M 466.992188 541.953125 L 251.992188 46.210938 " transform="matrix(0.1,0,0,-0.1,0,75)"/>
<path style="fill:none;stroke-width:5;stroke-linecap:butt;stroke-linejoin:miter;stroke:rgb(0%,0%,0%);stroke-opacity:1;stroke-miterlimit:10;" d="M 466.992188 697.96875 L 251.992188 202.226562 " transform="matrix(0.1,0,0,-0.1,0,75)"/>
<path style="fill:none;stroke-width:10;stroke-linecap:butt;stroke-linejoin:miter;stroke:rgb(0%,0%,0%);stroke-opacity:1;stroke-miterlimit:10;" d="M 28.476562 50.820312 L 94.726562 89.6875 L 162.421875 134.6875 L 229.84375 184.648438 L 295.390625 238.359375 L 357.421875 294.53125 L 414.414062 351.71875 L 464.921875 408.554688 L 487.382812 436.40625 L 507.773438 463.632812 L 525.976562 490.078125 L 541.875 515.585938 L 555.390625 540 L 566.40625 563.125 L 574.84375 584.882812 L 580.742188 605.117188 L 583.945312 623.710938 L 584.492188 640.507812 L 582.382812 655.46875 L 577.65625 668.4375 L 570.273438 679.375 L 560.351562 688.203125 L 547.890625 694.84375 L 532.96875 699.296875 L 515.742188 701.523438 L 496.25 701.484375 L 474.648438 699.21875 L 451.054688 694.6875 L 425.664062 687.96875 L 398.554688 679.101562 L 369.921875 668.125 L 339.960938 655.078125 L 308.828125 640.117188 L 276.757812 623.242188 " transform="matrix(0.1,0,0,-0.1,0,75)"/>
</g>
</svg>
