<?xml version="1.0" encoding="UTF-8"?>
<svg xmlns="http://www.w3.org/2000/svg" xmlns:xlink="http://www.w3.org/1999/xlink" width="66pt" height="75pt" viewBox="0 0 66 75" version="1.1">
<g id="surface1">
<path style="fill:none;stroke-width:5;stroke-linecap:butt;stroke-linejoin:miter;stroke:rgb(0%,0%,0%);stroke-opacity:1;stroke-miterlimit:10;" d="M 611.679688 302.148438 L 611.679688 609.414062 " transform="matrix(0.1,0,0,-0.1,0,75)"/>
<path style="fill:none;stroke-width:10;stroke-linecap:butt;stroke-linejoin:miter;stroke:rgb(0%,0%,0%);stroke-opacity:1;stroke-miterlimit:10;" d="M 58.476562 50.820312 L 95 44.414062 L 132.226562 40.234375 L 169.804688 38.320312 L 207.5 38.710938 L 245 41.328125 L 281.992188 46.210938 L 318.28125 53.320312 L 353.476562 62.578125 L 387.421875 73.90625 L 419.804688 87.265625 L 450.351562 102.539062 L 478.90625 119.570312 L 505.15625 138.242188 L 528.984375 158.4375 L 550.15625 180 L 568.554688 202.773438 L 584.023438 226.5625 L 596.40625 251.171875 L 605.625 276.445312 L 611.679688 302.148438 " transform="matrix(0.1,0,0,-0.1,0,75)"/>
<path style="fill:none;stroke-width:10;stroke-linecap:butt;stroke-linejoin:miter;stroke:rgb(0%,0%,0%);stroke-opacity:1;stroke-miterlimit:10;" d="M 58.476562 50.820312 L 124.726562 89.6875 L 192.421875 134.6875 L 259.84375 184.648438 L 325.390625 238.359375 L 387.421875 294.53125 L 444.414062 351.71875 L 494.921875 408.554688 L 517.382812 436.40625 L 537.773438 463.632812 L 555.976562 490.078125 L 571.875 515.585938 L 585.390625 540 L 596.40625 563.125 L 604.84375 584.882812 L 610.742188 605.117188 L 613.945312 623.710938 L 614.492188 640.507812 L 612.382812 655.46875 L 607.65625 668.4375 L 600.273438 679.375 L 590.351562 688.203125 L 577.890625 694.84375 L 562.96875 699.296875 L 545.742188 701.523438 L 526.25 701.484375 L 504.648438 699.21875 L 481.054688 694.6875 L 455.664062 687.96875 L 428.554688 679.101562 L 399.921875 668.125 L 369.960938 655.078125 L 338.828125 640.117188 L 306.757812 623.242188 " transform="matrix(0.1,0,0,-0.1,0,75)"/>
<path style="fill:none;stroke-width:10;stroke-linecap:butt;stroke-linejoin:miter;stroke:rgb(0%,0%,0%);stroke-opacity:1;stroke-miterlimit:10;" d="M 58.476562 50.820312 L 306.757812 623.242188 " transform="matrix(0.1,0,0,-0.1,0,75)"/>
<path style="fill:none;stroke-width:10;stroke-linecap:butt;stroke-linejoin:miter;stroke:rgb(0%,0%,0%);stroke-opacity:1;stroke-dasharray:20,20;stroke-dashoffset:10;stroke-miterlimit:10;" d="M 611.679688 302.148438 L 614.140625 322.96875 L 614.492188 343.828125 L 612.773438 364.648438 L 608.945312 385.3125 L 603.007812 405.78125 L 595.078125 425.898438 L 585.117188 445.585938 L 573.164062 464.726562 L 543.671875 501.09375 L 507.148438 534.257812 L 464.296875 563.554688 L 415.976562 588.476562 L 363.125 608.515625 L 306.757812 623.242188 " transform="matrix(0.1,0,0,-0.1,0,75)"/>
<path style="fill:none;stroke-width:5;stroke-linecap:butt;stroke-linejoin:miter;stroke:rgb(59.959412%,59.959412%,59.959412%);stroke-opacity:1;stroke-miterlimit:10;" d="M 281.992188 46.210938 L 281.992188 202.226562 " transform="matrix(0.1,0,0,-0.1,0,75)"/>
<path style="fill:none;stroke-width:5;stroke-linecap:butt;stroke-linejoin:miter;stroke:rgb(59.959412%,59.959412%,59.959412%);stroke-opacity:1;stroke-miterlimit:10;" d="M 496.992188 541.953125 L 496.992188 697.96875 " transform="matrix(0.1,0,0,-0.1,0,75)"/>
<path style="fill:none;stroke-width:5;stroke-linecap:butt;stroke-linejoin:miter;stroke:rgb(59.959412%,59.959412%,59.959412%);stroke-opacity:1;stroke-miterlimit:10;" d="M 496.992188 541.953125 L 281.992188 46.210938 " transform="matrix(0.1,0,0,-0.1,0,75)"/>
<path style="fill:none;stroke-width:5;stroke-linecap:butt;stroke-linejoin:miter;stroke:rgb(59.959412%,59.959412%,59.959412%);stroke-opacity:1;stroke-miterlimit:10;" d="M 496.992188 697.96875 L 281.992188 202.226562 " transform="matrix(0.1,0,0,-0.1,0,75)"/>
<path style="fill:none;stroke-width:10;stroke-linecap:butt;stroke-linejoin:miter;stroke:rgb(0%,0%,0%);stroke-opacity:1;stroke-miterlimit:10;" d="M 58.476562 50.820312 L 124.726562 89.6875 L 192.421875 134.6875 L 259.84375 184.648438 L 325.390625 238.359375 L 387.421875 294.53125 L 444.414062 351.71875 L 494.921875 408.554688 L 517.382812 436.40625 L 537.773438 463.632812 L 555.976562 490.078125 L 571.875 515.585938 L 585.390625 540 L 596.40625 563.125 L 604.84375 584.882812 L 610.742188 605.117188 L 613.945312 623.710938 L 614.492188 640.507812 L 612.382812 655.46875 L 607.65625 668.4375 L 600.273438 679.375 L 590.351562 688.203125 L 577.890625 694.84375 L 562.96875 699.296875 L 545.742188 701.523438 L 526.25 701.484375 L 504.648438 699.21875 L 481.054688 694.6875 L 455.664062 687.96875 L 428.554688 679.101562 L 399.921875 668.125 L 369.960938 655.078125 L 338.828125 640.117188 L 306.757812 623.242188 " transform="matrix(0.1,0,0,-0.1,0,75)"/>
</g>
</svg>
