<?xml version="1.0" encoding="UTF-8"?>
<svg xmlns="http://www.w3.org/2000/svg" xmlns:xlink="http://www.w3.org/1999/xlink" width="180pt" height="92pt" viewBox="0 0 180 92" version="1.1">
<defs>
<clipPath id="clip1">
  <path d="M 15 2.800781 L 163 2.800781 L 163 87 L 15 87 Z M 15 2.800781 "/>
</clipPath>
</defs>
<g id="surface1">
<path style="fill:none;stroke-width:3;stroke-linecap:butt;stroke-linejoin:miter;stroke:rgb(0%,0%,0%);stroke-opacity:1;stroke-miterlimit:10;" d="M 25.585938 104.414062 L 1833.59375 104.414062 " transform="matrix(0.1,0,0,-0.1,0,92)"/>
<path style="fill:none;stroke-width:3;stroke-linecap:butt;stroke-linejoin:miter;stroke:rgb(0%,0%,0%);stroke-opacity:1;stroke-miterlimit:10;" d="M 111.679688 18.007812 L 111.679688 881.992188 " transform="matrix(0.1,0,0,-0.1,0,92)"/>
<g clip-path="url(#clip1)" clip-rule="nonzero">
<path style="fill:none;stroke-width:10;stroke-linecap:butt;stroke-linejoin:miter;stroke:rgb(0%,0%,0%);stroke-opacity:1;stroke-miterlimit:10;" d="M 295.507812 355.429688 L 1428.164062 769.140625 L 1487.03125 606.757812 L 354.414062 193.046875 Z M 295.507812 355.429688 " transform="matrix(0.1,0,0,-0.1,0,92)"/>
</g>
<path style="fill:none;stroke-width:10;stroke-linecap:butt;stroke-linejoin:miter;stroke:rgb(69.921875%,69.921875%,69.921875%);stroke-opacity:1;stroke-miterlimit:10;" d="M 420.585938 263.203125 L 391.132812 344.375 " transform="matrix(0.1,0,0,-0.1,0,92)"/>
<path style="fill:none;stroke-width:10;stroke-linecap:butt;stroke-linejoin:miter;stroke:rgb(69.921875%,69.921875%,69.921875%);stroke-opacity:1;stroke-miterlimit:10;" d="M 744.179688 381.40625 L 714.765625 462.578125 " transform="matrix(0.1,0,0,-0.1,0,92)"/>
<path style="fill:none;stroke-width:10;stroke-linecap:butt;stroke-linejoin:miter;stroke:rgb(69.921875%,69.921875%,69.921875%);stroke-opacity:1;stroke-miterlimit:10;" d="M 1067.8125 499.609375 L 1038.359375 580.78125 " transform="matrix(0.1,0,0,-0.1,0,92)"/>
<path style="fill:none;stroke-width:10;stroke-linecap:butt;stroke-linejoin:miter;stroke:rgb(69.921875%,69.921875%,69.921875%);stroke-opacity:1;stroke-miterlimit:10;" d="M 1391.40625 617.8125 L 1361.953125 698.984375 " transform="matrix(0.1,0,0,-0.1,0,92)"/>
<path style="fill:none;stroke-width:10;stroke-linecap:butt;stroke-linejoin:miter;stroke:rgb(69.921875%,69.921875%,69.921875%);stroke-opacity:1;stroke-miterlimit:10;" d="M 420.585938 263.203125 L 744.179688 381.40625 " transform="matrix(0.1,0,0,-0.1,0,92)"/>
<path style="fill:none;stroke-width:10;stroke-linecap:butt;stroke-linejoin:miter;stroke:rgb(69.921875%,69.921875%,69.921875%);stroke-opacity:1;stroke-miterlimit:10;" d="M 744.179688 381.40625 L 1067.8125 499.609375 " transform="matrix(0.1,0,0,-0.1,0,92)"/>
<path style="fill:none;stroke-width:10;stroke-linecap:butt;stroke-linejoin:miter;stroke:rgb(69.921875%,69.921875%,69.921875%);stroke-opacity:1;stroke-miterlimit:10;" d="M 1067.8125 499.609375 L 1391.40625 617.8125 " transform="matrix(0.1,0,0,-0.1,0,92)"/>
<path style="fill:none;stroke-width:10;stroke-linecap:butt;stroke-linejoin:miter;stroke:rgb(69.921875%,69.921875%,69.921875%);stroke-opacity:1;stroke-miterlimit:10;" d="M 391.132812 344.375 L 714.765625 462.578125 " transform="matrix(0.1,0,0,-0.1,0,92)"/>
<path style="fill:none;stroke-width:10;stroke-linecap:butt;stroke-linejoin:miter;stroke:rgb(69.921875%,69.921875%,69.921875%);stroke-opacity:1;stroke-miterlimit:10;" d="M 714.765625 462.578125 L 1038.359375 580.78125 " transform="matrix(0.1,0,0,-0.1,0,92)"/>
<path style="fill:none;stroke-width:10;stroke-linecap:butt;stroke-linejoin:miter;stroke:rgb(69.921875%,69.921875%,69.921875%);stroke-opacity:1;stroke-miterlimit:10;" d="M 1038.359375 580.78125 L 1361.953125 698.984375 " transform="matrix(0.1,0,0,-0.1,0,92)"/>
<path style="fill:none;stroke-width:10;stroke-linecap:butt;stroke-linejoin:miter;stroke:rgb(69.921875%,69.921875%,69.921875%);stroke-opacity:1;stroke-miterlimit:10;" d="M 420.585938 263.203125 L 714.765625 462.578125 " transform="matrix(0.1,0,0,-0.1,0,92)"/>
<path style="fill:none;stroke-width:10;stroke-linecap:butt;stroke-linejoin:miter;stroke:rgb(69.921875%,69.921875%,69.921875%);stroke-opacity:1;stroke-miterlimit:10;" d="M 744.179688 381.40625 L 391.132812 344.375 " transform="matrix(0.1,0,0,-0.1,0,92)"/>
<path style="fill:none;stroke-width:10;stroke-linecap:butt;stroke-linejoin:miter;stroke:rgb(69.921875%,69.921875%,69.921875%);stroke-opacity:1;stroke-miterlimit:10;" d="M 1067.8125 499.609375 L 714.765625 462.578125 " transform="matrix(0.1,0,0,-0.1,0,92)"/>
<path style="fill:none;stroke-width:10;stroke-linecap:butt;stroke-linejoin:miter;stroke:rgb(69.921875%,69.921875%,69.921875%);stroke-opacity:1;stroke-miterlimit:10;" d="M 744.179688 381.40625 L 1038.359375 580.78125 " transform="matrix(0.1,0,0,-0.1,0,92)"/>
<path style="fill:none;stroke-width:10;stroke-linecap:butt;stroke-linejoin:miter;stroke:rgb(69.921875%,69.921875%,69.921875%);stroke-opacity:1;stroke-miterlimit:10;" d="M 1067.8125 499.609375 L 1361.953125 698.984375 " transform="matrix(0.1,0,0,-0.1,0,92)"/>
<path style="fill:none;stroke-width:10;stroke-linecap:butt;stroke-linejoin:miter;stroke:rgb(69.921875%,69.921875%,69.921875%);stroke-opacity:1;stroke-miterlimit:10;" d="M 1391.40625 617.8125 L 1038.359375 580.78125 " transform="matrix(0.1,0,0,-0.1,0,92)"/>
<path style=" stroke:none;fill-rule:nonzero;fill:rgb(0%,0%,0%);fill-opacity:1;" d="M 44.484375 65.679688 C 44.484375 64.335938 43.398438 63.246094 42.058594 63.246094 C 40.71875 63.246094 39.632812 64.335938 39.632812 65.679688 C 39.632812 67.027344 40.71875 68.117188 42.058594 68.117188 C 43.398438 68.117188 44.484375 67.027344 44.484375 65.679688 "/>
<path style=" stroke:none;fill-rule:nonzero;fill:rgb(0%,0%,0%);fill-opacity:1;" d="M 76.847656 53.859375 C 76.847656 52.515625 75.761719 51.425781 74.417969 51.425781 C 73.078125 51.425781 71.992188 52.515625 71.992188 53.859375 C 71.992188 55.207031 73.078125 56.296875 74.417969 56.296875 C 75.761719 56.296875 76.847656 55.207031 76.847656 53.859375 "/>
<path style=" stroke:none;fill-rule:nonzero;fill:rgb(0%,0%,0%);fill-opacity:1;" d="M 109.207031 42.039062 C 109.207031 40.695312 108.121094 39.605469 106.78125 39.605469 C 105.441406 39.605469 104.355469 40.695312 104.355469 42.039062 C 104.355469 43.386719 105.441406 44.476562 106.78125 44.476562 C 108.121094 44.476562 109.207031 43.386719 109.207031 42.039062 "/>
<path style=" stroke:none;fill-rule:nonzero;fill:rgb(0%,0%,0%);fill-opacity:1;" d="M 141.570312 30.21875 C 141.570312 28.875 140.480469 27.785156 139.140625 27.785156 C 137.800781 27.785156 136.714844 28.875 136.714844 30.21875 C 136.714844 31.566406 137.800781 32.65625 139.140625 32.65625 C 140.480469 32.65625 141.570312 31.566406 141.570312 30.21875 "/>
<path style=" stroke:none;fill-rule:nonzero;fill:rgb(0%,0%,0%);fill-opacity:1;" d="M 41.539062 57.5625 C 41.539062 56.214844 40.453125 55.125 39.113281 55.125 C 37.773438 55.125 36.6875 56.214844 36.6875 57.5625 C 36.6875 58.90625 37.773438 59.996094 39.113281 59.996094 C 40.453125 59.996094 41.539062 58.90625 41.539062 57.5625 "/>
<path style=" stroke:none;fill-rule:nonzero;fill:rgb(0%,0%,0%);fill-opacity:1;" d="M 73.902344 45.742188 C 73.902344 44.394531 72.816406 43.304688 71.476562 43.304688 C 70.136719 43.304688 69.046875 44.394531 69.046875 45.742188 C 69.046875 47.085938 70.136719 48.175781 71.476562 48.175781 C 72.816406 48.175781 73.902344 47.085938 73.902344 45.742188 "/>
<path style=" stroke:none;fill-rule:nonzero;fill:rgb(0%,0%,0%);fill-opacity:1;" d="M 106.261719 33.921875 C 106.261719 32.574219 105.175781 31.484375 103.835938 31.484375 C 102.496094 31.484375 101.410156 32.574219 101.410156 33.921875 C 101.410156 35.265625 102.496094 36.355469 103.835938 36.355469 C 105.175781 36.355469 106.261719 35.265625 106.261719 33.921875 "/>
<path style=" stroke:none;fill-rule:nonzero;fill:rgb(0%,0%,0%);fill-opacity:1;" d="M 138.625 22.101562 C 138.625 20.753906 137.539062 19.664062 136.195312 19.664062 C 134.855469 19.664062 133.769531 20.753906 133.769531 22.101562 C 133.769531 23.445312 134.855469 24.535156 136.195312 24.535156 C 137.539062 24.535156 138.625 23.445312 138.625 22.101562 "/>
</g>
</svg>
