<?xml version="1.0" encoding="UTF-8"?>
<svg xmlns="http://www.w3.org/2000/svg" xmlns:xlink="http://www.w3.org/1999/xlink" width="612pt" height="792pt" viewBox="0 0 612 792" version="1.1">
<g id="surface1">
<path style=" stroke:none;fill-rule:nonzero;fill:rgb(22.698975%,59.999084%,37.998962%);fill-opacity:1;" d="M 0.203125 792 L 611.796875 792 L 611.796875 0 L 0.203125 0 Z M 0.203125 792 "/>
<path style="fill:none;stroke-width:1;stroke-linecap:butt;stroke-linejoin:miter;stroke:rgb(100%,100%,100%);stroke-opacity:1;stroke-dasharray:5.068,5.068;stroke-miterlimit:10;" d="M 0.000225 -0.00144375 L 17.738506 -0.00144375 " transform="matrix(1,0,0,-1,-4.5471,593.1509)"/>
<path style="fill:none;stroke-width:1;stroke-linecap:butt;stroke-linejoin:miter;stroke:rgb(100%,100%,100%);stroke-opacity:1;stroke-miterlimit:10;" d="M -0.00124375 -0.00144375 L 2.498756 -0.00144375 " transform="matrix(1,0,0,-1,15.7239,593.1509)"/>
<path style="fill:none;stroke-width:1;stroke-linecap:butt;stroke-linejoin:miter;stroke:rgb(100%,100%,100%);stroke-opacity:1;stroke-dasharray:5.063,5.063;stroke-miterlimit:10;" d="M -0.0002 0.000425 L -0.0002 311.379331 " transform="matrix(1,0,0,-1,48.5627,825.6723)"/>
<path style="fill:none;stroke-width:1;stroke-linecap:butt;stroke-linejoin:miter;stroke:rgb(100%,100%,100%);stroke-opacity:1;stroke-miterlimit:10;" d="M -0.0002 0.00098125 L -0.0002 2.500981 L 2.4998 2.500981 " transform="matrix(1,0,0,-1,48.5627,511.7627)"/>
<path style="fill:none;stroke-width:1;stroke-linecap:butt;stroke-linejoin:miter;stroke:rgb(100%,100%,100%);stroke-opacity:1;stroke-dasharray:5.068,5.068;stroke-miterlimit:10;" d="M -0.00119375 0.00098125 L 17.737087 0.00098125 " transform="matrix(1,0,0,-1,56.1301,509.2627)"/>
<path style="fill:none;stroke-width:1;stroke-linecap:butt;stroke-linejoin:miter;stroke:rgb(100%,100%,100%);stroke-opacity:1;stroke-miterlimit:10;" d="M 0.00124375 0.00098125 L 2.501244 0.00098125 L 2.501244 -2.499019 " transform="matrix(1,0,0,-1,76.4011,509.2627)"/>
<path style="fill:none;stroke-width:1;stroke-linecap:butt;stroke-linejoin:miter;stroke:rgb(100%,100%,100%);stroke-opacity:1;stroke-dasharray:5.063,5.063;stroke-miterlimit:10;" d="M 0.00124375 0.00148125 L 0.00124375 -311.377425 " transform="matrix(1,0,0,-1,78.9011,516.8257)"/>
<path style="fill:none;stroke-width:1;stroke-linecap:butt;stroke-linejoin:miter;stroke:rgb(100%,100%,100%);stroke-opacity:1;stroke-miterlimit:10;" d="M 0.00124375 0.00049375 L 2.501244 0.00049375 " transform="matrix(1,0,0,-1,78.9011,692.0669)"/>
<path style="fill:none;stroke-width:1;stroke-linecap:butt;stroke-linejoin:miter;stroke:rgb(100%,100%,100%);stroke-opacity:1;stroke-dasharray:5.068,5.068;stroke-miterlimit:10;" d="M -0.00025 0.00049375 L 17.738031 0.00049375 " transform="matrix(1,0,0,-1,86.469,692.0669)"/>
<path style="fill:none;stroke-width:1;stroke-linecap:butt;stroke-linejoin:miter;stroke:rgb(100%,100%,100%);stroke-opacity:1;stroke-miterlimit:10;" d="M -0.00171875 0.00049375 L 2.498281 0.00049375 " transform="matrix(1,0,0,-1,106.74,692.0669)"/>
<path style="fill:none;stroke-width:1;stroke-linecap:butt;stroke-linejoin:miter;stroke:rgb(100%,100%,100%);stroke-opacity:1;stroke-dasharray:5.06,5.06;stroke-miterlimit:10;" d="M -0.00171875 -0.00048125 L -0.00171875 189.745612 " transform="matrix(1,0,0,-1,109.24,825.6753)"/>
<path style="fill:none;stroke-width:1;stroke-linecap:butt;stroke-linejoin:miter;stroke:rgb(100%,100%,100%);stroke-opacity:1;stroke-miterlimit:10;" d="M -0.00171875 -0.0000375 L -0.00171875 2.499963 L 2.498281 2.499963 " transform="matrix(1,0,0,-1,109.24,633.3984)"/>
<path style="fill:none;stroke-width:1;stroke-linecap:butt;stroke-linejoin:miter;stroke:rgb(100%,100%,100%);stroke-opacity:1;stroke-dasharray:5.068,5.068;stroke-miterlimit:10;" d="M 0.00069375 -0.0000375 L 17.735069 -0.0000375 " transform="matrix(1,0,0,-1,116.8079,630.8984)"/>
<path style="fill:none;stroke-width:1;stroke-linecap:butt;stroke-linejoin:miter;stroke:rgb(100%,100%,100%);stroke-opacity:1;stroke-miterlimit:10;" d="M -0.000775 -0.0000375 L 2.499225 -0.0000375 " transform="matrix(1,0,0,-1,137.0789,630.8984)"/>
<path style="fill:none;stroke-width:1;stroke-linecap:butt;stroke-linejoin:miter;stroke:rgb(100%,100%,100%);stroke-opacity:1;stroke-dasharray:5.097,5.097;stroke-miterlimit:10;" d="M -0.000775 -0.001925 L -0.000775 201.3262 " transform="matrix(1,0,0,-1,139.5789,825.6387)"/>
<path style="fill:none;stroke-width:1;stroke-linecap:butt;stroke-linejoin:miter;stroke:rgb(100%,100%,100%);stroke-opacity:1;stroke-miterlimit:10;" d="M -0.000775 0.00098125 L -0.000775 2.500981 L 2.499225 2.500981 " transform="matrix(1,0,0,-1,139.5789,621.7627)"/>
<path style="fill:none;stroke-width:1;stroke-linecap:butt;stroke-linejoin:miter;stroke:rgb(100%,100%,100%);stroke-opacity:1;stroke-dasharray:5.068,5.068;stroke-miterlimit:10;" d="M -0.00166875 0.00098125 L 17.736613 0.00098125 " transform="matrix(1,0,0,-1,147.1462,619.2627)"/>
<path style="fill:none;stroke-width:1;stroke-linecap:butt;stroke-linejoin:miter;stroke:rgb(100%,100%,100%);stroke-opacity:1;stroke-miterlimit:10;" d="M 0.00076875 0.00098125 L 2.500769 0.00098125 " transform="matrix(1,0,0,-1,167.4172,619.2627)"/>
<path style="fill:none;stroke-width:1;stroke-linecap:butt;stroke-linejoin:miter;stroke:rgb(100%,100%,100%);stroke-opacity:1;stroke-dasharray:5.002,5.002;stroke-miterlimit:10;" d="M 0.00076875 -0.000975 L 0.00076875 227.581056 " transform="matrix(1,0,0,-1,169.9172,825.7334)"/>
<path style="fill:none;stroke-width:1;stroke-linecap:butt;stroke-linejoin:miter;stroke:rgb(100%,100%,100%);stroke-opacity:1;stroke-miterlimit:10;" d="M 0.00076875 -0.00144375 L 0.00076875 2.498556 L 2.500769 2.498556 " transform="matrix(1,0,0,-1,169.9172,595.6509)"/>
<path style="fill:none;stroke-width:1;stroke-linecap:butt;stroke-linejoin:miter;stroke:rgb(100%,100%,100%);stroke-opacity:1;stroke-dasharray:5.068,5.068;stroke-miterlimit:10;" d="M -0.000725 -0.00144375 L 17.737556 -0.00144375 " transform="matrix(1,0,0,-1,177.4851,593.1509)"/>
<path style="fill:none;stroke-width:1;stroke-linecap:butt;stroke-linejoin:miter;stroke:rgb(100%,100%,100%);stroke-opacity:1;stroke-miterlimit:10;" d="M 0.0017125 -0.00144375 L 2.501712 -0.00144375 " transform="matrix(1,0,0,-1,197.7561,593.1509)"/>
<path style="fill:none;stroke-width:1;stroke-linecap:butt;stroke-linejoin:miter;stroke:rgb(100%,100%,100%);stroke-opacity:1;stroke-dasharray:4.983,4.983;stroke-miterlimit:10;" d="M -0.00124375 -0.00095625 L -0.00124375 286.506856 " transform="matrix(1,0,0,-1,18.2239,827.8467)"/>
<path style="fill:none;stroke-width:1;stroke-linecap:butt;stroke-linejoin:miter;stroke:rgb(100%,100%,100%);stroke-opacity:1;stroke-miterlimit:10;" d="M -0.00124375 -0.00005625 L -0.00124375 2.499944 L 2.498756 2.499944 " transform="matrix(1,0,0,-1,18.2239,538.8476)"/>
<path style="fill:none;stroke-width:1;stroke-linecap:butt;stroke-linejoin:miter;stroke:rgb(100%,100%,100%);stroke-opacity:1;stroke-dasharray:5.068,5.068;stroke-miterlimit:10;" d="M 0.00126875 -0.00005625 L 17.735644 -0.00005625 " transform="matrix(1,0,0,-1,25.7917,536.3476)"/>
<path style="fill:none;stroke-width:1;stroke-linecap:butt;stroke-linejoin:miter;stroke:rgb(100%,100%,100%);stroke-opacity:1;stroke-miterlimit:10;" d="M -0.0002 -0.00005625 L 2.4998 -0.00005625 " transform="matrix(1,0,0,-1,46.0627,536.3476)"/>
<path style="fill:none;stroke-width:1;stroke-linecap:butt;stroke-linejoin:miter;stroke:rgb(100%,100%,100%);stroke-opacity:1;stroke-miterlimit:10;" d="M -0.00075 -0.00143125 L 2.49925 -0.00143125 " transform="matrix(1,0,0,-1,230.5945,611.3931)"/>
<path style="fill:none;stroke-width:1;stroke-linecap:butt;stroke-linejoin:miter;stroke:rgb(100%,100%,100%);stroke-opacity:1;stroke-dasharray:5.068,5.068;stroke-miterlimit:10;" d="M 0.0016625 -0.00143125 L 17.736037 -0.00143125 " transform="matrix(1,0,0,-1,238.1624,611.3931)"/>
<path style="fill:none;stroke-width:1;stroke-linecap:butt;stroke-linejoin:miter;stroke:rgb(100%,100%,100%);stroke-opacity:1;stroke-miterlimit:10;" d="M 0.00029375 -0.00143125 L 2.500294 -0.00143125 " transform="matrix(1,0,0,-1,258.4333,611.3931)"/>
<path style="fill:none;stroke-width:1;stroke-linecap:butt;stroke-linejoin:miter;stroke:rgb(100%,100%,100%);stroke-opacity:1;stroke-dasharray:4.921,4.921;stroke-miterlimit:10;" d="M 0.00029375 0.00195 L 0.00029375 233.755856 " transform="matrix(1,0,0,-1,260.9333,827.9082)"/>
<path style="fill:none;stroke-width:1;stroke-linecap:butt;stroke-linejoin:miter;stroke:rgb(100%,100%,100%);stroke-opacity:1;stroke-miterlimit:10;" d="M 0.00029375 -0.00000625 L 0.00029375 2.499994 L 2.500294 2.499994 " transform="matrix(1,0,0,-1,260.9333,591.6914)"/>
<path style="fill:none;stroke-width:1;stroke-linecap:butt;stroke-linejoin:miter;stroke:rgb(100%,100%,100%);stroke-opacity:1;stroke-dasharray:5.068,5.068;stroke-miterlimit:10;" d="M -0.0007 -0.00000625 L 17.737581 -0.00000625 " transform="matrix(1,0,0,-1,268.5007,589.1914)"/>
<path style="fill:none;stroke-width:1;stroke-linecap:butt;stroke-linejoin:miter;stroke:rgb(100%,100%,100%);stroke-opacity:1;stroke-miterlimit:10;" d="M 0.0012375 -0.00000625 L 2.501238 -0.00000625 " transform="matrix(1,0,0,-1,288.7722,589.1914)"/>
<path style="fill:none;stroke-width:1;stroke-linecap:butt;stroke-linejoin:miter;stroke:rgb(100%,100%,100%);stroke-opacity:1;stroke-dasharray:4.983,4.983;stroke-miterlimit:10;" d="M 0.0012375 -0.00095625 L 0.0012375 286.506856 " transform="matrix(1,0,0,-1,291.2722,827.8467)"/>
<path style="fill:none;stroke-width:1;stroke-linecap:butt;stroke-linejoin:miter;stroke:rgb(100%,100%,100%);stroke-opacity:1;stroke-miterlimit:10;" d="M 0.0012375 -0.00005625 L 0.0012375 2.499944 L 2.501238 2.499944 " transform="matrix(1,0,0,-1,291.2722,538.8476)"/>
<path style="fill:none;stroke-width:1;stroke-linecap:butt;stroke-linejoin:miter;stroke:rgb(100%,100%,100%);stroke-opacity:1;stroke-dasharray:5.068,5.068;stroke-miterlimit:10;" d="M 0.00024375 -0.00005625 L 17.738525 -0.00005625 " transform="matrix(1,0,0,-1,298.8396,536.3476)"/>
<path style="fill:none;stroke-width:1;stroke-linecap:butt;stroke-linejoin:miter;stroke:rgb(100%,100%,100%);stroke-opacity:1;stroke-miterlimit:10;" d="M -0.001725 -0.00005625 L 2.498275 -0.00005625 L 2.498275 -2.500056 " transform="matrix(1,0,0,-1,319.1111,536.3476)"/>
<path style="fill:none;stroke-width:1;stroke-linecap:butt;stroke-linejoin:miter;stroke:rgb(100%,100%,100%);stroke-opacity:1;stroke-dasharray:4.983,4.983;stroke-miterlimit:10;" d="M -0.001725 -0.00143125 L -0.001725 -286.505337 " transform="matrix(1,0,0,-1,321.6111,543.8306)"/>
<path style="fill:none;stroke-width:1;stroke-linecap:butt;stroke-linejoin:miter;stroke:rgb(100%,100%,100%);stroke-opacity:1;stroke-miterlimit:10;" d="M -0.001725 0.00098125 L 2.498275 0.00098125 " transform="matrix(1,0,0,-1,321.6111,649.2627)"/>
<path style="fill:none;stroke-width:1;stroke-linecap:butt;stroke-linejoin:miter;stroke:rgb(100%,100%,100%);stroke-opacity:1;stroke-dasharray:5.068,5.068;stroke-miterlimit:10;" d="M 0.0011875 0.00098125 L 17.735563 0.00098125 " transform="matrix(1,0,0,-1,329.1785,649.2627)"/>
<path style="fill:none;stroke-width:1;stroke-linecap:butt;stroke-linejoin:miter;stroke:rgb(100%,100%,100%);stroke-opacity:1;stroke-miterlimit:10;" d="M 0.00021875 0.00098125 L 2.500219 0.00098125 " transform="matrix(1,0,0,-1,349.449,649.2627)"/>
<path style="fill:none;stroke-width:1;stroke-linecap:butt;stroke-linejoin:miter;stroke:rgb(100%,100%,100%);stroke-opacity:1;stroke-dasharray:4.92,4.92;stroke-miterlimit:10;" d="M 0.00021875 -0.00045625 L 0.00021875 243.526888 " transform="matrix(1,0,0,-1,351.949,827.9097)"/>
<path style="fill:none;stroke-width:1;stroke-linecap:butt;stroke-linejoin:miter;stroke:rgb(100%,100%,100%);stroke-opacity:1;stroke-miterlimit:10;" d="M 0.00021875 -0.000475 L 0.00021875 2.499525 L 2.500219 2.499525 " transform="matrix(1,0,0,-1,351.949,581.9214)"/>
<path style="fill:none;stroke-width:1;stroke-linecap:butt;stroke-linejoin:miter;stroke:rgb(100%,100%,100%);stroke-opacity:1;stroke-dasharray:5.068,5.068;stroke-miterlimit:10;" d="M -0.001675 -0.000475 L 17.736606 -0.000475 " transform="matrix(1,0,0,-1,359.5173,579.4214)"/>
<path style="fill:none;stroke-width:1;stroke-linecap:butt;stroke-linejoin:miter;stroke:rgb(100%,100%,100%);stroke-opacity:1;stroke-miterlimit:10;" d="M 0.0012625 -0.000475 L 2.501262 -0.000475 " transform="matrix(1,0,0,-1,379.7878,579.4214)"/>
<path style="fill:none;stroke-width:1;stroke-linecap:butt;stroke-linejoin:miter;stroke:rgb(100%,100%,100%);stroke-opacity:1;stroke-dasharray:4.945,4.945;stroke-miterlimit:10;" d="M 0.0017125 0.0009375 L 0.0017125 274.469687 " transform="matrix(1,0,0,-1,200.2561,825.79)"/>
<path style="fill:none;stroke-width:1;stroke-linecap:butt;stroke-linejoin:miter;stroke:rgb(100%,100%,100%);stroke-opacity:1;stroke-miterlimit:10;" d="M 0.0017125 -0.00005625 L 0.0017125 2.499944 L 2.501712 2.499944 " transform="matrix(1,0,0,-1,200.2561,548.8476)"/>
<path style="fill:none;stroke-width:1;stroke-linecap:butt;stroke-linejoin:miter;stroke:rgb(100%,100%,100%);stroke-opacity:1;stroke-dasharray:5.068,5.068;stroke-miterlimit:10;" d="M 0.00071875 -0.00005625 L 17.735094 -0.00005625 " transform="matrix(1,0,0,-1,207.8235,546.3476)"/>
<path style="fill:none;stroke-width:1;stroke-linecap:butt;stroke-linejoin:miter;stroke:rgb(100%,100%,100%);stroke-opacity:1;stroke-miterlimit:10;" d="M -0.00075 -0.00005625 L 2.49925 -0.00005625 L 2.49925 -2.500056 " transform="matrix(1,0,0,-1,228.0945,546.3476)"/>
<path style="fill:none;stroke-width:1;stroke-linecap:butt;stroke-linejoin:miter;stroke:rgb(100%,100%,100%);stroke-opacity:1;stroke-dasharray:4.945,4.945;stroke-miterlimit:10;" d="M -0.00075 0.00003125 L -0.00075 -274.468719 " transform="matrix(1,0,0,-1,230.5945,553.793)"/>
<path style="fill:none;stroke-width:1;stroke-linecap:butt;stroke-linejoin:miter;stroke:rgb(100%,100%,100%);stroke-opacity:1;stroke-miterlimit:10;" d="M -0.0017 -0.00144375 L 2.4983 -0.00144375 " transform="matrix(1,0,0,-1,412.6267,593.1509)"/>
<path style="fill:none;stroke-width:1;stroke-linecap:butt;stroke-linejoin:miter;stroke:rgb(100%,100%,100%);stroke-opacity:1;stroke-dasharray:5.068,5.068;stroke-miterlimit:10;" d="M 0.0012125 -0.00144375 L 17.735588 -0.00144375 " transform="matrix(1,0,0,-1,420.1941,593.1509)"/>
<path style="fill:none;stroke-width:1;stroke-linecap:butt;stroke-linejoin:miter;stroke:rgb(100%,100%,100%);stroke-opacity:1;stroke-miterlimit:10;" d="M -0.00075625 -0.00144375 L 2.499244 -0.00144375 " transform="matrix(1,0,0,-1,440.4656,593.1509)"/>
<path style="fill:none;stroke-width:1;stroke-linecap:butt;stroke-linejoin:miter;stroke:rgb(100%,100%,100%);stroke-opacity:1;stroke-dasharray:5.042,5.042;stroke-miterlimit:10;" d="M -0.00075625 -0.0014625 L -0.00075625 249.561037 " transform="matrix(1,0,0,-1,442.9656,827.7876)"/>
<path style="fill:none;stroke-width:1;stroke-linecap:butt;stroke-linejoin:miter;stroke:rgb(100%,100%,100%);stroke-opacity:1;stroke-miterlimit:10;" d="M -0.00075625 -0.00103125 L -0.00075625 2.498969 L 2.499244 2.498969 " transform="matrix(1,0,0,-1,442.9656,575.706)"/>
<path style="fill:none;stroke-width:1;stroke-linecap:butt;stroke-linejoin:miter;stroke:rgb(100%,100%,100%);stroke-opacity:1;stroke-dasharray:5.068,5.068;stroke-miterlimit:10;" d="M -0.00175 -0.00103125 L 17.736531 -0.00103125 " transform="matrix(1,0,0,-1,450.533,573.206)"/>
<path style="fill:none;stroke-width:1;stroke-linecap:butt;stroke-linejoin:miter;stroke:rgb(100%,100%,100%);stroke-opacity:1;stroke-miterlimit:10;" d="M 0.0002875 -0.00103125 L 2.500287 -0.00103125 L 2.500287 -2.501031 " transform="matrix(1,0,0,-1,470.8044,573.206)"/>
<path style="fill:none;stroke-width:1;stroke-linecap:butt;stroke-linejoin:miter;stroke:rgb(100%,100%,100%);stroke-opacity:1;stroke-dasharray:5.042,5.042;stroke-miterlimit:10;" d="M 0.0002875 0.00140625 L 0.0002875 -249.561094 " transform="matrix(1,0,0,-1,473.3044,580.7475)"/>
<path style="fill:none;stroke-width:1;stroke-linecap:butt;stroke-linejoin:miter;stroke:rgb(100%,100%,100%);stroke-opacity:1;stroke-miterlimit:10;" d="M 0.0002875 -0.00103125 L 0.0002875 2.498969 " transform="matrix(1,0,0,-1,473.3044,573.206)"/>
<path style="fill:none;stroke-width:1;stroke-linecap:butt;stroke-linejoin:miter;stroke:rgb(100%,100%,100%);stroke-opacity:1;stroke-dasharray:5.769,5.769;stroke-miterlimit:10;" d="M 0.0002875 -0.001 L 0.0002875 8.651344 " transform="matrix(1,0,0,-1,473.3044,564.9365)"/>
<path style="fill:none;stroke-width:1;stroke-linecap:butt;stroke-linejoin:miter;stroke:rgb(100%,100%,100%);stroke-opacity:1;stroke-miterlimit:10;" d="M 0.0002875 -0.0000375 L 0.0002875 2.499963 L 2.500287 2.499963 " transform="matrix(1,0,0,-1,473.3044,553.3984)"/>
<path style="fill:none;stroke-width:1;stroke-linecap:butt;stroke-linejoin:miter;stroke:rgb(100%,100%,100%);stroke-opacity:1;stroke-dasharray:5.068,5.068;stroke-miterlimit:10;" d="M -0.00070625 -0.0000375 L 17.737575 -0.0000375 " transform="matrix(1,0,0,-1,480.8718,550.8984)"/>
<path style="fill:none;stroke-width:1;stroke-linecap:butt;stroke-linejoin:miter;stroke:rgb(100%,100%,100%);stroke-opacity:1;stroke-miterlimit:10;" d="M -0.001675 -0.0000375 L 2.498325 -0.0000375 " transform="matrix(1,0,0,-1,501.1423,550.8984)"/>
<path style="fill:none;stroke-width:1;stroke-linecap:butt;stroke-linejoin:miter;stroke:rgb(100%,100%,100%);stroke-opacity:1;stroke-dasharray:4.939,4.939;stroke-miterlimit:10;" d="M -0.001675 -0.001025 L -0.001675 313.655225 " transform="matrix(1,0,0,-1,503.6423,827.8896)"/>
<path style="fill:none;stroke-width:1;stroke-linecap:butt;stroke-linejoin:miter;stroke:rgb(100%,100%,100%);stroke-opacity:1;stroke-miterlimit:10;" d="M -0.001675 0.00098125 L -0.001675 2.500981 L 2.498325 2.500981 " transform="matrix(1,0,0,-1,503.6423,511.7627)"/>
<path style="fill:none;stroke-width:1;stroke-linecap:butt;stroke-linejoin:miter;stroke:rgb(100%,100%,100%);stroke-opacity:1;stroke-dasharray:5.068,5.068;stroke-miterlimit:10;" d="M 0.0002375 0.00098125 L 17.738519 0.00098125 " transform="matrix(1,0,0,-1,511.2107,509.2627)"/>
<path style="fill:none;stroke-width:1;stroke-linecap:butt;stroke-linejoin:miter;stroke:rgb(100%,100%,100%);stroke-opacity:1;stroke-miterlimit:10;" d="M -0.00073125 0.00098125 L 2.499269 0.00098125 L 2.499269 -2.499019 " transform="matrix(1,0,0,-1,531.4812,509.2627)"/>
<path style="fill:none;stroke-width:1;stroke-linecap:butt;stroke-linejoin:miter;stroke:rgb(100%,100%,100%);stroke-opacity:1;stroke-dasharray:4.939,4.939;stroke-miterlimit:10;" d="M -0.00073125 -0.001025 L -0.00073125 -313.657275 " transform="matrix(1,0,0,-1,533.9812,516.7021)"/>
<path style="fill:none;stroke-width:1;stroke-linecap:butt;stroke-linejoin:miter;stroke:rgb(100%,100%,100%);stroke-opacity:1;stroke-miterlimit:10;" d="M -0.00073125 0.00049375 L 2.499269 0.00049375 " transform="matrix(1,0,0,-1,533.9812,692.0669)"/>
<path style="fill:none;stroke-width:1;stroke-linecap:butt;stroke-linejoin:miter;stroke:rgb(100%,100%,100%);stroke-opacity:1;stroke-dasharray:5.068,5.068;stroke-miterlimit:10;" d="M 0.00118125 0.00049375 L 17.735556 0.00049375 " transform="matrix(1,0,0,-1,541.5496,692.0669)"/>
<path style="fill:none;stroke-width:1;stroke-linecap:butt;stroke-linejoin:miter;stroke:rgb(100%,100%,100%);stroke-opacity:1;stroke-miterlimit:10;" d="M 0.0002125 0.00049375 L 2.500213 0.00049375 " transform="matrix(1,0,0,-1,561.8201,692.0669)"/>
<path style="fill:none;stroke-width:1;stroke-linecap:butt;stroke-linejoin:miter;stroke:rgb(100%,100%,100%);stroke-opacity:1;stroke-dasharray:4.945,4.945;stroke-miterlimit:10;" d="M 0.0012625 0.0009375 L 0.0012625 274.469687 " transform="matrix(1,0,0,-1,382.2878,825.79)"/>
<path style="fill:none;stroke-width:1;stroke-linecap:butt;stroke-linejoin:miter;stroke:rgb(100%,100%,100%);stroke-opacity:1;stroke-miterlimit:10;" d="M 0.0012625 -0.00005625 L 0.0012625 2.499944 L 2.501262 2.499944 " transform="matrix(1,0,0,-1,382.2878,548.8476)"/>
<path style="fill:none;stroke-width:1;stroke-linecap:butt;stroke-linejoin:miter;stroke:rgb(100%,100%,100%);stroke-opacity:1;stroke-dasharray:5.068,5.068;stroke-miterlimit:10;" d="M -0.00073125 -0.00005625 L 17.73755 -0.00005625 " transform="matrix(1,0,0,-1,389.8562,546.3476)"/>
<path style="fill:none;stroke-width:1;stroke-linecap:butt;stroke-linejoin:miter;stroke:rgb(100%,100%,100%);stroke-opacity:1;stroke-miterlimit:10;" d="M -0.0017 -0.00005625 L 2.4983 -0.00005625 L 2.4983 -2.500056 " transform="matrix(1,0,0,-1,410.1267,546.3476)"/>
<path style="fill:none;stroke-width:1;stroke-linecap:butt;stroke-linejoin:miter;stroke:rgb(100%,100%,100%);stroke-opacity:1;stroke-dasharray:4.945,4.945;stroke-miterlimit:10;" d="M -0.0017 0.00003125 L -0.0017 -274.468719 " transform="matrix(1,0,0,-1,412.6267,553.793)"/>
<path style="fill:none;stroke-width:1;stroke-linecap:butt;stroke-linejoin:miter;stroke:rgb(100%,100%,100%);stroke-opacity:1;stroke-miterlimit:10;" d="M 0.00125625 -0.00144375 L 2.501256 -0.00144375 " transform="matrix(1,0,0,-1,594.6589,593.1509)"/>
<path style="fill:none;stroke-width:1;stroke-linecap:butt;stroke-linejoin:miter;stroke:rgb(100%,100%,100%);stroke-opacity:1;stroke-dasharray:5.068,5.068;stroke-miterlimit:10;" d="M 0.0002625 -0.00144375 L 17.738544 -0.00144375 " transform="matrix(1,0,0,-1,602.2263,593.1509)"/>
<path style="fill:none;stroke-width:1;stroke-linecap:butt;stroke-linejoin:miter;stroke:rgb(100%,100%,100%);stroke-opacity:1;stroke-dasharray:4.983,4.983;stroke-miterlimit:10;" d="M 0.0002125 -0.00095625 L 0.0002125 286.506856 " transform="matrix(1,0,0,-1,564.3201,827.8467)"/>
<path style="fill:none;stroke-width:1;stroke-linecap:butt;stroke-linejoin:miter;stroke:rgb(100%,100%,100%);stroke-opacity:1;stroke-miterlimit:10;" d="M 0.0002125 -0.00005625 L 0.0002125 2.499944 L 2.500213 2.499944 " transform="matrix(1,0,0,-1,564.3201,538.8476)"/>
<path style="fill:none;stroke-width:1;stroke-linecap:butt;stroke-linejoin:miter;stroke:rgb(100%,100%,100%);stroke-opacity:1;stroke-dasharray:5.068,5.068;stroke-miterlimit:10;" d="M -0.00078125 -0.00005625 L 17.7375 -0.00005625 " transform="matrix(1,0,0,-1,571.8875,536.3476)"/>
<path style="fill:none;stroke-width:1;stroke-linecap:butt;stroke-linejoin:miter;stroke:rgb(100%,100%,100%);stroke-opacity:1;stroke-miterlimit:10;" d="M 0.00125625 -0.00005625 L 2.501256 -0.00005625 L 2.501256 -2.500056 " transform="matrix(1,0,0,-1,592.1589,536.3476)"/>
<path style="fill:none;stroke-width:1;stroke-linecap:butt;stroke-linejoin:miter;stroke:rgb(100%,100%,100%);stroke-opacity:1;stroke-dasharray:4.983,4.983;stroke-miterlimit:10;" d="M 0.00125625 -0.00143125 L 0.00125625 -286.505337 " transform="matrix(1,0,0,-1,594.6589,543.8306)"/>
<path style=" stroke:none;fill-rule:nonzero;fill:rgb(100%,100%,100%);fill-opacity:1;" d="M 147.8125 327.898438 C 147.117188 327.898438 146.519531 327.765625 146.015625 327.5 C 145.511719 327.234375 145.125 326.84375 144.855469 326.335938 C 144.585938 325.824219 144.449219 325.214844 144.449219 324.5 C 144.449219 323.785156 144.585938 323.175781 144.855469 322.664062 C 145.125 322.15625 145.511719 321.765625 146.015625 321.5 C 146.519531 321.234375 147.117188 321.101562 147.8125 321.101562 C 148.582031 321.101562 149.246094 321.265625 149.789062 321.59375 C 150.335938 321.925781 150.679688 322.425781 150.8125 323.101562 L 148.8125 323.878906 C 148.757812 323.472656 148.660156 323.199219 148.519531 323.058594 C 148.378906 322.921875 148.164062 322.851562 147.871094 322.851562 C 147.523438 322.851562 147.265625 322.984375 147.089844 323.25 C 146.917969 323.515625 146.832031 323.933594 146.832031 324.5 C 146.832031 325.066406 146.914062 325.484375 147.082031 325.75 C 147.246094 326.015625 147.503906 326.148438 147.851562 326.148438 C 148.164062 326.148438 148.390625 326.082031 148.53125 325.941406 C 148.671875 325.800781 148.761719 325.570312 148.800781 325.25 L 150.859375 325.78125 C 150.519531 327.195312 149.503906 327.898438 147.8125 327.898438 "/>
<path style=" stroke:none;fill-rule:nonzero;fill:rgb(100%,100%,100%);fill-opacity:1;" d="M 156.75 326.089844 L 156.75 327.800781 L 151.429688 327.800781 L 151.429688 321.199219 L 153.761719 321.199219 L 153.761719 326.089844 Z M 156.75 326.089844 "/>
<path style=" stroke:none;fill-rule:nonzero;fill:rgb(100%,100%,100%);fill-opacity:1;" d="M 161.226562 323.949219 C 161.355469 323.851562 161.421875 323.695312 161.421875 323.480469 C 161.421875 323.265625 161.355469 323.109375 161.226562 323.011719 C 161.097656 322.910156 160.886719 322.859375 160.601562 322.859375 L 159.8125 322.859375 L 159.8125 324.101562 L 160.601562 324.101562 C 160.886719 324.101562 161.097656 324.050781 161.226562 323.949219 M 163.75 323.511719 C 163.75 324.222656 163.519531 324.765625 163.050781 325.140625 C 162.582031 325.515625 161.894531 325.699219 160.980469 325.699219 L 159.8125 325.699219 L 159.8125 327.800781 L 157.480469 327.800781 L 157.480469 321.199219 L 160.980469 321.199219 C 162.828125 321.199219 163.75 321.96875 163.75 323.511719 "/>
<path style=" stroke:none;fill-rule:nonzero;fill:rgb(100%,100%,100%);fill-opacity:1;" d="M 167.050781 326.398438 C 168.011719 325.894531 168.742188 325.378906 169.246094 324.851562 C 169.75 324.324219 170 323.855469 170 323.449219 C 170 323.277344 169.957031 323.132812 169.871094 323.019531 C 169.785156 322.90625 169.648438 322.851562 169.460938 322.851562 C 169.234375 322.851562 169.066406 322.945312 168.960938 323.136719 C 168.855469 323.324219 168.808594 323.621094 168.820312 324.019531 L 166.832031 323.539062 C 166.816406 323 166.929688 322.546875 167.171875 322.183594 C 167.410156 321.820312 167.742188 321.550781 168.171875 321.371094 C 168.597656 321.191406 169.082031 321.101562 169.621094 321.101562 C 170.246094 321.101562 170.761719 321.210938 171.160156 321.429688 C 171.558594 321.648438 171.847656 321.925781 172.027344 322.253906 C 172.203125 322.585938 172.289062 322.917969 172.289062 323.25 C 172.289062 323.863281 172.058594 324.40625 171.601562 324.878906 C 171.140625 325.355469 170.515625 325.777344 169.730469 326.148438 L 169.730469 326.171875 C 170.144531 326.128906 170.667969 326.109375 171.300781 326.109375 L 172.332031 326.109375 L 172.332031 327.800781 L 167.050781 327.800781 Z M 167.050781 326.398438 "/>
<path style=" stroke:none;fill-rule:nonzero;fill:rgb(100%,100%,100%);fill-opacity:1;" d="M 158.640625 370.800781 L 144.660156 370.800781 L 144.660156 331.199219 L 158.640625 331.199219 Z M 158.640625 370.800781 "/>
<path style=" stroke:none;fill-rule:nonzero;fill:rgb(100%,100%,100%);fill-opacity:1;" d="M 203.398438 370.800781 L 188.28125 370.800781 L 178.800781 352.800781 L 176.640625 347.941406 L 176.519531 347.941406 L 176.761719 356.101562 L 176.761719 370.800781 L 164.640625 370.800781 L 164.640625 331.199219 L 179.761719 331.199219 L 189.238281 349.261719 L 191.398438 354.058594 L 191.519531 354.058594 L 191.28125 345.898438 L 191.28125 331.199219 L 203.398438 331.199219 Z M 203.398438 370.800781 "/>
<path style=" stroke:none;fill-rule:nonzero;fill:rgb(100%,100%,100%);fill-opacity:1;" d="M 246.359375 341.460938 L 234 341.460938 L 234 370.800781 L 220.019531 370.800781 L 220.019531 341.460938 L 207.597656 341.460938 L 207.597656 331.199219 L 246.359375 331.199219 Z M 246.359375 341.460938 "/>
<path style=" stroke:none;fill-rule:nonzero;fill:rgb(100%,100%,100%);fill-opacity:1;" d="M 284.15625 360.539062 L 284.15625 370.800781 L 250.558594 370.800781 L 250.558594 331.199219 L 283.4375 331.199219 L 283.4375 341.460938 L 264.539062 341.460938 L 264.539062 346.378906 L 279.777344 346.378906 L 279.777344 355.859375 L 264.539062 355.859375 L 264.539062 360.539062 Z M 284.15625 360.539062 "/>
<path style=" stroke:none;fill-rule:nonzero;fill:rgb(100%,100%,100%);fill-opacity:1;" d="M 307.378906 348.480469 L 325.738281 348.480469 L 325.738281 370.800781 L 316.496094 370.800781 L 316.019531 366.300781 C 313.976562 369.699219 310.398438 371.398438 305.277344 371.398438 C 301.796875 371.398438 298.667969 370.628906 295.886719 369.089844 C 293.105469 367.550781 290.90625 365.261719 289.289062 362.21875 C 287.667969 359.179688 286.859375 355.480469 286.859375 351.121094 C 286.859375 344.640625 288.667969 339.601562 292.289062 336 C 295.90625 332.398438 300.9375 330.601562 307.378906 330.601562 C 312.296875 330.601562 316.207031 331.441406 319.109375 333.121094 C 322.007812 334.800781 324.257812 337.582031 325.859375 341.460938 L 312.835938 346.140625 C 312.316406 342.78125 310.65625 341.101562 307.859375 341.101562 C 305.539062 341.101562 303.835938 341.890625 302.757812 343.46875 C 301.675781 345.050781 301.136719 347.5625 301.136719 351 C 301.136719 354.679688 301.71875 357.3125 302.878906 358.890625 C 304.039062 360.472656 305.855469 361.261719 308.335938 361.261719 C 310.097656 361.261719 311.488281 360.910156 312.507812 360.210938 C 313.527344 359.511719 314.039062 358.480469 314.039062 357.121094 L 314.039062 357.058594 L 307.378906 357.058594 Z M 307.378906 348.480469 "/>
<path style=" stroke:none;fill-rule:nonzero;fill:rgb(100%,100%,100%);fill-opacity:1;" d="M 345.117188 348.480469 L 350.097656 348.480469 C 351.855469 348.480469 353.105469 348.210938 353.847656 347.667969 C 354.585938 347.128906 354.957031 346.179688 354.957031 344.820312 C 354.957031 343.5 354.585938 342.5625 353.847656 342 C 353.105469 341.441406 351.855469 341.160156 350.097656 341.160156 L 345.117188 341.160156 Z M 348.957031 357.660156 L 345.117188 357.660156 L 345.117188 370.800781 L 331.4375 370.800781 L 331.4375 331.199219 L 352.917969 331.199219 C 358.195312 331.199219 362.1875 332.308594 364.886719 334.53125 C 367.585938 336.75 368.9375 340.0625 368.9375 344.460938 C 368.9375 350.261719 366.554688 354.160156 361.796875 356.160156 L 371.15625 370.800781 L 355.976562 370.800781 Z M 348.957031 357.660156 "/>
<path style=" stroke:none;fill-rule:nonzero;fill:rgb(100%,100%,100%);fill-opacity:1;" d="M 394.554688 354.539062 L 391.375 341.339844 L 391.195312 341.339844 L 389.636719 348.058594 L 388.015625 354.539062 Z M 396.597656 363.242188 L 385.917969 363.242188 L 384.054688 370.800781 L 370.136719 370.800781 L 382.976562 331.199219 L 399.777344 331.199219 L 412.675781 370.800781 L 398.394531 370.800781 Z M 396.597656 363.242188 "/>
<path style=" stroke:none;fill-rule:nonzero;fill:rgb(100%,100%,100%);fill-opacity:1;" d="M 446.996094 360.539062 L 446.996094 370.800781 L 415.074219 370.800781 L 415.074219 331.199219 L 429.054688 331.199219 L 429.054688 360.539062 Z M 446.996094 360.539062 "/>
<path style=" stroke:none;fill-rule:nonzero;fill:rgb(100%,100%,100%);fill-opacity:1;" d="M 163.5625 416.398438 C 159.398438 416.398438 155.8125 415.601562 152.789062 414 C 149.769531 412.402344 147.449219 410.070312 145.832031 407.011719 C 144.210938 403.949219 143.402344 400.28125 143.402344 396 C 143.402344 391.71875 144.210938 388.050781 145.832031 384.992188 C 147.449219 381.929688 149.769531 379.601562 152.789062 378 C 155.8125 376.402344 159.398438 375.601562 163.5625 375.601562 C 168.199219 375.601562 172.160156 376.589844 175.441406 378.570312 C 178.722656 380.550781 180.761719 383.5625 181.5625 387.601562 L 169.5625 392.28125 C 169.242188 389.839844 168.660156 388.199219 167.820312 387.359375 C 166.980469 386.519531 165.679688 386.101562 163.921875 386.101562 C 161.839844 386.101562 160.28125 386.902344 159.242188 388.5 C 158.199219 390.101562 157.679688 392.601562 157.679688 396 C 157.679688 399.402344 158.179688 401.902344 159.179688 403.5 C 160.179688 405.101562 161.722656 405.898438 163.800781 405.898438 C 165.679688 405.898438 167.039062 405.480469 167.878906 404.640625 C 168.722656 403.800781 169.261719 402.421875 169.5 400.5 L 181.859375 403.679688 C 179.820312 412.160156 173.722656 416.398438 163.5625 416.398438 "/>
<path style=" stroke:none;fill-rule:nonzero;fill:rgb(100%,100%,100%);fill-opacity:1;" d="M 206.101562 399.539062 L 202.917969 386.339844 L 202.738281 386.339844 L 201.179688 393.058594 L 199.558594 399.539062 Z M 208.140625 408.242188 L 197.460938 408.242188 L 195.601562 415.800781 L 181.679688 415.800781 L 194.519531 376.199219 L 211.320312 376.199219 L 224.21875 415.800781 L 209.941406 415.800781 Z M 208.140625 408.242188 "/>
<path style=" stroke:none;fill-rule:nonzero;fill:rgb(100%,100%,100%);fill-opacity:1;" d="M 258.539062 405.539062 L 258.539062 415.800781 L 226.621094 415.800781 L 226.621094 376.199219 L 240.601562 376.199219 L 240.601562 405.539062 Z M 258.539062 405.539062 "/>
<path style=" stroke:none;fill-rule:nonzero;fill:rgb(100%,100%,100%);fill-opacity:1;" d="M 280.621094 416.398438 C 276.457031 416.398438 272.871094 415.601562 269.847656 414 C 266.828125 412.402344 264.511719 410.070312 262.890625 407.011719 C 261.269531 403.949219 260.460938 400.28125 260.460938 396 C 260.460938 391.71875 261.269531 388.050781 262.890625 384.992188 C 264.511719 381.929688 266.828125 379.601562 269.847656 378 C 272.871094 376.402344 276.457031 375.601562 280.621094 375.601562 C 285.261719 375.601562 289.21875 376.589844 292.5 378.570312 C 295.777344 380.550781 297.820312 383.5625 298.621094 387.601562 L 286.621094 392.28125 C 286.300781 389.839844 285.71875 388.199219 284.878906 387.359375 C 284.039062 386.519531 282.738281 386.101562 280.980469 386.101562 C 278.898438 386.101562 277.339844 386.902344 276.300781 388.5 C 275.261719 390.101562 274.738281 392.601562 274.738281 396 C 274.738281 399.402344 275.238281 401.902344 276.238281 403.5 C 277.238281 405.101562 278.777344 405.898438 280.859375 405.898438 C 282.738281 405.898438 284.097656 405.480469 284.941406 404.640625 C 285.78125 403.800781 286.320312 402.421875 286.558594 400.5 L 298.917969 403.679688 C 296.878906 412.160156 290.777344 416.398438 280.621094 416.398438 "/>
<path style=" stroke:none;fill-rule:nonzero;fill:rgb(100%,100%,100%);fill-opacity:1;" d="M 339.71875 398.761719 C 339.71875 410.519531 333.339844 416.398438 320.578125 416.398438 C 307.820312 416.398438 301.441406 410.519531 301.441406 398.761719 L 301.441406 376.199219 L 315.480469 376.199219 L 315.480469 399.839844 C 315.480469 401.839844 315.90625 403.351562 316.769531 404.371094 C 317.628906 405.390625 318.898438 405.898438 320.578125 405.898438 C 322.257812 405.898438 323.539062 405.390625 324.417969 404.371094 C 325.296875 403.351562 325.738281 401.839844 325.738281 399.839844 L 325.738281 376.199219 L 339.71875 376.199219 Z M 339.71875 398.761719 "/>
<path style=" stroke:none;fill-rule:nonzero;fill:rgb(100%,100%,100%);fill-opacity:1;" d="M 376.738281 405.539062 L 376.738281 415.800781 L 344.816406 415.800781 L 344.816406 376.199219 L 358.800781 376.199219 L 358.800781 405.539062 Z M 376.738281 405.539062 "/>
<path style=" stroke:none;fill-rule:nonzero;fill:rgb(100%,100%,100%);fill-opacity:1;" d="M 418.496094 398.761719 C 418.496094 410.519531 412.117188 416.398438 399.359375 416.398438 C 386.597656 416.398438 380.21875 410.519531 380.21875 398.761719 L 380.21875 376.199219 L 394.257812 376.199219 L 394.257812 399.839844 C 394.257812 401.839844 394.6875 403.351562 395.546875 404.371094 C 396.40625 405.390625 397.679688 405.898438 399.359375 405.898438 C 401.039062 405.898438 402.316406 405.390625 403.199219 404.371094 C 404.078125 403.351562 404.519531 401.839844 404.519531 399.839844 L 404.519531 376.199219 L 418.496094 376.199219 Z M 418.496094 398.761719 "/>
<path style=" stroke:none;fill-rule:nonzero;fill:rgb(100%,100%,100%);fill-opacity:1;" d="M 450.835938 376.980469 C 453.597656 377.902344 456.335938 379.539062 459.058594 381.898438 L 452.9375 390.601562 C 451.136719 388.917969 449.308594 387.710938 447.449219 386.96875 C 445.585938 386.230469 443.519531 385.859375 441.238281 385.859375 C 439.835938 385.859375 438.71875 386.070312 437.878906 386.492188 C 437.039062 386.910156 436.617188 387.460938 436.617188 388.140625 C 436.617188 388.582031 437.019531 388.917969 437.816406 389.160156 C 438.617188 389.398438 440.019531 389.699219 442.019531 390.058594 C 447.816406 391.101562 451.988281 392.667969 454.527344 394.769531 C 457.066406 396.871094 458.335938 399.820312 458.335938 403.621094 C 458.335938 406.339844 457.558594 408.660156 455.996094 410.582031 C 454.4375 412.5 452.316406 413.949219 449.636719 414.929688 C 446.957031 415.910156 443.957031 416.398438 440.636719 416.398438 C 435.957031 416.398438 432.214844 415.957031 429.417969 415.082031 C 426.617188 414.199219 423.875 412.78125 421.199219 410.820312 L 427.199219 401.339844 C 428.878906 402.980469 430.714844 404.191406 432.71875 404.96875 C 434.71875 405.75 437.019531 406.140625 439.617188 406.140625 C 442.535156 406.140625 443.996094 405.539062 443.996094 404.339844 C 443.996094 403.699219 443.535156 403.222656 442.617188 402.898438 C 441.695312 402.582031 440.195312 402.242188 438.117188 401.878906 C 435.078125 401.320312 432.488281 400.679688 430.347656 399.960938 C 428.207031 399.242188 426.328125 398.019531 424.707031 396.300781 C 423.085938 394.582031 422.277344 392.21875 422.277344 389.21875 C 422.277344 386.5 422.996094 384.121094 424.4375 382.082031 C 425.878906 380.039062 427.988281 378.449219 430.769531 377.308594 C 433.546875 376.167969 436.898438 375.601562 440.816406 375.601562 C 444.738281 375.601562 448.078125 376.0625 450.835938 376.980469 "/>
<path style=" stroke:none;fill-rule:nonzero;fill:rgb(100%,100%,100%);fill-opacity:1;" d="M 177.359375 454.140625 L 177.359375 460.800781 L 146.820312 460.800781 L 146.820312 421.199219 L 176.519531 421.199219 L 176.519531 427.859375 L 155.101562 427.859375 L 155.101562 437.699219 L 171.960938 437.699219 L 171.960938 444.058594 L 155.101562 444.058594 L 155.101562 454.140625 Z M 177.359375 454.140625 "/>
<path style=" stroke:none;fill-rule:nonzero;fill:rgb(100%,100%,100%);fill-opacity:1;" d="M 207.179688 460.800781 L 198.539062 446.460938 L 190.082031 460.800781 L 180.601562 460.800781 L 194.21875 440.820312 L 181.558594 421.199219 L 191.339844 421.199219 L 199.378906 435 L 207.421875 421.199219 L 216.359375 421.199219 L 203.640625 440.519531 L 217.082031 460.800781 Z M 207.179688 460.800781 "/>
<path style=" stroke:none;fill-rule:nonzero;fill:rgb(100%,100%,100%);fill-opacity:1;" d="M 253.742188 454.140625 L 253.742188 460.800781 L 223.199219 460.800781 L 223.199219 421.199219 L 252.902344 421.199219 L 252.902344 427.859375 L 231.480469 427.859375 L 231.480469 437.699219 L 248.339844 437.699219 L 248.339844 444.058594 L 231.480469 444.058594 L 231.480469 454.140625 Z M 253.742188 454.140625 "/>
<path style=" stroke:none;fill-rule:nonzero;fill:rgb(100%,100%,100%);fill-opacity:1;" d="M 269.339844 439.320312 L 277.558594 439.320312 C 279.960938 439.320312 281.730469 438.851562 282.871094 437.910156 C 284.007812 436.972656 284.578125 435.519531 284.578125 433.558594 C 284.578125 431.601562 284.007812 430.152344 282.871094 429.210938 C 281.730469 428.269531 279.960938 427.800781 277.558594 427.800781 L 269.339844 427.800781 Z M 276.777344 445.621094 L 269.339844 445.621094 L 269.339844 460.800781 L 261.179688 460.800781 L 261.179688 421.199219 L 278.640625 421.199219 C 283.160156 421.199219 286.691406 422.269531 289.230469 424.410156 C 291.769531 426.550781 293.039062 429.5625 293.039062 433.441406 C 293.039062 436.28125 292.339844 438.660156 290.941406 440.582031 C 289.539062 442.5 287.539062 443.878906 284.941406 444.71875 L 295.378906 460.800781 L 286.078125 460.800781 Z M 276.777344 445.621094 "/>
<path style=" stroke:none;fill-rule:nonzero;fill:rgb(100%,100%,100%);fill-opacity:1;" d="M 329.28125 458.492188 C 326.320312 460.429688 322.777344 461.398438 318.660156 461.398438 C 314.78125 461.398438 311.398438 460.582031 308.519531 458.941406 C 305.640625 457.300781 303.429688 454.949219 301.890625 451.890625 C 300.347656 448.832031 299.578125 445.199219 299.578125 441 C 299.578125 436.800781 300.347656 433.171875 301.890625 430.109375 C 303.429688 427.050781 305.628906 424.699219 308.488281 423.058594 C 311.347656 421.421875 314.699219 420.601562 318.539062 420.601562 C 322.660156 420.601562 326.148438 421.460938 329.007812 423.179688 C 331.867188 424.902344 333.839844 427.460938 334.921875 430.859375 L 327.421875 434.039062 C 326.78125 431.679688 325.777344 429.980469 324.421875 428.941406 C 323.058594 427.902344 321.21875 427.378906 318.898438 427.378906 C 315.539062 427.378906 312.910156 428.5625 311.007812 430.921875 C 309.109375 433.28125 308.160156 436.640625 308.160156 441 C 308.160156 445.359375 309.078125 448.71875 310.921875 451.082031 C 312.757812 453.441406 315.359375 454.621094 318.71875 454.621094 C 323.558594 454.621094 326.597656 452.28125 327.839844 447.601562 L 335.460938 449.878906 C 334.300781 453.679688 332.238281 456.550781 329.28125 458.492188 "/>
<path style=" stroke:none;fill-rule:nonzero;fill:rgb(100%,100%,100%);fill-opacity:1;" d="M 350.820312 460.800781 L 342.539062 460.800781 L 342.539062 421.199219 L 350.820312 421.199219 Z M 350.820312 460.800781 "/>
<path style=" stroke:none;fill-rule:nonzero;fill:rgb(100%,100%,100%);fill-opacity:1;" d="M 385.078125 422.429688 C 387.71875 423.652344 390.039062 425.582031 392.039062 428.21875 L 386.339844 433.800781 C 385.296875 431.640625 383.917969 430.03125 382.199219 428.96875 C 380.480469 427.910156 378.300781 427.378906 375.660156 427.378906 C 373.261719 427.378906 371.410156 427.832031 370.109375 428.730469 C 368.808594 429.628906 368.160156 430.820312 368.160156 432.300781 C 368.160156 433.660156 368.820312 434.742188 370.140625 435.539062 C 371.460938 436.339844 373.839844 437.039062 377.277344 437.640625 C 380.878906 438.320312 383.738281 439.160156 385.859375 440.160156 C 387.980469 441.160156 389.527344 442.410156 390.511719 443.910156 C 391.488281 445.410156 391.980469 447.28125 391.980469 449.519531 C 391.980469 451.960938 391.289062 454.070312 389.910156 455.851562 C 388.527344 457.628906 386.609375 459 384.148438 459.960938 C 381.6875 460.921875 378.878906 461.398438 375.71875 461.398438 C 371.359375 461.398438 367.789062 460.789062 365.011719 459.570312 C 362.230469 458.351562 359.980469 456.5 358.261719 454.019531 L 363.179688 448.140625 C 364.660156 450.582031 366.359375 452.269531 368.277344 453.210938 C 370.199219 454.152344 372.578125 454.621094 375.417969 454.621094 C 377.980469 454.621094 379.929688 454.222656 381.269531 453.421875 C 382.609375 452.621094 383.277344 451.480469 383.277344 450 C 383.277344 448.921875 382.648438 448.019531 381.390625 447.300781 C 380.128906 446.582031 377.878906 445.902344 374.640625 445.261719 C 370.917969 444.5 367.949219 443.601562 365.730469 442.558594 C 363.511719 441.519531 361.898438 440.242188 360.898438 438.71875 C 359.898438 437.199219 359.398438 435.320312 359.398438 433.082031 C 359.398438 430.71875 360.039062 428.589844 361.320312 426.691406 C 362.601562 424.789062 364.46875 423.300781 366.929688 422.21875 C 369.390625 421.140625 372.277344 420.601562 375.601562 420.601562 C 379.277344 420.601562 382.4375 421.210938 385.078125 422.429688 "/>
<path style=" stroke:none;fill-rule:nonzero;fill:rgb(100%,100%,100%);fill-opacity:1;" d="M 430.257812 454.140625 L 430.257812 460.800781 L 399.71875 460.800781 L 399.71875 421.199219 L 429.417969 421.199219 L 429.417969 427.859375 L 408 427.859375 L 408 437.699219 L 424.859375 437.699219 L 424.859375 444.058594 L 408 444.058594 L 408 454.140625 Z M 430.257812 454.140625 "/>
<path style=" stroke:none;fill-rule:nonzero;fill:rgb(100%,100%,100%);fill-opacity:1;" d="M 461.636719 422.429688 C 464.28125 423.652344 466.597656 425.582031 468.597656 428.21875 L 462.898438 433.800781 C 461.859375 431.640625 460.476562 430.03125 458.757812 428.96875 C 457.039062 427.910156 454.859375 427.378906 452.21875 427.378906 C 449.820312 427.378906 447.96875 427.832031 446.667969 428.730469 C 445.367188 429.628906 444.71875 430.820312 444.71875 432.300781 C 444.71875 433.660156 445.378906 434.742188 446.699219 435.539062 C 448.019531 436.339844 450.398438 437.039062 453.839844 437.640625 C 457.4375 438.320312 460.296875 439.160156 462.417969 440.160156 C 464.539062 441.160156 466.085938 442.410156 467.070312 443.910156 C 468.046875 445.410156 468.539062 447.28125 468.539062 449.519531 C 468.539062 451.960938 467.847656 454.070312 466.46875 455.851562 C 465.089844 457.628906 463.167969 459 460.707031 459.960938 C 458.25 460.921875 455.4375 461.398438 452.28125 461.398438 C 447.917969 461.398438 444.347656 460.789062 441.570312 459.570312 C 438.789062 458.351562 436.539062 456.5 434.820312 454.019531 L 439.738281 448.140625 C 441.21875 450.582031 442.917969 452.269531 444.839844 453.210938 C 446.757812 454.152344 449.136719 454.621094 451.976562 454.621094 C 454.539062 454.621094 456.488281 454.222656 457.828125 453.421875 C 459.167969 452.621094 459.839844 451.480469 459.839844 450 C 459.839844 448.921875 459.207031 448.019531 457.949219 447.300781 C 456.6875 446.582031 454.4375 445.902344 451.199219 445.261719 C 447.476562 444.5 444.507812 443.601562 442.289062 442.558594 C 440.070312 441.519531 438.457031 440.242188 437.457031 438.71875 C 436.457031 437.199219 435.957031 435.320312 435.957031 433.082031 C 435.957031 430.71875 436.597656 428.589844 437.878906 426.691406 C 439.160156 424.789062 441.03125 423.300781 443.488281 422.21875 C 445.949219 421.140625 448.835938 420.601562 452.160156 420.601562 C 455.839844 420.601562 459 421.210938 461.636719 422.429688 "/>
<path style=" stroke:none;fill-rule:nonzero;fill:rgb(100%,100%,100%);fill-opacity:1;" d="M 146.992188 465.910156 L 146.992188 466.832031 L 149.53125 466.832031 L 149.53125 468.539062 L 146.992188 468.539062 L 146.992188 470.800781 L 144.660156 470.800781 L 144.660156 464.199219 L 150.132812 464.199219 L 150.132812 465.910156 Z M 146.992188 465.910156 "/>
<path style=" stroke:none;fill-rule:nonzero;fill:rgb(100%,100%,100%);fill-opacity:1;" d="M 156.402344 469.089844 L 156.402344 470.800781 L 150.800781 470.800781 L 150.800781 464.199219 L 156.28125 464.199219 L 156.28125 465.910156 L 153.132812 465.910156 L 153.132812 466.730469 L 155.671875 466.730469 L 155.671875 468.308594 L 153.132812 468.308594 L 153.132812 469.089844 Z M 156.402344 469.089844 "/>
<path style=" stroke:none;fill-rule:nonzero;fill:rgb(100%,100%,100%);fill-opacity:1;" d="M 162.378906 469.089844 L 162.378906 470.800781 L 157.0625 470.800781 L 157.0625 464.199219 L 159.390625 464.199219 L 159.390625 469.089844 Z M 162.378906 469.089844 "/>
<path style=" stroke:none;fill-rule:nonzero;fill:rgb(100%,100%,100%);fill-opacity:1;" d="M 166.871094 468.761719 C 167.023438 468.507812 167.101562 468.085938 167.101562 467.5 C 167.101562 466.914062 167.023438 466.492188 166.871094 466.238281 C 166.71875 465.988281 166.433594 465.859375 166.019531 465.859375 L 165.441406 465.859375 L 165.441406 469.140625 L 166.019531 469.140625 C 166.433594 469.140625 166.71875 469.015625 166.871094 468.761719 M 168.683594 465.054688 C 169.214844 465.625 169.480469 466.441406 169.480469 467.5 C 169.480469 468.558594 169.214844 469.375 168.683594 469.945312 C 168.15625 470.515625 167.378906 470.800781 166.351562 470.800781 L 163.109375 470.800781 L 163.109375 464.199219 L 166.351562 464.199219 C 167.378906 464.199219 168.15625 464.484375 168.683594 465.054688 "/>
<path style=" stroke:none;fill-rule:nonzero;fill:rgb(100%,100%,100%);fill-opacity:1;" d="M 178.75 470.800781 L 176.71875 470.800781 L 176.71875 468.511719 L 176.75 466.289062 L 176.71875 466.289062 L 175.441406 470.800781 L 173.582031 470.800781 L 172.320312 466.289062 L 172.28125 466.289062 L 172.3125 468.511719 L 172.3125 470.800781 L 170.269531 470.800781 L 170.269531 464.199219 L 173.53125 464.199219 L 174.289062 467.128906 L 174.582031 468.359375 L 174.601562 468.359375 L 174.890625 467.128906 L 175.652344 464.199219 L 178.75 464.199219 Z M 178.75 470.800781 "/>
<path style=" stroke:none;fill-rule:nonzero;fill:rgb(100%,100%,100%);fill-opacity:1;" d="M 183.222656 468.089844 L 182.691406 465.890625 L 182.660156 465.890625 L 182.402344 467.011719 L 182.132812 468.089844 Z M 183.5625 469.539062 L 181.78125 469.539062 L 181.472656 470.800781 L 179.152344 470.800781 L 181.289062 464.199219 L 184.089844 464.199219 L 186.242188 470.800781 L 183.859375 470.800781 Z M 183.5625 469.539062 "/>
<path style=" stroke:none;fill-rule:nonzero;fill:rgb(100%,100%,100%);fill-opacity:1;" d="M 193.101562 470.800781 L 190.582031 470.800781 L 189 467.800781 L 188.640625 466.992188 L 188.621094 466.992188 L 188.660156 468.351562 L 188.660156 470.800781 L 186.640625 470.800781 L 186.640625 464.199219 L 189.160156 464.199219 L 190.742188 467.210938 L 191.101562 468.011719 L 191.121094 468.011719 L 191.082031 466.648438 L 191.082031 464.199219 L 193.101562 464.199219 Z M 193.101562 470.800781 "/>
<path style=" stroke:none;fill-rule:nonzero;fill:rgb(100%,100%,100%);fill-opacity:1;" d="M 206.378906 467.082031 L 207.210938 467.082031 C 207.503906 467.082031 207.710938 467.035156 207.835938 466.945312 C 207.960938 466.855469 208.019531 466.695312 208.019531 466.46875 C 208.019531 466.25 207.960938 466.09375 207.835938 466 C 207.710938 465.90625 207.503906 465.859375 207.210938 465.859375 L 206.378906 465.859375 Z M 207.019531 468.609375 L 206.378906 468.609375 L 206.378906 470.800781 L 204.101562 470.800781 L 204.101562 464.199219 L 207.679688 464.199219 C 208.558594 464.199219 209.226562 464.386719 209.675781 464.753906 C 210.125 465.125 210.351562 465.675781 210.351562 466.410156 C 210.351562 467.378906 209.953125 468.027344 209.160156 468.359375 L 210.71875 470.800781 L 208.191406 470.800781 Z M 207.019531 468.609375 "/>
<path style=" stroke:none;fill-rule:nonzero;fill:rgb(100%,100%,100%);fill-opacity:1;" d="M 216.75 469.089844 L 216.75 470.800781 L 211.148438 470.800781 L 211.148438 464.199219 L 216.628906 464.199219 L 216.628906 465.910156 L 213.480469 465.910156 L 213.480469 466.730469 L 216.019531 466.730469 L 216.019531 468.308594 L 213.480469 468.308594 L 213.480469 469.089844 Z M 216.75 469.089844 "/>
<path style=" stroke:none;fill-rule:nonzero;fill:rgb(100%,100%,100%);fill-opacity:1;" d="M 220.558594 470.898438 C 219.867188 470.898438 219.269531 470.765625 218.765625 470.5 C 218.261719 470.234375 217.875 469.84375 217.605469 469.335938 C 217.335938 468.824219 217.199219 468.214844 217.199219 467.5 C 217.199219 466.785156 217.335938 466.175781 217.605469 465.664062 C 217.875 465.15625 218.261719 464.765625 218.765625 464.5 C 219.269531 464.234375 219.867188 464.101562 220.558594 464.101562 C 221.332031 464.101562 221.996094 464.265625 222.539062 464.59375 C 223.085938 464.925781 223.425781 465.425781 223.558594 466.101562 L 221.558594 466.878906 C 221.507812 466.472656 221.410156 466.199219 221.269531 466.058594 C 221.128906 465.921875 220.914062 465.851562 220.621094 465.851562 C 220.273438 465.851562 220.015625 465.984375 219.839844 466.25 C 219.667969 466.515625 219.582031 466.933594 219.582031 467.5 C 219.582031 468.066406 219.664062 468.484375 219.832031 468.75 C 219.996094 469.015625 220.253906 469.148438 220.601562 469.148438 C 220.914062 469.148438 221.140625 469.082031 221.28125 468.941406 C 221.421875 468.800781 221.511719 468.570312 221.550781 468.25 L 223.609375 468.78125 C 223.269531 470.195312 222.253906 470.898438 220.558594 470.898438 "/>
<path style=" stroke:none;fill-rule:nonzero;fill:rgb(100%,100%,100%);fill-opacity:1;" d="M 230.648438 464.199219 L 230.648438 470.800781 L 228.320312 470.800781 L 228.320312 468.339844 L 226.511719 468.339844 L 226.511719 470.800781 L 224.179688 470.800781 L 224.179688 464.199219 L 226.511719 464.199219 L 226.511719 466.628906 L 228.320312 466.628906 L 228.320312 464.199219 Z M 230.648438 464.199219 "/>
<path style=" stroke:none;fill-rule:nonzero;fill:rgb(100%,100%,100%);fill-opacity:1;" d="M 238.109375 470.800781 L 235.589844 470.800781 L 234.011719 467.800781 L 233.648438 466.992188 L 233.628906 466.992188 L 233.671875 468.351562 L 233.671875 470.800781 L 231.648438 470.800781 L 231.648438 464.199219 L 234.171875 464.199219 L 235.75 467.210938 L 236.109375 468.011719 L 236.128906 468.011719 L 236.089844 466.648438 L 236.089844 464.199219 L 238.109375 464.199219 Z M 238.109375 470.800781 "/>
<path style=" stroke:none;fill-rule:nonzero;fill:rgb(100%,100%,100%);fill-opacity:1;" d="M 241.441406 470.800781 L 239.109375 470.800781 L 239.109375 464.199219 L 241.441406 464.199219 Z M 241.441406 470.800781 "/>
<path style=" stroke:none;fill-rule:nonzero;fill:rgb(100%,100%,100%);fill-opacity:1;" d="M 248.601562 465.910156 L 246.539062 465.910156 L 246.539062 470.800781 L 244.210938 470.800781 L 244.210938 465.910156 L 242.140625 465.910156 L 242.140625 464.199219 L 248.601562 464.199219 Z M 248.601562 465.910156 "/>
<path style=" stroke:none;fill-rule:nonzero;fill:rgb(100%,100%,100%);fill-opacity:1;" d="M 255.019531 469.140625 L 255.019531 470.800781 L 249.050781 470.800781 L 249.050781 469.210938 L 252.398438 465.859375 L 249.089844 465.859375 L 249.089844 464.199219 L 254.910156 464.199219 L 254.910156 465.789062 L 251.578125 469.140625 Z M 255.019531 469.140625 "/>
<path style=" stroke:none;fill-rule:nonzero;fill:rgb(100%,100%,100%);fill-opacity:1;" d="M 261.269531 469.089844 L 261.269531 470.800781 L 255.667969 470.800781 L 255.667969 464.199219 L 261.148438 464.199219 L 261.148438 465.910156 L 258 465.910156 L 258 466.730469 L 260.539062 466.730469 L 260.539062 468.308594 L 258 468.308594 L 258 469.089844 Z M 261.269531 469.089844 "/>
<path style=" stroke:none;fill-rule:nonzero;fill:rgb(100%,100%,100%);fill-opacity:1;" d="M 264.207031 467.082031 L 265.039062 467.082031 C 265.332031 467.082031 265.539062 467.035156 265.664062 466.945312 C 265.789062 466.855469 265.851562 466.695312 265.851562 466.46875 C 265.851562 466.25 265.789062 466.09375 265.664062 466 C 265.539062 465.90625 265.332031 465.859375 265.039062 465.859375 L 264.207031 465.859375 Z M 264.851562 468.609375 L 264.207031 468.609375 L 264.207031 470.800781 L 261.929688 470.800781 L 261.929688 464.199219 L 265.507812 464.199219 C 266.390625 464.199219 267.054688 464.386719 267.503906 464.753906 C 267.953125 465.125 268.179688 465.675781 268.179688 466.410156 C 268.179688 467.378906 267.78125 468.027344 266.988281 468.359375 L 268.546875 470.800781 L 266.019531 470.800781 Z M 264.851562 468.609375 "/>
<path style=" stroke:none;fill-rule:nonzero;fill:rgb(100%,100%,100%);fill-opacity:1;" d="M 283.207031 468.511719 L 283.207031 470.800781 L 280.878906 470.800781 L 280.878906 468.511719 L 278.566406 464.199219 L 280.890625 464.199219 L 281.589844 465.710938 L 282.058594 466.910156 L 282.527344 465.710938 L 283.230469 464.199219 L 285.519531 464.199219 Z M 283.207031 468.511719 "/>
<path style=" stroke:none;fill-rule:nonzero;fill:rgb(100%,100%,100%);fill-opacity:1;" d="M 291.707031 469.089844 L 291.707031 470.800781 L 286.109375 470.800781 L 286.109375 464.199219 L 291.589844 464.199219 L 291.589844 465.910156 L 288.4375 465.910156 L 288.4375 466.730469 L 290.980469 466.730469 L 290.980469 468.308594 L 288.4375 468.308594 L 288.4375 469.089844 Z M 291.707031 469.089844 "/>
<path style=" stroke:none;fill-rule:nonzero;fill:rgb(100%,100%,100%);fill-opacity:1;" d="M 295.839844 468.089844 L 295.308594 465.890625 L 295.277344 465.890625 L 295.019531 467.011719 L 294.75 468.089844 Z M 296.179688 469.539062 L 294.398438 469.539062 L 294.089844 470.800781 L 291.769531 470.800781 L 293.910156 464.199219 L 296.707031 464.199219 L 298.859375 470.800781 L 296.480469 470.800781 Z M 296.179688 469.539062 "/>
<path style=" stroke:none;fill-rule:nonzero;fill:rgb(100%,100%,100%);fill-opacity:1;" d="M 302.207031 467.082031 L 305.269531 467.082031 L 305.269531 470.800781 L 303.730469 470.800781 L 303.648438 470.050781 C 303.308594 470.617188 302.710938 470.898438 301.859375 470.898438 C 301.277344 470.898438 300.757812 470.773438 300.292969 470.515625 C 299.828125 470.257812 299.464844 469.878906 299.191406 469.371094 C 298.921875 468.863281 298.789062 468.246094 298.789062 467.519531 C 298.789062 466.441406 299.089844 465.601562 299.691406 465 C 300.296875 464.398438 301.136719 464.101562 302.207031 464.101562 C 303.027344 464.101562 303.679688 464.242188 304.164062 464.519531 C 304.648438 464.800781 305.023438 465.265625 305.289062 465.910156 L 303.117188 466.691406 C 303.03125 466.128906 302.753906 465.851562 302.289062 465.851562 C 301.902344 465.851562 301.617188 465.980469 301.4375 466.246094 C 301.257812 466.507812 301.167969 466.925781 301.167969 467.5 C 301.167969 468.113281 301.265625 468.550781 301.457031 468.816406 C 301.652344 469.078125 301.953125 469.210938 302.367188 469.210938 C 302.660156 469.210938 302.894531 469.152344 303.0625 469.035156 C 303.234375 468.917969 303.316406 468.746094 303.316406 468.519531 L 303.316406 468.511719 L 302.207031 468.511719 Z M 302.207031 467.082031 "/>
<path style=" stroke:none;fill-rule:nonzero;fill:rgb(100%,100%,100%);fill-opacity:1;" d="M 311.820312 469.089844 L 311.820312 470.800781 L 306.21875 470.800781 L 306.21875 464.199219 L 311.699219 464.199219 L 311.699219 465.910156 L 308.546875 465.910156 L 308.546875 466.730469 L 311.089844 466.730469 L 311.089844 468.308594 L 308.546875 468.308594 L 308.546875 469.089844 Z M 311.820312 469.089844 "/>
<path style=" stroke:none;fill-rule:nonzero;fill:rgb(100%,100%,100%);fill-opacity:1;" d="M 314.757812 467.082031 L 315.589844 467.082031 C 315.882812 467.082031 316.089844 467.035156 316.214844 466.945312 C 316.335938 466.855469 316.398438 466.695312 316.398438 466.46875 C 316.398438 466.25 316.335938 466.09375 316.214844 466 C 316.089844 465.90625 315.882812 465.859375 315.589844 465.859375 L 314.757812 465.859375 Z M 315.398438 468.609375 L 314.757812 468.609375 L 314.757812 470.800781 L 312.476562 470.800781 L 312.476562 464.199219 L 316.058594 464.199219 C 316.9375 464.199219 317.601562 464.386719 318.054688 464.753906 C 318.503906 465.125 318.726562 465.675781 318.726562 466.410156 C 318.726562 467.378906 318.332031 468.027344 317.539062 468.359375 L 319.097656 470.800781 L 316.570312 470.800781 Z M 315.398438 468.609375 "/>
</g>
</svg>
